<svg width="391" height="160" viewBox="0 0 391 160" fill="none" xmlns="http://www.w3.org/2000/svg">
<path d="M168.39 85.3597C168.39 82.1197 171.05 79.4897 174.27 79.4897C176.96 79.4897 178.82 81.2797 178.82 83.8997C178.82 87.1197 176.15 89.7697 172.94 89.7697C170.27 89.7697 168.39 87.9697 168.39 85.3597ZM177.42 83.9698C177.42 82.0298 176.11 80.7297 174.2 80.7297C171.77 80.7297 169.78 82.7797 169.78 85.2897C169.78 87.2097 171.1 88.5298 173 88.5298C175.4 88.5298 177.42 86.4498 177.42 83.9698Z" fill="black"/>
<path d="M181.17 88.4597L181.05 89.5097H179.86L181.28 79.4097H182.51L182.07 82.4497C181.97 83.1097 181.89 83.7997 181.79 84.4497C182.44 83.5797 183.31 83.1097 184.2 83.1097C185.62 83.1097 186.57 84.1397 186.57 85.7997C186.57 87.9997 185.07 89.7697 183.26 89.7697C182.42 89.7697 181.52 89.2197 181.16 88.4597H181.17ZM185.3 85.8697C185.3 84.8097 184.74 84.2197 183.81 84.2197C182.52 84.2197 181.44 85.4197 181.44 86.9197C181.44 87.9997 182.07 88.6597 183.04 88.6597C184.32 88.6597 185.3 87.4797 185.3 85.8797V85.8697Z" fill="black"/>
<path d="M187.26 88.3401L188.2 87.7601L188.28 87.8001C188.5 88.4501 188.97 88.7801 189.62 88.7801C190.36 88.7801 190.9 88.4101 190.9 87.8601C190.9 87.4701 190.57 87.1901 189.76 86.8701C188.49 86.3901 187.97 85.8601 187.97 85.0901C187.97 83.9601 188.99 83.1201 190.37 83.1201C191.42 83.1201 192.2 83.6201 192.46 84.4601L191.59 84.9701L191.49 84.9301C191.3 84.3901 190.9 84.1201 190.31 84.1201C189.68 84.1201 189.18 84.4901 189.18 84.9701C189.18 85.3301 189.48 85.5601 190.37 85.9501C191.64 86.4301 192.12 86.9601 192.12 87.7701C192.12 88.9601 191.07 89.7801 189.58 89.7801C188.46 89.7801 187.61 89.3001 187.26 88.3501V88.3401Z" fill="black"/>
<path d="M194.7 86.6499C194.7 86.7699 194.69 86.8999 194.69 87.0199C194.68 88.0699 195.32 88.7199 196.3 88.7199C197 88.7199 197.6 88.4199 198.19 87.6399H198.31L199.17 88.1899C198.44 89.2399 197.38 89.7599 196.22 89.7599C194.52 89.7599 193.44 88.6899 193.44 86.9799C193.44 84.7899 194.97 83.1099 196.97 83.1099C198.61 83.1099 199.6 84.1199 199.6 85.7999C199.6 86.0999 199.56 86.4199 199.49 86.6499H194.71H194.7ZM194.88 85.7699L198.37 85.7999C198.45 84.7799 197.9 84.1299 196.94 84.1299C195.98 84.1299 195.23 84.7599 194.89 85.7699H194.88Z" fill="black"/>
<path d="M200.78 89.5101L201.65 83.3801H202.77L202.59 84.5701C203.22 83.5801 203.9 83.1201 204.63 83.1201C205.25 83.1201 205.69 83.5201 205.82 84.2401L204.7 84.8301L204.59 84.7901C204.52 84.4501 204.36 84.2801 204.07 84.2801C203.37 84.2801 202.58 85.3701 202.4 86.7201L202.01 89.5201H200.78V89.5101Z" fill="black"/>
<path d="M208.17 89.7101L206.16 83.3701H207.47L208.63 87.5601H208.66L211 83.3701H212.34L208.55 89.7101H208.18H208.17Z" fill="black"/>
<path d="M212.52 87.0699C212.52 84.9099 214.009 83.1099 215.799 83.1099C216.669 83.1099 217.42 83.6099 217.81 84.4699L217.979 83.3699H219.19L218.34 89.4999H217.099L217.14 89.2499C217.18 88.9699 217.22 88.7299 217.26 88.5199C216.68 89.2899 215.76 89.7599 214.95 89.7599C213.49 89.7599 212.52 88.7299 212.52 87.0599V87.0699ZM217.599 86.0099C217.599 84.9399 216.94 84.2199 216.02 84.2199C214.78 84.2199 213.799 85.3899 213.799 86.9999C213.799 88.0599 214.35 88.6499 215.27 88.6499C216.55 88.6499 217.599 87.5199 217.599 85.9999V86.0099Z" fill="black"/>
<path d="M223.89 88.5299L223.79 89.5599C223.43 89.6799 223 89.7699 222.58 89.7699C221.45 89.7699 220.87 89.1099 221.05 87.7899L221.53 84.3999H220.37L220.51 83.3799H221.67L221.95 81.5199L223.05 80.8999H223.24L222.9 83.3799H224.65L224.5 84.3999H222.76L222.32 87.5399C222.2 88.3799 222.39 88.6599 223.01 88.6599C223.26 88.6599 223.49 88.6099 223.78 88.4799L223.89 88.5299Z" fill="black"/>
<path d="M225.18 86.8597C225.18 84.8197 226.83 83.1097 228.96 83.1097C230.68 83.1097 231.88 84.2997 231.88 85.9797C231.88 88.0297 230.17 89.7697 228.12 89.7697C226.4 89.7697 225.18 88.5697 225.18 86.8597ZM230.61 86.0497C230.61 84.9697 229.92 84.2297 228.91 84.2297C227.53 84.2297 226.44 85.4197 226.44 86.8197C226.44 87.8897 227.14 88.6497 228.16 88.6497C229.48 88.6497 230.6 87.4397 230.6 86.0497H230.61ZM228.02 82.0298L229.9 79.4897H231.22L231.26 79.5898L229.07 82.0298H228.02Z" fill="black"/>
<path d="M233.03 89.5101L233.9 83.3801H235.02L234.84 84.5701C235.47 83.5801 236.15 83.1201 236.88 83.1201C237.5 83.1201 237.94 83.5201 238.07 84.2401L236.95 84.8301L236.84 84.7901C236.77 84.4501 236.61 84.2801 236.32 84.2801C235.62 84.2801 234.83 85.3701 234.65 86.7201L234.27 89.5201H233.04L233.03 89.5101Z" fill="black"/>
<path d="M238.48 89.5099L239.331 83.3799H240.56L239.711 89.5099H238.48ZM239.49 80.5199C239.49 80.0499 239.861 79.6899 240.341 79.6899C240.821 79.6899 241.201 80.0599 241.201 80.5299C241.201 80.9999 240.831 81.3599 240.341 81.3599C239.851 81.3599 239.49 80.9999 239.49 80.5199Z" fill="black"/>
<path d="M241.82 86.8599C241.82 84.8199 243.47 83.1099 245.6 83.1099C247.32 83.1099 248.52 84.2999 248.52 85.9799C248.52 88.0299 246.81 89.7699 244.76 89.7699C243.04 89.7699 241.83 88.5699 241.83 86.8599H241.82ZM247.25 86.0499C247.25 84.9699 246.56 84.2299 245.55 84.2299C244.17 84.2299 243.09 85.4199 243.09 86.8199C243.09 87.8899 243.79 88.6499 244.81 88.6499C246.13 88.6499 247.25 87.4399 247.25 86.0499Z" fill="black"/>
<path d="M253.89 87.0699C253.89 84.9299 255.35 83.1099 257.14 83.1099C258.02 83.1099 258.84 83.6099 259.22 84.4499C259.3 83.7699 259.39 83.0999 259.48 82.4199L259.92 79.3999H261.15L259.73 89.4999H258.54L258.69 88.4799C258.14 89.2699 257.17 89.7599 256.31 89.7599C254.82 89.7599 253.88 88.7299 253.88 87.0599L253.89 87.0699ZM259 86.0099C259 84.9399 258.34 84.2199 257.38 84.2199C256.13 84.2199 255.17 85.3999 255.17 86.9999C255.17 88.0499 255.71 88.6499 256.64 88.6499C257.95 88.6499 259 87.5099 259 85.9999V86.0099Z" fill="black"/>
<path d="M263.1 86.6499C263.1 86.7699 263.09 86.8999 263.09 87.0199C263.08 88.0699 263.72 88.7199 264.7 88.7199C265.4 88.7199 266 88.4199 266.59 87.6399H266.71L267.57 88.1899C266.84 89.2399 265.78 89.7599 264.62 89.7599C262.92 89.7599 261.84 88.6899 261.84 86.9799C261.84 84.7899 263.37 83.1099 265.37 83.1099C267.01 83.1099 268 84.1199 268 85.7999C268 86.0999 267.96 86.4199 267.89 86.6499H263.11H263.1ZM263.28 85.7699L266.77 85.7999C266.85 84.7799 266.3 84.1299 265.34 84.1299C264.38 84.1299 263.63 84.7599 263.29 85.7699H263.28Z" fill="black"/>
<path d="M276.66 89.69L273.84 79.76H275.27L276.81 85.57C276.96 86.09 277.09 86.63 277.22 87.21H277.27C277.56 86.63 277.85 86.11 278.13 85.58L281.31 79.75H282.81L277.22 89.68H276.66V89.69Z" fill="black"/>
<path d="M282.57 89.5099L283.42 83.3799H284.65L283.8 89.5099H282.57ZM283.58 80.5199C283.58 80.0499 283.95 79.6899 284.43 79.6899C284.91 79.6899 285.29 80.0599 285.29 80.5299C285.29 80.9999 284.92 81.3599 284.43 81.3599C283.94 81.3599 283.58 80.9999 283.58 80.5199Z" fill="black"/>
<path d="M285.49 91.1301L286.43 90.5601H286.53C286.99 91.3301 287.52 91.6201 288.4 91.6201C289.57 91.6201 290.34 90.8601 290.51 89.5901C290.54 89.3601 290.56 89.0901 290.69 88.4301C290.11 89.2001 289.19 89.6701 288.33 89.6701C286.86 89.6701 285.89 88.6401 285.89 87.0101C285.89 84.8701 287.36 83.1001 289.18 83.1001C290.05 83.1001 290.83 83.6001 291.23 84.4601L291.38 83.3601H292.61L291.76 89.5301C291.5 91.5101 290.31 92.6601 288.36 92.6601C287.04 92.6601 286.14 92.1901 285.49 91.1201V91.1301ZM291.03 86.0101C291.03 84.9401 290.37 84.2201 289.38 84.2201C288.1 84.2201 287.18 85.3901 287.18 86.9601C287.18 87.9801 287.73 88.5701 288.67 88.5701C289.99 88.5701 291.04 87.4401 291.04 86.0101H291.03Z" fill="black"/>
<path d="M293.91 89.5099L294.77 83.3799H295.99L295.14 89.5099H293.91ZM294.91 80.5199C294.91 80.0499 295.28 79.6899 295.77 79.6899C296.26 79.6899 296.62 80.0599 296.62 80.5299C296.62 80.9999 296.25 81.3599 295.77 81.3599C295.29 81.3599 294.91 80.9999 294.91 80.5199Z" fill="black"/>
<path d="M297.28 89.5097L298.7 79.4097H299.93L298.51 89.5097H297.28Z" fill="black"/>
<path d="M300.6 87.0699C300.6 84.9099 302.09 83.1099 303.88 83.1099C304.75 83.1099 305.5 83.6099 305.89 84.4699L306.06 83.3699H307.27L306.42 89.4999H305.18L305.22 89.2499C305.26 88.9699 305.3 88.7299 305.34 88.5199C304.76 89.2899 303.84 89.7599 303.03 89.7599C301.57 89.7599 300.6 88.7299 300.6 87.0599V87.0699ZM305.69 86.0099C305.69 84.9399 305.03 84.2199 304.11 84.2199C302.87 84.2199 301.89 85.3899 301.89 86.9999C301.89 88.0599 302.44 88.6499 303.36 88.6499C304.64 88.6499 305.69 87.5199 305.69 85.9999V86.0099ZM304.89 80.2799L303.5 82.1499H302.55L302.5 82.0399L304.29 79.6099H305.61L306.71 82.0399L306.61 82.1499H305.75L304.88 80.2799H304.89Z" fill="black"/>
<path d="M309.42 83.3801H310.63L310.49 84.4601C311.12 83.5901 311.99 83.1201 312.86 83.1201C314.24 83.1201 314.94 84.0201 314.71 85.6801L314.17 89.5101H312.95L313.45 86.0701C313.64 84.6901 313.23 84.2401 312.36 84.2401C311.3 84.2401 310.39 85.1401 310.2 86.6001L309.8 89.5201H308.57L309.43 83.3901L309.42 83.3801Z" fill="black"/>
<path d="M316.28 86.9901C316.28 84.8701 317.809 83.1201 319.859 83.1201C321.029 83.1201 322.01 83.6901 322.49 84.8001L321.51 85.3501L321.4 85.3101C321 84.5001 320.489 84.1901 319.789 84.1901C318.489 84.1901 317.539 85.4601 317.539 86.9201C317.539 88.0201 318.189 88.6801 319.109 88.6801C319.879 88.6801 320.499 88.3401 321.109 87.5201H321.22L322.06 88.1001C321.27 89.2301 320.17 89.7701 319.01 89.7701C317.33 89.7701 316.27 88.6801 316.27 86.9901H316.28Z" fill="black"/>
<path d="M323.44 89.5099L324.29 83.3799H325.52L324.67 89.5099H323.44ZM324.45 80.5199C324.45 80.0499 324.82 79.6899 325.3 79.6899C325.78 79.6899 326.16 80.0599 326.16 80.5299C326.16 80.9999 325.79 81.3599 325.3 81.3599C324.81 81.3599 324.45 80.9999 324.45 80.5199Z" fill="black"/>
<path d="M326.76 87.0699C326.76 84.9099 328.25 83.1099 330.04 83.1099C330.91 83.1099 331.66 83.6099 332.05 84.4699L332.21 83.3699H333.42L332.57 89.4999H331.33L331.37 89.2499C331.41 88.9699 331.45 88.7299 331.49 88.5199C330.91 89.2899 329.99 89.7599 329.18 89.7599C327.72 89.7599 326.76 88.7299 326.76 87.0599V87.0699ZM331.85 86.0099C331.85 84.9399 331.19 84.2199 330.26 84.2199C329.02 84.2199 328.04 85.3899 328.04 86.9999C328.04 88.0599 328.59 88.6499 329.51 88.6499C330.79 88.6499 331.84 87.5199 331.84 85.9999L331.85 86.0099Z" fill="black"/>
<path d="M339.11 89.5098L340.48 79.7598H343.08C346.29 79.7598 348.03 81.1898 348.03 83.7998C348.03 87.2298 345.62 89.5198 341.84 89.5198H339.11V89.5098ZM340.6 88.2898H341.79C344.93 88.2898 346.65 86.6498 346.65 83.8098C346.65 81.9098 345.44 80.9598 342.86 80.9598H341.63L340.6 88.2898Z" fill="black"/>
<path d="M349.05 89.5099L349.91 83.3799H351.13L350.28 89.5099H349.05ZM350.06 80.5199C350.06 80.0499 350.43 79.6899 350.92 79.6899C351.41 79.6899 351.77 80.0599 351.77 80.5299C351.77 80.9999 351.4 81.3599 350.92 81.3599C350.44 81.3599 350.06 80.9999 350.06 80.5199Z" fill="black"/>
<path d="M351.97 91.1301L352.91 90.5601H353.01C353.46 91.3301 354 91.6201 354.88 91.6201C356.05 91.6201 356.82 90.8601 356.99 89.5901C357.02 89.3601 357.05 89.0901 357.17 88.4301C356.59 89.2001 355.67 89.6701 354.81 89.6701C353.34 89.6701 352.37 88.6401 352.37 87.0101C352.37 84.8701 353.84 83.1001 355.66 83.1001C356.53 83.1001 357.31 83.6001 357.71 84.4601L357.86 83.3601H359.09L358.23 89.5301C357.97 91.5101 356.78 92.6601 354.83 92.6601C353.51 92.6601 352.61 92.1901 351.96 91.1201L351.97 91.1301ZM357.51 86.0101C357.51 84.9401 356.85 84.2201 355.86 84.2201C354.58 84.2201 353.65 85.3901 353.65 86.9601C353.65 87.9801 354.2 88.5701 355.14 88.5701C356.46 88.5701 357.51 87.4401 357.51 86.0101Z" fill="black"/>
<path d="M360.39 89.5099L361.24 83.3799H362.47L361.62 89.5099H360.39ZM361.4 80.5199C361.4 80.0499 361.77 79.6899 362.25 79.6899C362.73 79.6899 363.11 80.0599 363.11 80.5299C363.11 80.9999 362.74 81.3599 362.25 81.3599C361.76 81.3599 361.4 80.9999 361.4 80.5199Z" fill="black"/>
<path d="M367.17 88.5299L367.07 89.5599C366.71 89.6799 366.28 89.7699 365.86 89.7699C364.73 89.7699 364.15 89.1099 364.33 87.7899L364.81 84.3999H363.65L363.79 83.3799H364.95L365.23 81.5199L366.33 80.8999H366.52L366.17 83.3799H367.92L367.77 84.3999H366.03L365.59 87.5399C365.47 88.3799 365.66 88.6599 366.28 88.6599C366.53 88.6599 366.76 88.6099 367.05 88.4799L367.16 88.5299H367.17Z" fill="black"/>
<path d="M368.45 87.0699C368.45 84.9099 369.94 83.1099 371.73 83.1099C372.6 83.1099 373.35 83.6099 373.74 84.4699L373.91 83.3699H375.12L374.27 89.4999H373.03L373.07 89.2499C373.11 88.9699 373.15 88.7299 373.19 88.5199C372.61 89.2899 371.69 89.7599 370.88 89.7599C369.42 89.7599 368.45 88.7299 368.45 87.0599V87.0699ZM373.53 86.0099C373.53 84.9399 372.87 84.2199 371.95 84.2199C370.71 84.2199 369.73 85.3899 369.73 86.9999C369.73 88.0599 370.28 88.6499 371.2 88.6499C372.48 88.6499 373.53 87.5199 373.53 85.9999V86.0099Z" fill="black"/>
<path d="M376.41 89.5097L377.83 79.4097H379.06L377.64 89.5097H376.41Z" fill="black"/>
<path d="M385.29 86.6499C385.29 86.7699 385.28 86.8999 385.28 87.0199C385.27 88.0699 385.91 88.7199 386.89 88.7199C387.59 88.7199 388.19 88.4199 388.78 87.6399H388.9L389.76 88.1899C389.03 89.2399 387.97 89.7599 386.81 89.7599C385.11 89.7599 384.03 88.6899 384.03 86.9799C384.03 84.7899 385.56 83.1099 387.56 83.1099C389.2 83.1099 390.19 84.1199 390.19 85.7999C390.19 86.0999 390.15 86.4199 390.08 86.6499H385.3H385.29ZM385.47 85.7699L388.96 85.7999C389.04 84.7799 388.49 84.1299 387.53 84.1299C386.57 84.1299 385.82 84.7599 385.48 85.7699H385.47Z" fill="black"/>
<path d="M168.01 103.6C168.01 101.46 169.47 99.6397 171.26 99.6397C172.14 99.6397 172.96 100.14 173.34 100.98C173.42 100.3 173.51 99.6297 173.6 98.9497L174.04 95.9297H175.27L173.85 106.03H172.66L172.81 105.01C172.26 105.8 171.29 106.29 170.43 106.29C168.94 106.29 168 105.26 168 103.59L168.01 103.6ZM173.13 102.54C173.13 101.47 172.47 100.75 171.51 100.75C170.26 100.75 169.3 101.93 169.3 103.53C169.3 104.58 169.84 105.18 170.77 105.18C172.08 105.18 173.13 104.04 173.13 102.53V102.54Z" fill="black"/>
<path d="M177.23 103.18C177.23 103.3 177.22 103.43 177.22 103.55C177.21 104.6 177.85 105.25 178.83 105.25C179.53 105.25 180.13 104.95 180.72 104.17H180.84L181.7 104.72C180.97 105.77 179.91 106.29 178.75 106.29C177.05 106.29 175.97 105.22 175.97 103.51C175.97 101.32 177.5 99.6396 179.5 99.6396C181.14 99.6396 182.13 100.65 182.13 102.33C182.13 102.63 182.09 102.95 182.02 103.18H177.24H177.23ZM177.41 102.3L180.9 102.33C180.98 101.31 180.43 100.66 179.47 100.66C178.51 100.66 177.76 101.29 177.42 102.3H177.41Z" fill="black"/>
<path d="M187.52 106.04L188.89 96.29H191.59C193.63 96.29 194.66 97.14 194.66 98.67C194.66 100.71 193.24 101.99 190.94 101.99H189.41L188.84 106.04H187.52ZM189.56 100.84H190.799C192.449 100.84 193.32 100.12 193.32 98.76C193.32 97.84 192.69 97.4401 191.31 97.4401H190.06L189.56 100.84Z" fill="black"/>
<path d="M194.98 106.04L195.85 99.9099H196.971L196.79 101.1C197.42 100.11 198.101 99.6499 198.831 99.6499C199.451 99.6499 199.891 100.05 200.021 100.77L198.901 101.36L198.79 101.32C198.72 100.98 198.561 100.81 198.271 100.81C197.571 100.81 196.78 101.9 196.6 103.25L196.221 106.05H194.99L194.98 106.04Z" fill="black"/>
<path d="M201.43 103.18C201.43 103.3 201.42 103.43 201.42 103.55C201.4 104.6 202.05 105.25 203.03 105.25C203.73 105.25 204.32 104.95 204.92 104.17H205.04L205.89 104.72C205.16 105.77 204.1 106.29 202.94 106.29C201.24 106.29 200.16 105.22 200.16 103.51C200.16 101.32 201.69 99.6396 203.69 99.6396C205.33 99.6396 206.32 100.65 206.32 102.33C206.32 102.63 206.28 102.95 206.21 103.18H201.43ZM201.61 102.3L205.1 102.33C205.18 101.31 204.63 100.66 203.67 100.66C202.71 100.66 201.96 101.29 201.62 102.3H201.61Z" fill="black"/>
<path d="M209.42 106.24L207.41 99.8999H208.72L209.88 104.09H209.91L212.25 99.8999H213.59L209.8 106.24H209.43H209.42Z" fill="black"/>
<path d="M215.05 103.18C215.05 103.3 215.04 103.43 215.04 103.55C215.02 104.6 215.67 105.25 216.65 105.25C217.35 105.25 217.94 104.95 218.54 104.17H218.66L219.51 104.72C218.78 105.77 217.72 106.29 216.56 106.29C214.86 106.29 213.78 105.22 213.78 103.51C213.78 101.32 215.31 99.6396 217.31 99.6396C218.95 99.6396 219.94 100.65 219.94 102.33C219.94 102.63 219.9 102.95 219.83 103.18H215.05ZM215.23 102.3L218.72 102.33C218.8 101.31 218.25 100.66 217.29 100.66C216.33 100.66 215.58 101.29 215.24 102.3H215.23Z" fill="black"/>
<path d="M222 99.8997H223.21L223.07 100.98C223.7 100.11 224.57 99.6396 225.44 99.6396C226.82 99.6396 227.52 100.54 227.29 102.2L226.75 106.03H225.52L226.02 102.59C226.21 101.21 225.8 100.76 224.93 100.76C223.87 100.76 222.96 101.66 222.77 103.12L222.37 106.04H221.14L221.99 99.9096L222 99.8997Z" fill="black"/>
<path d="M233.8 104.04L234.64 104.63C233.95 105.61 233.03 106.15 232.04 106.27L231.46 107.04C231.61 107 231.72 106.99 231.9 106.99C232.49 106.99 232.91 107.35 232.91 107.87C232.91 108.68 232.19 109.22 231.15 109.22C230.65 109.22 230.12 109.08 229.77 108.89L230.07 108.28L230.19 108.24C230.48 108.45 230.81 108.54 231.17 108.54C231.65 108.54 231.97 108.31 231.97 107.93C231.97 107.65 231.76 107.52 231.32 107.52C231.13 107.52 230.91 107.56 230.71 107.62L230.46 107.37L231.29 106.28C229.79 106.16 228.85 105.1 228.85 103.51C228.85 101.39 230.38 99.6396 232.43 99.6396C233.6 99.6396 234.58 100.21 235.06 101.32L234.08 101.87L233.97 101.83C233.57 101.02 233.06 100.71 232.36 100.71C231.07 100.71 230.11 101.98 230.11 103.44C230.11 104.54 230.76 105.2 231.68 105.2C232.45 105.2 233.07 104.86 233.68 104.04H233.79H233.8Z" fill="black"/>
<path d="M235.95 103.6C235.95 101.44 237.44 99.6396 239.23 99.6396C240.1 99.6396 240.85 100.14 241.24 101L241.41 99.8997H242.62L241.77 106.03H240.53L240.57 105.78C240.61 105.5 240.65 105.26 240.69 105.05C240.11 105.82 239.19 106.29 238.38 106.29C236.92 106.29 235.95 105.26 235.95 103.59V103.6ZM241.03 102.54C241.03 101.47 240.37 100.75 239.45 100.75C238.21 100.75 237.23 101.92 237.23 103.53C237.23 104.59 237.78 105.18 238.7 105.18C239.98 105.18 241.03 104.05 241.03 102.53V102.54ZM242.49 96.8997H241.72L241.61 96.9796C241.5 97.3396 241.32 97.5696 241.03 97.5696C240.51 97.5696 239.84 96.8896 239.18 96.8896C238.52 96.8896 237.89 97.5397 237.64 98.4997H238.41L238.53 98.4196C238.64 98.0796 238.81 97.8297 239.1 97.8297C239.65 97.8297 240.2 98.4997 240.95 98.4997C241.61 98.4997 242.23 97.8696 242.49 96.8896V96.8997Z" fill="black"/>
<path d="M243.87 103.39C243.87 101.35 245.52 99.6396 247.65 99.6396C249.37 99.6396 250.57 100.83 250.57 102.51C250.57 104.56 248.86 106.3 246.81 106.3C245.09 106.3 243.87 105.1 243.87 103.39ZM249.3 102.58C249.3 101.5 248.61 100.76 247.6 100.76C246.22 100.76 245.13 101.95 245.13 103.35C245.13 104.42 245.83 105.18 246.85 105.18C248.17 105.18 249.29 103.97 249.29 102.58H249.3Z" fill="black"/>
<path d="M255.76 103.6C255.76 101.46 257.22 99.6397 259.01 99.6397C259.89 99.6397 260.71 100.14 261.09 100.98C261.17 100.3 261.26 99.6297 261.35 98.9497L261.79 95.9297H263.02L261.6 106.03H260.41L260.56 105.01C260.01 105.8 259.04 106.29 258.18 106.29C256.69 106.29 255.75 105.26 255.75 103.59L255.76 103.6ZM260.87 102.54C260.87 101.47 260.21 100.75 259.25 100.75C258 100.75 257.04 101.93 257.04 103.53C257.04 104.58 257.58 105.18 258.51 105.18C259.82 105.18 260.87 104.04 260.87 102.53V102.54Z" fill="black"/>
<path d="M263.7 103.39C263.7 101.35 265.35 99.6396 267.48 99.6396C269.2 99.6396 270.4 100.83 270.4 102.51C270.4 104.56 268.69 106.3 266.64 106.3C264.92 106.3 263.7 105.1 263.7 103.39ZM269.13 102.58C269.13 101.5 268.44 100.76 267.43 100.76C266.05 100.76 264.96 101.95 264.96 103.35C264.96 104.42 265.66 105.18 266.68 105.18C268 105.18 269.12 103.97 269.12 102.58H269.13Z" fill="black"/>
<path d="M277.13 96.2798H282.5L282.56 97.4598H278.27L277.84 100.48H281.82L281.67 101.65H277.69L277.07 106.03H275.75L277.13 96.2798Z" fill="black"/>
<path d="M283.83 103.18C283.83 103.3 283.82 103.43 283.82 103.55C283.81 104.6 284.45 105.25 285.43 105.25C286.13 105.25 286.73 104.95 287.32 104.17H287.44L288.3 104.72C287.57 105.77 286.51 106.29 285.35 106.29C283.65 106.29 282.57 105.22 282.57 103.51C282.57 101.32 284.1 99.6396 286.1 99.6396C287.74 99.6396 288.73 100.65 288.73 102.33C288.73 102.63 288.69 102.95 288.62 103.18H283.84H283.83ZM284.01 102.3L287.5 102.33C287.58 101.31 287.03 100.66 286.07 100.66C285.11 100.66 284.36 101.29 284.02 102.3H284.01Z" fill="black"/>
<path d="M300.03 102.1L299.48 106.04H298.25L298.75 102.55C298.93 101.28 298.56 100.76 297.74 100.76C296.78 100.76 295.91 101.75 295.71 103.1L295.31 106.03H294.08L294.55 102.54C294.74 101.27 294.37 100.75 293.54 100.75C292.59 100.75 291.71 101.74 291.53 103.09L291.13 106.02H289.9L290.76 99.8899H291.97L291.82 100.94C292.44 100.07 293.2 99.6299 294.01 99.6299C295.04 99.6299 295.66 100.2 295.79 101.16C296.45 100.09 297.37 99.6299 298.2 99.6299C299.51 99.6299 300.24 100.53 300.02 102.08L300.03 102.1Z" fill="black"/>
<path d="M301.62 106.04L302.47 99.9097H303.7L302.85 106.04H301.62ZM302.63 97.0497C302.63 96.5797 303 96.2197 303.48 96.2197C303.96 96.2197 304.34 96.5897 304.34 97.0597C304.34 97.5297 303.97 97.8897 303.48 97.8897C302.99 97.8897 302.63 97.5297 302.63 97.0497Z" fill="black"/>
<path d="M305.85 99.8997H307.06L306.92 100.98C307.55 100.11 308.42 99.6396 309.29 99.6396C310.67 99.6396 311.37 100.54 311.14 102.2L310.6 106.03H309.37L309.87 102.59C310.06 101.21 309.65 100.76 308.78 100.76C307.72 100.76 306.81 101.66 306.62 103.12L306.22 106.04H304.99L305.84 99.9096L305.85 99.8997Z" fill="black"/>
<path d="M312.75 106.04L313.61 99.9097H314.83L313.98 106.04H312.75ZM313.76 97.0497C313.76 96.5797 314.13 96.2197 314.62 96.2197C315.11 96.2197 315.47 96.5897 315.47 97.0597C315.47 97.5297 315.1 97.8897 314.62 97.8897C314.14 97.8897 313.76 97.5297 313.76 97.0497Z" fill="black"/>
<path d="M316.09 103.51C316.09 101.39 317.62 99.6396 319.67 99.6396C320.84 99.6396 321.82 100.21 322.3 101.32L321.32 101.87L321.21 101.83C320.81 101.02 320.3 100.71 319.6 100.71C318.31 100.71 317.35 101.98 317.35 103.44C317.35 104.54 318 105.2 318.92 105.2C319.69 105.2 320.31 104.86 320.92 104.04H321.03L321.87 104.62C321.08 105.75 319.98 106.29 318.83 106.29C317.15 106.29 316.09 105.2 316.09 103.51Z" fill="black"/>
<path d="M323.25 106.04L324.11 99.9098H325.33L324.48 106.04H323.25ZM323.5 98.5498L325.38 96.0098H326.7L326.74 96.1098L324.55 98.5498H323.5Z" fill="black"/>
<path d="M326.57 103.6C326.57 101.46 328.03 99.6397 329.82 99.6397C330.7 99.6397 331.52 100.14 331.9 100.98C331.98 100.3 332.07 99.6297 332.16 98.9497L332.6 95.9297H333.83L332.41 106.03H331.22L331.37 105.01C330.82 105.8 329.85 106.29 328.99 106.29C327.5 106.29 326.56 105.26 326.56 103.59L326.57 103.6ZM331.68 102.54C331.68 101.47 331.02 100.75 330.06 100.75C328.81 100.75 327.85 101.93 327.85 103.53C327.85 104.58 328.39 105.18 329.32 105.18C330.63 105.18 331.68 104.04 331.68 102.53V102.54Z" fill="black"/>
<path d="M334.56 106.04L335.42 99.9097H336.64L335.79 106.04H334.56ZM335.56 97.0497C335.56 96.5797 335.93 96.2197 336.42 96.2197C336.91 96.2197 337.27 96.5897 337.27 97.0597C337.27 97.5297 336.9 97.8897 336.42 97.8897C335.94 97.8897 335.56 97.5297 335.56 97.0497Z" fill="black"/>
<path d="M337.89 103.39C337.89 101.35 339.54 99.6396 341.67 99.6396C343.39 99.6396 344.59 100.83 344.59 102.51C344.59 104.56 342.88 106.3 340.83 106.3C339.11 106.3 337.89 105.1 337.89 103.39ZM343.32 102.58C343.32 101.5 342.63 100.76 341.62 100.76C340.24 100.76 339.15 101.95 339.15 103.35C339.15 104.42 339.85 105.18 340.87 105.18C342.19 105.18 343.31 103.97 343.31 102.58H343.32Z" fill="black"/>
<path d="M173.42 67.4199L168.91 48.9199H173.99L175.8 58.6099C175.98 59.5899 176.19 60.8399 176.27 62.3199H176.4C176.87 60.8399 177.44 59.6199 177.9 58.6399L182.41 48.9199H187.62L177.93 67.4199H173.42Z" fill="black"/>
<path d="M189.53 48.9199H193.93L191.34 67.2599H186.93L189.52 48.9199H189.53Z" fill="black"/>
<path d="M195.561 59.6702C195.561 53.4002 200.461 48.4302 206.601 48.4302C210.381 48.4302 213.101 50.0102 214.401 52.9902L210.771 55.0402L210.331 54.9402C209.501 53.3102 208.281 52.6102 206.421 52.6102C203.031 52.6102 200.381 55.5102 200.381 59.1702C200.381 61.9702 202.121 63.7802 204.651 63.7802C207.031 63.7802 208.931 62.5102 209.501 60.5902V60.5102H205.611L206.101 57.1902H214.081L212.661 67.2702H208.701L208.751 66.6702C208.831 65.9702 209.091 65.3502 209.421 64.6702L209.371 64.6402C208.001 66.6102 205.921 67.7502 203.281 67.7502C198.671 67.7502 195.561 64.5102 195.561 59.6702Z" fill="black"/>
<path d="M218.77 48.9199H223.18L220.59 67.2599H216.18L218.77 48.9199Z" fill="black"/>
<path d="M226.88 48.9199H237.79L237.84 52.6799H230.74L230.2 56.4599H236.57L236.08 60.0399H229.71L228.7 67.2699H224.29L226.88 48.9299V48.9199Z" fill="black"/>
<path d="M241.26 48.9199H252.5L252.55 52.6799H245.11L244.62 56.1499H251.25L250.76 59.7299H244.1L243.58 63.5099H251.02L250.09 67.2699H238.66L241.25 48.9299L241.26 48.9199Z" fill="black"/>
<path d="M264.8 58.4799H264.85L270.73 48.9199H276.27L273.68 67.2599H269.35L271.22 54.4899H271.17L264.15 65.5499H263.68L259.74 54.4899H259.69L257.98 67.2599H253.68L256.27 48.9199H261.61L264.8 58.4799Z" fill="black"/>
<path d="M280.01 48.9199H284.41L281.82 67.2599H277.41L280 48.9199H280.01Z" fill="black"/>
<path d="M285.521 67.2702L288.091 48.9302H292.391L296.461 55.7202C297.181 56.9102 297.86 58.1302 298.82 59.9202H298.87C298.95 58.0502 299.08 56.8102 299.31 55.2802L300.19 48.9302H304.591L301.971 67.4302H298.341L293.6 59.9902C292.87 58.8202 292.181 57.6302 291.271 55.8402H291.19C291.16 57.7102 291.031 59.0002 290.831 60.5502L289.901 67.2602H285.521V67.2702Z" fill="black"/>
<path d="M308.29 48.9199H312.69L310.1 67.2599H305.69L308.28 48.9199H308.29Z" fill="black"/>
<path d="M314.35 59.5702C314.35 53.3802 319.27 48.4302 325.31 48.4302C328.89 48.4302 331.68 49.9802 332.98 53.0902L329.35 55.1102L328.88 55.0102C328.13 53.3502 326.86 52.6002 325.1 52.6002C321.78 52.6002 319.19 55.5802 319.19 59.0802C319.19 61.8002 320.98 63.5902 323.49 63.5902C325.33 63.5902 326.81 62.8402 328.08 61.1502L328.55 61.0702L331.61 63.1402C329.41 66.2502 326.22 67.7502 322.8 67.7502C317.88 67.7502 314.35 64.4902 314.35 59.5602V59.5702Z" fill="black"/>
<path d="M336.47 48.92H340.87L338.28 67.26H333.87L336.46 48.92H336.47ZM335.46 47.47L338.49 44H342.27L342.35 44.23L338.62 47.47H335.46Z" fill="black"/>
<path d="M341.99 67.2702L344.56 48.9302H350.39C356.25 48.9302 359.64 51.7502 359.67 56.5502C359.67 62.9002 355.06 67.2802 347.93 67.2802H342L341.99 67.2702ZM346.94 63.3302H348.26C352.66 63.3302 355.1 61.0002 355.07 56.9302C355.04 54.2402 353.33 52.8602 349.81 52.8602H348.41L346.93 63.3302H346.94Z" fill="black"/>
<path d="M363.8 48.9199H368.21L365.62 67.2599H361.21L363.8 48.9199Z" fill="black"/>
<path d="M369.83 59.4702C369.83 53.3302 374.88 48.4302 381.1 48.4302C386.31 48.4302 389.86 51.7502 389.86 56.6702C389.86 62.7802 384.76 67.7602 378.59 67.7602C373.46 67.7602 369.83 64.3902 369.83 59.4702ZM385.17 57.1102C385.17 54.3602 383.33 52.5202 380.69 52.5202C377.32 52.5202 374.52 55.4502 374.52 59.0202C374.52 61.7402 376.39 63.6302 379.03 63.6302C382.35 63.6302 385.17 60.6802 385.17 57.1002V57.1102Z" fill="black"/>
<mask id="mask0_424_412" style="mask-type:luminance" maskUnits="userSpaceOnUse" x="7" y="7" width="146" height="146">
<path d="M79.9197 152.36C119.933 152.36 152.37 119.923 152.37 79.91C152.37 39.8969 119.933 7.45996 79.9197 7.45996C39.9067 7.45996 7.46973 39.8969 7.46973 79.91C7.46973 119.923 39.9067 152.36 79.9197 152.36Z" fill="white"/>
</mask>
<g mask="url(#mask0_424_412)">
<path d="M103.961 71.6001C103.741 67.3001 103.711 58.6601 103.941 54.3601C104.051 52.2001 104.441 49.7201 100.291 46.5301C100.271 46.5101 100.251 46.4901 100.231 46.4801C96.1706 43.3001 97.3806 39.3101 96.3206 36.9601C92.6106 28.7401 79.8906 34.8401 78.7106 35.4201C78.6506 35.4501 78.6106 35.4701 78.6106 35.4701C78.5706 35.4301 78.5306 35.4001 78.4906 35.3601C71.2906 28.2901 62.8206 34.2101 61.6506 38.6201C60.9506 41.2601 61.8406 42.0201 58.4006 44.7101C57.7706 45.2001 57.1906 45.6701 56.6406 46.1601C54.6906 47.9101 53.3106 49.9301 52.9706 54.2001C52.7206 57.4101 54.7306 62.5401 55.5806 65.6401C57.5206 72.6601 54.6606 89.5201 60.0306 94.4501C66.4206 100.32 86.9406 100.77 94.6606 96.8101C98.9606 94.6001 103.741 85.0701 104.831 80.3601C105.331 78.2201 104.071 73.8101 103.961 71.6101V71.6001Z" fill="white"/>
<path d="M79.8803 100.03C71.8303 100.03 63.3603 98.3599 59.6003 94.9099C56.0203 91.6199 55.9003 83.8799 55.7903 76.3999C55.7303 72.2499 55.6703 68.3299 54.9703 65.7999C54.7703 65.0699 54.5003 64.2399 54.2203 63.3399C53.2903 60.3899 52.1304 56.7199 52.3304 54.1399C52.6904 49.6799 54.1404 47.5299 56.2104 45.6699C56.8004 45.1399 57.4503 44.6299 58.0003 44.1899C60.3903 42.3199 60.5003 41.5599 60.7003 40.1799C60.7703 39.6899 60.8503 39.1299 61.0303 38.4399C61.6703 36.0299 64.4903 32.8799 68.4403 31.7999C72.0703 30.8099 75.7103 31.8299 78.7303 34.6899C80.4303 33.8799 87.4803 30.8099 92.5303 32.6099C94.5203 33.3199 95.9904 34.6899 96.8904 36.6799C97.2604 37.5099 97.3803 38.4699 97.5103 39.4999C97.7603 41.5799 98.0503 43.9499 100.62 45.9599C104.88 49.2399 104.72 51.9099 104.59 54.0499L104.57 54.3799C104.35 58.5099 104.36 67.0199 104.59 71.5599C104.63 72.3099 104.81 73.3699 105.01 74.4999C105.38 76.5999 105.79 78.9899 105.45 80.4899C104.39 85.0799 99.5903 94.9699 94.9503 97.3599C91.5203 99.1199 85.8103 100.03 79.8803 100.03ZM71.1804 32.6999C70.3004 32.6999 69.4903 32.8399 68.7903 33.0299C65.4203 33.9499 62.8304 36.6699 62.2704 38.7699C62.1104 39.3899 62.0303 39.8799 61.9703 40.3599C61.7303 42.0499 61.4604 43.1099 58.8004 45.1899C58.1304 45.7199 57.5803 46.1599 57.0703 46.6099C55.1703 48.3099 53.9304 50.1799 53.6104 54.2299C53.4204 56.5599 54.5403 60.0999 55.4403 62.9399C55.7303 63.8499 56.0003 64.7099 56.2003 65.4399C56.9403 68.1199 57.0003 72.1199 57.0703 76.3599C57.1703 83.2399 57.2903 91.0299 60.4703 93.9499C66.5303 99.5199 86.7203 100.15 94.3803 96.2099C98.3503 94.1699 103.09 85.0799 104.22 80.1899C104.51 78.9399 104.12 76.6899 103.77 74.7099C103.57 73.5499 103.38 72.4499 103.33 71.6199C103.1 67.0499 103.09 58.4699 103.31 54.3099L103.33 53.9699C103.45 51.9399 103.57 49.8399 99.9103 47.0099C96.8503 44.6099 96.5203 41.8499 96.2503 39.6399C96.1303 38.6799 96.0304 37.8499 95.7404 37.1899C94.9904 35.5199 93.7704 34.3799 92.1104 33.7899C87.1504 32.0199 79.8104 35.5499 78.9904 35.9599L78.5703 36.1699L78.0403 35.7699C75.6103 33.3899 73.1903 32.6799 71.1703 32.6799L71.1804 32.6999Z" fill="black"/>
<path d="M95.3903 101.21H63.4103V88.1502C63.3403 87.7902 63.1503 86.4302 63.9403 85.1902C64.5803 84.1902 65.6603 83.5302 67.1703 83.2402C71.0203 82.4902 71.3303 81.5602 71.7503 80.2702C72.1803 78.9702 77.4303 78.5902 87.3603 79.1502L87.7603 79.1702L87.9103 79.5402C87.9603 79.6702 89.2503 82.6702 92.6503 83.2302C96.1403 83.8002 96.6803 87.4402 96.4803 89.2802L95.4003 101.19L95.3903 101.21ZM64.6803 99.9402H94.2303L95.2103 89.1702C95.2303 88.9902 95.6103 85.0202 92.4403 84.5002C89.0503 83.9402 87.4203 81.3902 86.9103 80.4102C80.8003 80.0802 73.8903 80.1302 72.9303 80.7702C72.3503 82.4902 71.6003 83.6802 67.4103 84.5002C66.2603 84.7202 65.4503 85.1902 65.0103 85.8802C64.4103 86.8302 64.6603 87.9302 64.6603 87.9402L64.6803 88.0902V99.9402Z" fill="black"/>
<path d="M94.2494 49.8798C92.8494 50.2798 91.3294 50.4898 89.7494 50.4898C84.9394 50.4898 80.7395 48.4898 78.4595 45.5298C76.1595 48.4198 72.0194 50.3498 67.2794 50.3498C66.1194 50.3498 65.0094 50.2298 63.9394 50.0098C62.7794 55.6698 62.8494 63.9698 63.7494 68.2698C64.2794 70.8098 67.2994 75.2098 68.9394 77.1898C70.9794 79.6598 76.6194 83.8298 79.7794 83.8498C82.2194 83.8698 86.6495 80.7498 88.1995 78.8298C89.8995 76.7198 92.6295 71.8698 93.3195 69.2298C94.4395 64.9298 95.4595 54.1998 94.2595 49.9298C94.2595 49.9098 94.2495 49.8898 94.2395 49.8698L94.2494 49.8798Z" fill="white"/>
<path d="M79.8098 84.5H79.7898C76.2898 84.48 70.4698 80.02 68.4698 77.61C66.9898 75.82 63.7398 71.22 63.1498 68.42C62.2698 64.23 62.1298 55.79 63.3398 49.9L63.4698 49.28L64.0898 49.41C65.1598 49.63 66.2398 49.74 67.2998 49.74C71.6998 49.74 75.6898 48.03 77.9798 45.16L78.4898 44.52L78.9898 45.16C81.2198 48.07 85.3498 49.87 89.7698 49.87C91.2498 49.87 92.7098 49.67 94.0998 49.28L94.7298 49.1L94.8898 49.73C96.1798 54.35 95.0598 65.24 93.9698 69.41C93.2698 72.09 90.4998 77.06 88.7298 79.25C87.0498 81.32 82.4898 84.5 79.8298 84.5H79.8098ZM64.4498 50.76C63.4098 56.45 63.5498 64.23 64.3798 68.15C64.8698 70.47 67.6898 74.68 69.4398 76.8C71.5298 79.33 76.9998 83.21 79.7898 83.23H79.8098C81.9698 83.23 86.2598 80.26 87.7198 78.45C89.4098 76.35 92.0498 71.62 92.7198 69.09C93.8398 64.82 94.7098 55.02 93.7998 50.66C92.4898 50.97 91.1398 51.13 89.7598 51.13C85.1898 51.13 81.0298 49.42 78.4698 46.52C75.8898 49.33 71.7798 50.99 67.2998 50.99C66.3598 50.99 65.4098 50.91 64.4598 50.76H64.4498Z" fill="black"/>
<path d="M117.29 77.0801C113.49 79.4801 105.19 81.6302 95.8496 85.6702L100.84 101.57L139.58 76.8901C134.51 77.2701 127.45 79.5801 117.29 77.0901V77.0801Z" fill="white"/>
<path d="M100.83 102.2C100.76 102.2 100.68 102.19 100.61 102.16C100.42 102.09 100.28 101.94 100.22 101.75L95.23 85.8502C95.13 85.5402 95.29 85.2001 95.58 85.0801C99.77 83.2701 103.72 81.8502 107.2 80.6002C111.5 79.0502 114.9 77.8302 116.94 76.5402C117.09 76.4502 117.27 76.4202 117.43 76.4602C125.07 78.3302 130.88 77.4602 135.54 76.7502C136.96 76.5402 138.3 76.3302 139.52 76.2402C139.82 76.2302 140.08 76.4002 140.17 76.6702C140.26 76.9502 140.15 77.2502 139.91 77.4102L101.17 102.09C101.07 102.16 100.95 102.19 100.83 102.19V102.2ZM96.62 86.0201L101.19 100.58L136.89 77.8402C136.51 77.8902 136.13 77.9502 135.74 78.0102C131.02 78.7202 125.15 79.6102 117.4 77.7602C115.23 79.0702 111.86 80.2801 107.65 81.8001C104.33 82.9901 100.59 84.3402 96.63 86.0302L96.62 86.0201Z" fill="black"/>
<path d="M80.29 52.9001L80.48 55.4401C80.48 55.4401 86.6601 52.8301 89.9001 54.5501C89.9001 54.5501 87.33 51.7201 80.29 52.9001Z" fill="#6D25A0"/>
<path d="M67.5498 54.5501C70.7798 52.8401 76.9698 55.4401 76.9698 55.4401L77.1598 52.9001C70.1198 51.7201 67.5498 54.5501 67.5498 54.5501Z" fill="#6D25A0"/>
<path d="M84.3694 59.8101C82.5994 59.8101 80.6895 59.3501 80.6895 58.3301C80.6895 57.3101 82.5994 56.8501 84.3694 56.8501C86.1394 56.8501 88.0495 57.3101 88.0495 58.3301C88.0495 59.3501 86.1394 59.8101 84.3694 59.8101ZM84.3694 57.5801C82.4494 57.5801 81.4095 58.1101 81.4095 58.3301C81.4095 58.5501 82.4494 59.0801 84.3694 59.0801C86.2894 59.0801 87.3295 58.5501 87.3295 58.3301C87.3295 58.1101 86.2894 57.5801 84.3694 57.5801Z" fill="#6D25A0"/>
<path d="M83.83 59.7599C84.7247 59.7599 85.45 59.1242 85.45 58.3399C85.45 57.5557 84.7247 56.9199 83.83 56.9199C82.9353 56.9199 82.21 57.5557 82.21 58.3399C82.21 59.1242 82.9353 59.7599 83.83 59.7599Z" fill="#6D25A0"/>
<path d="M98.5897 82.6899H93.4697C93.4997 83.0199 93.5297 83.3499 93.5297 83.6899C93.5297 90.2299 87.2997 95.5299 79.6097 95.5299C71.9197 95.5299 65.6897 90.2299 65.6897 83.6899C65.6897 83.3499 65.7197 83.0199 65.7497 82.6899H60.7997C60.8297 83.2899 60.8497 83.8899 60.8497 84.5099C60.8497 92.2499 58.3897 99.0099 54.7197 102.78L49.4297 137.71L109.8 137.95L104.49 102.6C100.92 98.7899 98.5397 92.1199 98.5397 84.5099C98.5397 83.8999 98.5597 83.2899 98.5897 82.6899Z" fill="white"/>
<path d="M73.3401 59.7198C71.5701 59.7198 69.6602 59.2598 69.6602 58.2398C69.6602 57.2198 71.5701 56.7598 73.3401 56.7598C75.1101 56.7598 77.0202 57.2198 77.0202 58.2398C77.0202 59.2598 75.1101 59.7198 73.3401 59.7198ZM73.3401 57.4898C71.4201 57.4898 70.3802 58.0198 70.3802 58.2398C70.3802 58.4598 71.4201 58.9898 73.3401 58.9898C75.2601 58.9898 76.3002 58.4598 76.3002 58.2398C76.3002 58.0198 75.2601 57.4898 73.3401 57.4898Z" fill="#6D25A0"/>
<path d="M73.9696 59.6701C74.8643 59.6701 75.5896 59.0343 75.5896 58.2501C75.5896 57.4658 74.8643 56.8301 73.9696 56.8301C73.0749 56.8301 72.3496 57.4658 72.3496 58.2501C72.3496 59.0343 73.0749 59.6701 73.9696 59.6701Z" fill="#6D25A0"/>
<path d="M110.61 138.65L48.5996 138.41L54.0496 102.45L54.2096 102.29C57.9196 98.4798 60.1396 91.8298 60.1396 84.5098C60.1396 83.9098 60.1196 83.3198 60.0896 82.7298L60.0496 81.9897H66.5196L66.4396 82.7598C66.4096 83.0698 66.3796 83.3798 66.3796 83.6898C66.3796 89.8298 72.3096 94.8198 79.5996 94.8198C86.8896 94.8198 92.8196 89.8298 92.8196 83.6898C92.8196 83.3798 92.7896 83.0698 92.7596 82.7598L92.6796 81.9897H99.3096L99.2696 82.7298C99.2396 83.3198 99.2196 83.9098 99.2196 84.5098C99.2196 91.6898 101.37 98.2698 104.98 102.11L105.13 102.27L105.16 102.49L110.6 138.65H110.61ZM50.2396 137.01L108.98 137.24L103.82 102.92C100.07 98.7998 97.8296 91.9397 97.8296 84.5197C97.8296 84.1497 97.8296 83.7798 97.8496 83.4098H94.2296C94.2296 83.5098 94.2296 83.6097 94.2296 83.7097C94.2296 90.6297 87.6696 96.2498 79.5996 96.2498C71.5296 96.2498 64.9696 90.6197 64.9696 83.7097C64.9696 83.6097 64.9696 83.5098 64.9696 83.4098H61.5096C61.5196 83.7798 61.5296 84.1497 61.5296 84.5197C61.5296 92.0997 59.2296 99.0298 55.3596 103.12L50.2196 137.02L50.2396 137.01Z" fill="black"/>
<path d="M49.0898 96.63C49.0898 103.39 56.4298 105.33 60.8098 102.72C63.7898 100.94 68.3599 93.7199 63.3899 89.0799C58.4199 84.4399 49.0898 88.71 49.0898 96.63Z" fill="white"/>
<path d="M56.5899 104.48C55.0499 104.48 53.52 104.11 52.2 103.36C49.79 101.99 48.46 99.6 48.46 96.64C48.46 92.56 50.8099 89 54.5999 87.36C57.9099 85.92 61.45 86.4099 63.83 88.6299C65.64 90.3199 66.4499 92.5199 66.1899 94.9899C65.8199 98.4699 63.28 102 61.14 103.28C59.79 104.09 58.1899 104.49 56.5999 104.49L56.5899 104.48ZM58.39 87.7999C57.31 87.7999 56.1899 88.03 55.0999 88.51C52.4999 89.64 49.7299 92.3599 49.7299 96.6299C49.7299 99.1199 50.83 101.11 52.83 102.25C55.1 103.54 58.25 103.51 60.49 102.18C62.12 101.21 64.57 98.12 64.93 94.85C65.15 92.76 64.4899 90.9799 62.9699 89.5499C61.7399 88.3999 60.12 87.8099 58.4 87.8099L58.39 87.7999Z" fill="black"/>
<path d="M108.55 61.7399C104.18 61.3699 91.3899 58.5699 91.3899 58.5699C91.2799 58.2699 91.1699 58.0099 91.0599 57.8199C87.9499 52.5599 83.2899 51.4599 80.0999 51.2499C78.5699 51.1499 75.5199 50.9499 73.9999 50.8099C71.5599 50.5799 66.7099 49.9899 64.2499 49.7899C62.6499 49.6599 62.2899 51.3399 63.8199 51.6399C66.7099 52.2199 73.3099 53.7099 75.0999 54.1199C75.1099 54.1299 75.1099 54.1499 75.1299 54.1599V54.1199C75.4099 54.1799 75.5699 54.2199 75.5699 54.2199C75.5699 54.2199 72.4799 53.7899 68.9199 53.3099C66.8299 53.0299 64.5899 52.7399 62.6999 52.4999C61.8499 52.3899 61.0599 52.2999 60.3999 52.2199C59.5099 52.1199 56.7499 51.6699 56.5799 52.9099C56.4599 53.7799 56.4199 54.5899 57.7699 54.8199C61.3199 55.4199 71.2399 57.5199 72.8299 57.8299C72.2099 57.7499 70.3499 57.6099 68.0599 57.4299C64.5299 57.1599 59.9699 56.7999 57.3199 56.4799C56.5399 56.3799 55.3599 56.5999 55.1499 57.3299C54.6399 59.0899 56.3999 59.3999 57.1399 59.6399C58.9499 60.2099 64.2899 61.1099 68.2999 61.7399C70.9999 62.1699 73.0999 62.4699 73.0999 62.4699C73.0999 62.4699 73.7799 63.3399 67.8299 62.7299C66.5699 62.5999 64.9199 62.3899 63.1499 62.2099C61.4299 62.0399 59.5999 61.9099 57.8999 61.9399C55.9899 61.9699 55.6199 62.3599 55.5499 62.8399C55.3199 64.5199 57.3899 64.4599 58.1399 64.6099C59.6999 64.9199 62.8899 64.9799 64.4599 65.1899C68.2799 65.6999 79.5499 68.4099 79.5499 68.4099C79.5499 68.4099 74.5899 70.4299 73.0299 70.8399C72.6099 70.9499 71.2499 71.3699 71.1699 71.7999C71.0599 72.4399 72.1099 72.9399 72.7099 73.0999C76.5099 74.0699 80.8899 73.6099 83.3699 72.6899C86.0199 71.7099 88.6299 71.5399 90.6299 68.9999C90.6299 68.9999 96.2499 69.2799 108.59 74.0699C133.89 83.8799 142.46 78.3899 142.72 74.8199C142.95 71.6099 136.58 64.1099 108.55 61.7199V61.7399Z" fill="white"/>
<path d="M77.2901 74.2598C75.7401 74.2598 74.1201 74.0998 72.5701 73.6998C71.8001 73.4998 70.3901 72.8398 70.5901 71.7198C70.6901 71.1398 71.4601 70.6598 72.8901 70.2798C73.8101 70.0298 76.0102 69.1898 77.5802 68.5698C74.2202 67.7798 67.2202 66.1798 64.4002 65.7998C63.7602 65.7098 62.8401 65.6498 61.8601 65.5898C60.4501 65.4998 58.9901 65.3998 58.0401 65.2098C57.9401 65.1898 57.8002 65.1698 57.6502 65.1598C56.9402 65.0698 55.8702 64.9398 55.3002 64.1998C55.0002 63.8098 54.8901 63.3298 54.9701 62.7698C55.1401 61.5698 56.4802 61.3798 57.9002 61.3498C60.2102 61.3098 62.7001 61.5498 64.8801 61.7898C61.6301 61.2498 58.3302 60.6398 56.9602 60.2098L56.7501 60.1498C55.9801 59.9298 53.9501 59.3398 54.5701 57.1698C54.9001 56.0198 56.4801 55.7798 57.3901 55.8898C58.8201 56.0698 60.8402 56.2498 62.9302 56.4298C60.8202 56.0098 58.8601 55.6298 57.6601 55.4198C55.6701 55.0798 55.8701 53.5698 55.9701 52.8398C56.2101 51.0998 58.9301 51.4398 60.2301 51.5998L60.4602 51.6298C61.1702 51.7098 62.0201 51.8198 62.9501 51.9298C62.4001 51.5698 62.2001 51.0098 62.2601 50.5198C62.3601 49.7798 63.1002 49.0898 64.3002 49.1798C65.7002 49.2898 67.8502 49.5298 69.9302 49.7598C71.5002 49.9298 73.0002 50.0998 74.0502 50.1998C75.4302 50.3298 78.0902 50.5098 79.6802 50.6098L80.1301 50.6398C85.2201 50.9798 89.0601 53.2898 91.5601 57.5098C92.1401 58.4798 92.7101 60.9998 92.6601 61.7098C92.6401 62.0398 92.3502 62.2998 92.0202 62.2698C91.6902 62.2498 91.4402 61.9598 91.4602 61.6298C91.4902 61.1798 90.9701 58.8898 90.5301 58.1298C88.2501 54.2798 84.7202 52.1598 80.0502 51.8498L79.6001 51.8198C78.0001 51.7098 75.3301 51.5398 73.9401 51.3998C72.8801 51.2998 71.3702 51.1298 69.8002 50.9598C67.7302 50.7298 65.5901 50.4898 64.2001 50.3798C63.7101 50.3398 63.4601 50.5398 63.4401 50.6898C63.4201 50.8398 63.6202 50.9898 63.9302 51.0498C67.2502 51.7198 75.6001 53.6198 75.6901 53.6398C76.0001 53.7098 76.2102 54.0198 76.1502 54.3298C76.0902 54.6498 75.7901 54.8598 75.4801 54.8198C75.3801 54.8098 64.8901 53.3498 60.3201 52.8198L60.0802 52.7898C57.4402 52.4598 57.1801 52.8598 57.1601 52.9898C57.0401 53.8898 57.0801 54.0898 57.8601 54.2198C60.4501 54.6598 66.4901 55.9098 70.0901 56.6498C71.3501 56.9098 72.4701 57.1398 72.9201 57.2298C73.0501 57.2498 73.1301 57.2598 73.1901 57.2798C73.5001 57.3698 73.7101 57.6898 73.6301 58.0098C73.5501 58.3298 73.5201 58.4698 72.8801 58.4098V58.4498C72.6001 58.3898 70.4301 58.2198 68.1301 58.0498C64.4801 57.7698 59.9401 57.4198 57.2501 57.0898C56.6001 57.0098 55.8201 57.2198 55.7301 57.5098C55.4801 58.3798 55.9501 58.6798 57.0901 59.0098L57.3301 59.0798C60.2801 60.0098 73.0701 61.8698 73.2001 61.8898C73.3501 61.9098 73.4901 61.9898 73.5901 62.1198C73.7201 62.2898 73.8201 62.6098 73.6401 62.9198C73.3801 63.3898 72.6901 63.8498 67.7801 63.3498C67.2401 63.2998 66.6401 63.2198 65.9801 63.1498C63.5801 62.8698 60.5901 62.5198 57.9201 62.5698C56.8501 62.5898 56.1901 62.7298 56.1601 62.9498C56.1101 63.2998 56.2201 63.4398 56.2501 63.4798C56.5101 63.8198 57.2901 63.9198 57.7901 63.9798C57.9701 63.9998 58.1401 64.0198 58.2601 64.0498C59.1301 64.2198 60.5501 64.3198 61.9201 64.3998C62.9201 64.4598 63.8702 64.5298 64.5502 64.6198C68.3602 65.1298 79.2401 67.7398 79.7001 67.8498C79.9501 67.9098 80.1401 68.1298 80.1601 68.3898C80.1801 68.6498 80.0301 68.8898 79.7901 68.9898C79.5901 69.0698 74.7801 71.0298 73.1901 71.4498C72.5801 71.6098 72.0302 71.8498 71.8002 71.9898C71.9302 72.1398 72.3801 72.4198 72.8601 72.5398C76.6301 73.4998 80.8401 73.0098 83.1601 72.1498C83.8101 71.9098 84.4601 71.7098 85.0901 71.5298C87.6301 70.7698 89.8201 70.1198 91.3901 66.5398C91.5201 66.2398 91.8802 66.0998 92.1802 66.2298C92.4802 66.3598 92.6202 66.7198 92.4902 67.0198C90.7102 71.1098 88.0301 71.9098 85.4401 72.6798C84.8301 72.8598 84.2101 73.0498 83.5901 73.2798C82.0601 73.8498 79.7702 74.2698 77.3002 74.2698L77.2901 74.2598Z" fill="black"/>
<path d="M132.181 80.22C127.051 80.22 119.441 78.94 108.371 74.65C96.2906 69.96 90.6506 69.62 90.5906 69.62C90.2606 69.6 90.0006 69.32 90.0206 68.99C90.0406 68.66 90.2906 68.41 90.6506 68.42C90.8806 68.43 96.5106 68.76 108.801 73.53C129.701 81.64 137.741 78.86 140.231 77.29C141.361 76.57 142.051 75.67 142.111 74.8C142.301 72.15 136.641 64.74 108.481 62.35C104.121 61.98 91.7706 59.29 91.2406 59.17C90.9206 59.1 90.7106 58.78 90.7806 58.45C90.8506 58.12 91.1806 57.92 91.4906 57.99C91.6206 58.02 104.301 60.78 108.571 61.14C136.661 63.52 143.561 71.17 143.291 74.88C143.201 76.13 142.311 77.37 140.851 78.29C139.571 79.1 136.941 80.21 132.151 80.21L132.181 80.22Z" fill="black"/>
<path d="M58.8103 101.44C54.2903 97.6 54.3503 92.67 54.8803 89.33C54.9303 89.03 54.9803 88.74 55.0303 88.47C55.3403 86.88 54.5603 84.5 53.8603 83.04C52.6803 80.55 52.1403 79.83 50.8103 77.02C49.8403 74.96 51.0403 73.22 53.2403 76.37C55.5503 79.69 58.2103 85.03 59.2903 84.63C61.0403 83.97 58.3203 77.91 56.6603 71.73C56.4303 70.88 55.9203 68.88 57.5403 68.06C58.3503 67.65 58.8603 67.75 59.6103 70C60.9603 74.03 63.0303 84.67 63.7103 83.02C64.1903 81.84 65.8603 71.47 66.5203 66.58C66.6303 65.76 67.1703 64.61 67.9703 64.59C69.9003 64.55 69.7503 66.43 69.7903 67.25C69.9503 70.61 67.3503 82.98 69.7503 85.07C70.1503 85.42 70.9303 85.02 72.8503 79C73.9703 75.5 74.6803 73.6 75.6703 70.07C76.2203 68.12 76.7103 67.85 77.2203 67.91C79.0103 68.13 78.6703 69.56 78.6203 70.37C78.5203 72.05 78.0303 74.72 77.2303 77.66C76.0503 81.99 72.2703 88.73 75.5003 90.89C75.8103 91.1 77.8403 90.81 79.8903 89.77C81.4603 88.98 84.7503 86.83 85.1503 86.75C88.6203 86.01 85.7003 90.07 85.0003 90.6C80.5003 94.08 77.6903 95.31 76.0903 97.6C73.9703 100.62 72.1403 104.98 66.6503 104.77C65.3003 104.72 62.2603 104.4 58.8003 101.46L58.8103 101.44Z" fill="white"/>
<path d="M67.0296 105.39C66.8996 105.39 66.7696 105.39 66.6296 105.39C63.7396 105.28 60.9596 104.11 58.3896 101.93C54.7296 98.8199 53.3796 94.6699 54.2396 89.2299C54.2896 88.9199 54.3396 88.6299 54.3996 88.3499C54.6496 87.0299 54.0196 84.8699 53.2796 83.3099C52.7196 82.1299 52.3096 81.3699 51.8796 80.5599C51.4096 79.6799 50.9296 78.7699 50.2296 77.2899C49.5996 75.9499 49.7296 74.6399 50.5396 74.1699C51.0596 73.8699 52.1596 73.7099 53.7496 75.9999C54.4896 77.0599 55.2596 78.3299 56.0096 79.5399C57.0096 81.1699 58.4996 83.6099 59.1196 83.9699C59.6296 83.4299 58.3596 79.4599 57.5896 77.0399C57.0796 75.4499 56.5096 73.6499 56.0296 71.8699C55.8096 71.0399 55.1296 68.5299 57.2296 67.4699C57.5996 67.2799 58.0996 67.0899 58.6296 67.3099C59.2396 67.5599 59.6796 68.2499 60.1896 69.7699C60.6796 71.2299 61.2596 73.5399 61.8196 75.7799C62.3096 77.7199 62.9196 80.1699 63.3896 81.5799C64.0296 78.5599 65.2696 70.8299 65.8596 66.4599C65.9896 65.4899 66.6696 63.9499 67.9296 63.9199C67.9596 63.9199 67.9896 63.9199 68.0196 63.9199C70.3296 63.9199 70.3796 66.1199 70.3996 66.9499V67.1799C70.4596 68.2799 70.2396 70.2199 69.9796 72.4699C69.5396 76.3499 68.8196 82.7299 69.9796 84.3599C70.2696 83.9799 70.9596 82.7399 72.2296 78.7699C72.5896 77.6499 72.8996 76.6999 73.1996 75.7999C73.8296 73.8999 74.3696 72.2499 75.0396 69.8699C75.4496 68.4199 76.0096 67.0899 77.2796 67.2499C79.4896 67.5199 79.3296 69.3499 79.2596 70.1299L79.2396 70.3799C79.1296 72.1699 78.5996 74.9499 77.8296 77.7999C77.5396 78.8799 77.0896 80.0799 76.6296 81.3499C75.3296 84.8899 73.8496 88.8899 75.7796 90.2899C76.1696 90.3199 77.7996 90.0899 79.5996 89.1799C80.3596 88.7899 81.5696 88.0699 82.6296 87.4299C84.2996 86.4199 84.7496 86.1599 85.0196 86.0999C86.5196 85.7799 87.0996 86.2899 87.3196 86.7699C87.9896 88.2199 85.7896 90.7799 85.3896 91.0799C83.7196 92.3699 82.3096 93.3399 81.0596 94.1899C79.0296 95.5799 77.5596 96.5899 76.6096 97.9399C76.2996 98.3899 75.9896 98.8599 75.6796 99.3399C73.9396 102.04 71.7796 105.38 67.0296 105.39ZM51.1896 75.2699C51.1896 75.2699 51.1896 75.2699 51.1796 75.2699C51.0996 75.3499 51.0196 75.9299 51.3996 76.7399C52.0796 78.1899 52.5596 79.0899 53.0196 79.9599C53.4596 80.7799 53.8696 81.5599 54.4396 82.7699C55.2096 84.3899 55.9896 86.8799 55.6596 88.5899C55.6096 88.8599 55.5596 89.1399 55.5096 89.4299C54.7196 94.3899 55.9296 98.1599 59.2196 100.96C61.5696 102.96 64.0796 104.02 66.6796 104.12C70.9396 104.3 72.8296 101.43 74.6196 98.6599C74.9396 98.1599 75.2596 97.6699 75.5796 97.2099C76.6596 95.6699 78.2096 94.6099 80.3496 93.1499C81.5796 92.3099 82.9796 91.3499 84.6196 90.0799C85.1696 89.6599 86.3696 87.7399 86.1696 87.3099C86.1696 87.3099 85.9496 87.2099 85.2796 87.3499C85.1096 87.4199 84.0996 88.0299 83.2796 88.5199C82.1996 89.1699 80.9796 89.9099 80.1696 90.3199C78.3796 91.2199 75.8796 91.8899 75.1396 91.3999C72.2796 89.4899 73.9596 84.9399 75.4396 80.9199C75.8996 79.6799 76.3296 78.4999 76.6096 77.4799C77.3596 74.6999 77.8796 72.0199 77.9796 70.3099L77.9996 70.0199C78.0896 69.0199 78.0396 68.6299 77.1396 68.5199C76.9096 68.4799 76.5796 69.1299 76.2796 70.2199C75.5996 72.6299 75.0496 74.2899 74.4196 76.2099C74.1296 77.0999 73.8096 78.0599 73.4496 79.1699C71.6196 84.9099 70.8196 85.5699 70.2196 85.7399C69.8996 85.8299 69.5896 85.7499 69.3296 85.5299C67.5696 83.9899 67.9896 78.8799 68.7296 72.3399C68.9796 70.1499 69.1896 68.2499 69.1496 67.2599V66.9999C69.1096 65.7499 68.9396 65.1799 67.9796 65.2099C67.6696 65.2099 67.2396 65.9599 67.1396 66.6499C66.5796 70.7899 64.8396 81.8999 64.2896 83.2499C64.0596 83.8099 63.6196 83.8199 63.4796 83.8199C62.6496 83.7599 62.2696 82.7499 60.5996 76.1199C60.0396 73.8999 59.4696 71.6099 58.9896 70.1999C58.4896 68.7099 58.1996 68.5299 58.1496 68.5099C58.1496 68.5099 58.0796 68.4899 57.8096 68.6299C56.9796 69.0499 56.8096 69.9299 57.2596 71.5699C57.7296 73.3199 58.2796 75.0299 58.7996 76.6799C60.3096 81.4199 61.3096 84.5499 59.4996 85.2299C58.3296 85.6699 57.1896 83.9199 54.9296 80.2199C54.1896 79.0199 53.4296 77.7699 52.7096 76.7399C51.8596 75.5099 51.2996 75.2899 51.1696 75.2899L51.1896 75.2699Z" fill="black"/>
</g>
<path d="M176.59 139.32C176.46 138.59 176.06 137.96 175.45 137.54L168.13 132.42L173.25 125.1C174.12 123.85 173.82 122.12 172.57 121.25L164.72 115.75C164.26 115.42 163.71 115.25 163.14 115.25C162.24 115.25 161.39 115.69 160.87 116.43L155.75 123.75L149.41 119.31C156.03 107.67 159.84 94.24 159.84 79.92C159.84 35.85 123.99 0 79.92 0C35.85 0 0 35.85 0 79.92C0 123.99 35.85 159.84 79.92 159.84C104.26 159.84 126.07 148.89 140.74 131.68L147.09 136.13L141.97 143.45C141.1 144.7 141.4 146.43 142.65 147.3L150.5 152.8C150.97 153.13 151.51 153.3 152.08 153.3C152.98 153.3 153.83 152.86 154.35 152.12L159.47 144.8L166.79 149.92C167.26 150.25 167.8 150.42 168.37 150.42C169.27 150.42 170.12 149.98 170.64 149.24L176.14 141.39C176.56 140.79 176.72 140.05 176.6 139.32H176.59ZM168.02 145.65L158.44 138.94L151.73 148.52L146.23 144.67L152.94 135.09L140.02 126.04L137.54 128.95C123.08 145.91 102.08 155.63 79.91 155.63C38.16 155.63 4.19 121.66 4.19 79.91C4.19 38.16 38.16 4.19 79.91 4.19C121.66 4.19 155.63 38.16 155.63 79.91C155.63 92.97 152.21 105.87 145.75 117.23L143.86 120.55L156.78 129.59L163.49 120.01L168.99 123.86L162.28 133.44L171.86 140.15L168.01 145.65H168.02Z" fill="#AD80DD"/>
<path d="M79.92 4.18994C38.17 4.18994 4.20996 38.1499 4.20996 79.8999C4.20996 121.65 38.17 155.61 79.92 155.61C121.67 155.61 155.63 121.65 155.63 79.8999C155.63 38.1499 121.67 4.18994 79.92 4.18994ZM79.92 133.83C50.14 133.83 25.9999 109.69 25.9999 79.9099C25.9999 50.1299 50.14 25.9899 79.92 25.9899C109.7 25.9899 133.84 50.1299 133.84 79.9099C133.84 109.69 109.7 133.83 79.92 133.83Z" fill="#6D25A0"/>
<path d="M40.3497 130.39C39.2097 131.71 37.3696 131.84 35.9996 130.64C34.6196 129.45 34.4897 127.61 35.6297 126.3C36.7597 124.99 38.6197 124.87 39.9797 126.05C41.3397 127.23 41.4797 129.09 40.3497 130.39ZM36.5397 127.09C35.7897 127.95 35.8496 129.11 36.6896 129.84C37.5296 130.57 38.6896 130.46 39.4396 129.6C40.1696 128.76 40.1196 127.58 39.2796 126.85C38.4396 126.12 37.2697 126.24 36.5397 127.09Z" fill="white"/>
<path d="M36.7695 123.31L32.5795 127.29L31.3895 126.04C30.4295 125.03 30.3695 124.17 31.0795 123.5C31.4895 123.11 32.0695 123.04 32.5695 123.33L32.5895 123.31C32.1995 122.66 32.2395 121.98 32.7795 121.48C33.5595 120.74 34.4595 120.87 35.5495 122.02L36.7795 123.32L36.7695 123.31ZM33.5195 124.82L33.1195 124.39C32.6595 123.91 32.2596 123.87 31.8996 124.21C31.5496 124.54 31.5795 124.93 32.0795 125.46L32.4495 125.84L33.5295 124.82H33.5195ZM35.3095 123.12L34.9095 122.69C34.3095 122.06 33.8695 121.99 33.4695 122.37C33.0695 122.75 33.1195 123.2 33.6695 123.78L34.1195 124.25L35.3195 123.12H35.3095Z" fill="white"/>
<path d="M32.7996 120.6L31.8696 120.33L31.8096 120.19C32.0196 119.63 31.9596 119.2 31.6396 118.8C31.3196 118.4 30.8496 118.33 30.5396 118.57C30.2296 118.81 30.1796 119.14 30.4896 120.19C30.8296 121.37 30.6996 122.01 30.0696 122.51C29.3796 123.06 28.3696 122.9 27.6396 122C27.0996 121.33 26.9796 120.61 27.2096 119.91L28.1496 120.16L28.2196 120.29C28.0996 120.68 28.1296 121.05 28.3996 121.39C28.6996 121.76 29.0596 121.81 29.3196 121.6C29.5696 121.4 29.6096 121.16 29.3096 120.08C28.9696 118.8 29.1296 118.2 29.7396 117.71C30.5096 117.09 31.6396 117.26 32.3896 118.19C32.9796 118.91 33.1296 119.7 32.7996 120.6Z" fill="white"/>
<path d="M25.6899 119.23L23.71 116.34L24.46 115.69L25.86 117.73L26.99 116.95L25.7199 115.1L26.5099 114.56L27.7799 116.41L28.9999 115.57L27.5999 113.53L28.4799 113.07L30.46 115.96L25.7 119.23H25.6899Z" fill="white"/>
<path d="M25.4098 108.14L25.5598 108.12L26.1498 109.15L24.9398 111.65L25.2598 112.21L27.2498 111.06L27.8298 112.07L22.8198 114.95L21.8598 113.27C21.1798 112.09 21.3298 111.16 22.3598 110.57C23.0098 110.2 23.6598 110.26 24.2198 110.74L25.4098 108.13V108.14ZM23.0698 113.48L24.4898 112.67L24.1698 112.1C23.7998 111.46 23.4198 111.28 22.9298 111.56C22.4098 111.86 22.3798 112.28 22.7498 112.92L23.0698 113.49V113.48Z" fill="white"/>
<path d="M24.6094 105.92L20.2694 110.5L19.7194 109.31L22.1394 106.91C22.3794 106.68 22.6594 106.41 22.9994 106.15L22.9794 106.11C22.5594 106.2 22.1894 106.23 21.8594 106.26L18.4494 106.56L17.8994 105.37L24.1894 105.04L24.5994 105.93L24.6094 105.92Z" fill="white"/>
<path d="M21.7299 98.8999L20.7299 99.7299L21.5199 101.95H22.8199L23.2599 103.19L17.0399 102.92L16.6299 101.76L21.2999 97.6499L21.7399 98.8899L21.7299 98.8999ZM20.5699 101.95L19.9999 100.34L18.8799 101.26C18.5899 101.5 18.2599 101.75 17.8999 101.97V102C18.3299 101.95 18.7399 101.93 19.1199 101.94H20.5699V101.95Z" fill="white"/>
<path d="M16.3894 97.5699L16.8694 99.3699L15.8694 99.6399L14.6094 94.9199L15.6094 94.6499L16.0894 96.4499L20.6694 95.2299L20.9694 96.3499L16.3894 97.5699Z" fill="white"/>
<path d="M13.5096 91.6098L12.2997 91.0098L12.1396 90.0198L12.1996 89.9698L13.3796 90.7998L13.5096 91.6098ZM17.1797 93.3298C15.4597 93.6098 13.9696 92.5298 13.6696 90.7298C13.3796 88.9298 14.4496 87.4398 16.1696 87.1498C17.8796 86.8698 19.3897 87.9698 19.6797 89.7498C19.9697 91.5298 18.8897 93.0498 17.1797 93.3298ZM16.3696 88.3498C15.2396 88.5298 14.5396 89.4598 14.7196 90.5598C14.8996 91.6598 15.8597 92.3198 16.9897 92.1298C18.0997 91.9498 18.8096 91.0098 18.6296 89.9198C18.4496 88.8198 17.4796 88.1598 16.3696 88.3398V88.3498Z" fill="white"/>
<path d="M18.56 81.0098L18.7 81.0598L18.77 82.2498L16.57 83.9398L16.61 84.5797L18.9 84.4398L18.97 85.5998L13.2 85.9498L13.08 84.0197C13 82.6597 13.54 81.8997 14.73 81.8297C15.48 81.7897 16.03 82.1398 16.32 82.8098L18.55 81.0098H18.56ZM14.08 84.7397L15.71 84.6398L15.67 83.9897C15.63 83.2497 15.37 82.9198 14.81 82.9498C14.21 82.9898 14 83.3497 14.04 84.0797L14.08 84.7298V84.7397Z" fill="white"/>
<path d="M12.9692 80.76L12.9492 79.62L18.7292 79.52L18.7492 80.66L12.9692 80.76Z" fill="white"/>
<path d="M15.7994 78.2098C14.0594 78.0798 12.8594 76.6798 12.9994 74.8698C13.1394 73.0598 14.5294 71.8498 16.2694 71.9798C17.9894 72.1098 19.1994 73.5298 19.0694 75.3198C18.9394 77.1098 17.5294 78.3398 15.7994 78.2098ZM16.1794 73.1798C15.0394 73.0898 14.1394 73.8298 14.0594 74.9398C13.9794 76.0498 14.7594 76.9098 15.8894 76.9998C16.9994 77.0798 17.9194 76.3398 17.9994 75.2398C18.0794 74.1298 17.2894 73.2598 16.1694 73.1798H16.1794Z" fill="white"/>
<path d="M19.6595 69.0101L14.0195 67.7701L14.3995 66.0301C14.8595 63.9501 16.1395 63.0301 17.9095 63.4201C19.6995 63.8101 20.4895 65.2601 20.0395 67.2801L19.6595 69.0101ZM18.8995 67.6801L19.0195 67.1501C19.3395 65.6901 18.9195 64.8701 17.6495 64.5801C16.4195 64.3101 15.7095 64.8701 15.3895 66.3301L15.2695 66.8801L18.8995 67.6801Z" fill="white"/>
<path d="M15.5596 61.3L16.6196 57.96L17.5996 58.1499L16.8496 60.5099L18.1596 60.93L18.8396 58.79L19.7496 59.08L19.0696 61.22L20.4796 61.67L21.2296 59.31L22.1396 59.72L21.0796 63.06L15.5696 61.31L15.5596 61.3Z" fill="white"/>
<path d="M24.05 55.1102L17.75 54.8202L18.29 53.6201L21.69 53.8802C22.02 53.9102 22.4 53.9402 22.82 54.0302L22.84 53.9902C22.5 53.7302 22.23 53.4702 22 53.2402L19.54 50.8602L20.08 49.6602L24.44 54.2001L24.04 55.0901L24.05 55.1102Z" fill="white"/>
<path d="M20.5596 48.8899L21.0996 47.8799L26.1996 50.5999L25.6596 51.6099L20.5596 48.8899Z" fill="white"/>
<path d="M24.1795 48.22C22.6495 47.25 22.2994 45.46 23.2294 43.99C23.8694 42.98 24.7695 42.47 25.8895 42.52V43.5299L25.7894 43.63C25.0694 43.63 24.5694 43.8999 24.1694 44.5299C23.5894 45.4399 23.8594 46.5499 24.8494 47.1699C25.8094 47.7799 26.9195 47.59 27.4895 46.69C27.9595 45.95 27.9795 45.11 27.2995 44.58L27.2695 44.5599L26.5094 45.75L25.7594 45.27L27.0795 43.19L29.6994 44.85L29.1495 45.7299L28.9194 45.5899C28.7394 45.4799 28.5995 45.3399 28.4895 45.1999H28.4694C28.8194 45.9499 28.7295 46.68 28.2695 47.41C27.3795 48.82 25.6795 49.17 24.1795 48.22Z" fill="white"/>
<path d="M25.7492 40.5499L26.4293 39.6299L31.0692 43.0699L30.3893 43.9899L25.7393 40.5499H25.7492Z" fill="white"/>
<path d="M27.2698 38.5099L27.9998 37.6299L31.6498 40.6499L33.2898 38.6599L33.9998 39.4199L31.7098 42.1899L27.2598 38.5099H27.2698Z" fill="white"/>
<path d="M31.3499 33.1599L30.8499 33.6698L30.7599 33.6498L30.6699 32.2798L31.3399 31.5898L32.7099 31.6398V31.7298L32.2199 32.2399L31.2999 32.2198L31.3399 33.1398L31.3499 33.1599ZM37.3699 35.9099L36.1799 35.3698L34.5299 37.0499L35.0999 38.2198L34.1799 39.1599L31.6799 33.4498L32.5399 32.5699L38.2799 34.9599L37.3599 35.8998L37.3699 35.9099ZM34.1299 36.1998L35.3199 34.9798L33.9999 34.3799C33.6499 34.2199 33.2899 34.0398 32.9299 33.8098L32.9099 33.8298C33.1399 34.1798 33.3299 34.5399 33.4999 34.8799L34.1299 36.1799V36.1998Z" fill="white"/>
<path d="M38.8299 34.51L35.1299 30.07L35.9299 29.4L39.0399 30C39.5299 30.1 40.0099 30.2 40.6299 30.35L40.6499 30.33C40.2799 29.97 40.0199 29.68 39.6699 29.26L38.2099 27.5L39.0899 26.77L42.8299 31.27L42.2099 31.79L38.7899 31.16C38.2999 31.07 37.7999 30.96 37.1799 30.82H37.1699C37.5299 31.19 37.7899 31.49 38.1399 31.91L39.6899 33.78L38.8199 34.51H38.8299Z" fill="white"/>
<path d="M42.1 28.1098C41.11 26.6198 41.51 24.8398 42.94 23.8898C43.9 23.2498 44.94 23.1498 45.95 23.6798L45.54 24.5998L45.4001 24.6498C44.7301 24.3298 44.16 24.3698 43.57 24.7598C42.7 25.3398 42.5 26.4598 43.13 27.4198C43.76 28.3698 44.89 28.6098 45.76 28.0298C46.37 27.6198 46.6201 27.1098 46.5801 26.3798L46.6801 26.2798L47.6801 26.2598C47.7501 27.4198 47.28 28.3198 46.32 28.9498C44.87 29.9198 43.09 29.5898 42.1 28.1098Z" fill="white"/>
<path d="M46.3496 21.9599L47.3396 21.3999L50.1896 26.4199L49.1996 26.9799L46.3496 21.9599Z" fill="white"/>
<path d="M54.6794 24.1301L53.7394 23.2301L51.6194 24.2601L51.7594 25.5501L50.5794 26.1301L50.1494 19.9101L51.2594 19.3701L55.8694 23.5601L54.6894 24.1301H54.6794ZM51.5294 23.3201L53.0694 22.5701L52.0294 21.5601C51.7594 21.2901 51.4694 21.0001 51.2194 20.6701H51.1894C51.2894 21.0901 51.3494 21.5001 51.3894 21.8801L51.5494 23.3201H51.5294Z" fill="white"/>
<path d="M58.4096 22.57L56.5996 17.08L58.2896 16.52C60.3096 15.85 61.7596 16.48 62.3296 18.2C62.8996 19.94 62.0696 21.36 60.0996 22.01L58.4196 22.57H58.4096ZM59.1696 21.23L59.6896 21.06C61.1096 20.59 61.6096 19.81 61.1996 18.57C60.8096 17.38 59.9596 17.05 58.5396 17.52L58.0096 17.7L59.1796 21.24L59.1696 21.23Z" fill="white"/>
<path d="M62.6895 15.1902L63.7995 14.9102L65.2395 20.5101L64.1295 20.7902L62.6895 15.1902Z" fill="white"/>
<path d="M65.6693 17.3899C65.3493 15.6099 66.4293 14.1399 68.1493 13.8299C69.3193 13.6199 70.3093 13.9399 71.0193 14.7999L70.2693 15.4799H70.1293C69.6393 14.9499 69.1093 14.7499 68.3793 14.8799C67.3193 15.0699 66.6793 16.0099 66.8893 17.1699C67.0893 18.2899 67.9793 18.9799 69.0293 18.7899C69.8893 18.6399 70.5293 18.0799 70.4593 17.2299V17.1999L69.0693 17.4499L68.9093 16.5699L71.3293 16.1399L71.8693 19.1899L70.8493 19.3699L70.7993 19.1099C70.7593 18.8999 70.7693 18.7099 70.7993 18.5299H70.7793C70.4693 19.2799 69.8593 19.7099 69.0193 19.8599C67.3793 20.1499 65.9793 19.1399 65.6593 17.3999L65.6693 17.3899Z" fill="white"/>
<path d="M72.3896 13.37L73.5296 13.25L74.1196 19L72.9796 19.12L72.3896 13.37Z" fill="white"/>
<path d="M76.3299 14.0899L74.4699 14.1699L74.4199 13.1399L79.2899 12.9199L79.3399 13.9599L77.4799 14.0399L77.6899 18.7699L76.5299 18.8199L76.3199 14.0899H76.3299Z" fill="white"/>
<path d="M83.6098 18.8197L83.1998 17.5797L80.8398 17.4997L80.3598 18.7097L79.0498 18.6697L81.5798 12.9697L82.8098 13.0097L84.9298 18.8697L83.6198 18.8297L83.6098 18.8197ZM81.1998 16.6197L82.9098 16.6797L82.4598 15.2997C82.3398 14.9397 82.2298 14.5397 82.1598 14.1297H82.1298C82.0298 14.5297 81.8898 14.9197 81.7498 15.2797L81.2098 16.6297L81.1998 16.6197Z" fill="white"/>
<path d="M86.1592 13.22L87.2892 13.35L86.7393 18.06L89.2993 18.36L89.0493 19.3699L85.4893 18.95L86.1592 13.21V13.22Z" fill="white"/>
<path d="M93.1492 14.2397L96.5591 15.0197L96.4492 16.0097L94.0392 15.4597L93.7392 16.7997L95.9292 17.2997L95.7191 18.2297L93.5291 17.7297L93.1992 19.1697L95.6092 19.7197L95.2791 20.6597L91.8691 19.8797L93.1591 14.2497L93.1492 14.2397Z" fill="white"/>
<path d="M98.4397 21.5301L100.41 16.1001L102.08 16.7101C104.08 17.4301 104.83 18.8201 104.21 20.5301C103.59 22.2501 102.05 22.8501 100.1 22.1401L98.4297 21.5401L98.4397 21.5301ZM99.8597 20.9601L100.37 21.1501C101.78 21.6601 102.65 21.3501 103.09 20.1201C103.52 18.9401 103.05 18.1601 101.65 17.6501L101.12 17.4601L99.8497 20.9601H99.8597Z" fill="white"/>
<path d="M106.61 18.46L109.79 19.94L109.48 20.88L107.24 19.84L106.66 21.08L108.7 22.03L108.3 22.8999L106.26 21.95L105.64 23.29L107.88 24.33L107.36 25.18L104.18 23.7L106.62 18.46H106.61Z" fill="white"/>
<path d="M110.17 26.69L113.17 21.75L114.77 22.72C115.97 23.45 116.25 24.36 115.64 25.37C115.06 26.33 114.09 26.51 113 25.85L112.3 25.43L111.16 27.3L110.17 26.7V26.69ZM112.78 24.63L113.3 24.94C113.94 25.33 114.37 25.28 114.68 24.78C115 24.26 114.83 23.86 114.2 23.47L113.68 23.16L112.79 24.62L112.78 24.63Z" fill="white"/>
<path d="M118.11 31.8598L117.98 31.9398L117.02 31.2399L117.11 28.4698L116.59 28.0898L115.24 29.9398L114.3 29.2598L117.7 24.5898L119.26 25.7298C120.36 26.5298 120.6 27.4398 119.9 28.3998C119.46 29.0098 118.84 29.2098 118.13 28.9998L118.1 31.8698L118.11 31.8598ZM118.08 26.0399L117.12 27.3598L117.65 27.7399C118.25 28.1799 118.67 28.1899 119 27.7399C119.36 27.2499 119.21 26.8599 118.61 26.4299L118.08 26.0499V26.0399Z" fill="white"/>
<path d="M122.199 27.96L124.859 30.24L124.299 31.06L122.419 29.45L121.529 30.49L123.229 31.95L122.609 32.68L120.909 31.22L119.949 32.34L121.829 33.95L121.099 34.63L118.439 32.35L122.199 27.96Z" fill="white"/>
<path d="M123.169 36.7497L125.709 30.9697L126.629 31.9097L125.159 34.9897C125.009 35.2797 124.839 35.6297 124.609 35.9997L124.639 36.0297C125.009 35.8097 125.339 35.6497 125.639 35.5097L128.749 34.0697L129.669 35.0097L123.849 37.4497L123.159 36.7497H123.169Z" fill="white"/>
<path d="M130.42 35.9102L132.65 38.6102L131.96 39.3302L130.38 37.4302L129.32 38.3002L130.75 40.0302L130.01 40.6402L128.58 38.9102L127.44 39.8502L129.02 41.7601L128.19 42.3002L125.96 39.6002L130.41 35.9202L130.42 35.9102Z" fill="white"/>
<path d="M128.979 43.2698L133.749 40.0098L134.34 40.8698L133.46 43.9098C133.31 44.3898 133.17 44.8598 132.96 45.4598V45.4798C133.37 45.1398 133.679 44.9098 134.129 44.6098L136.009 43.3198L136.65 44.2598L131.829 47.5598L131.369 46.8898L132.309 43.5498C132.449 43.0698 132.599 42.5798 132.799 41.9798C132.409 42.2898 132.089 42.5198 131.629 42.8298L129.619 44.1998L128.979 43.2598V43.2698Z" fill="white"/>
<path d="M136.36 52.8399C135.23 52.8099 134.4 52.2799 133.85 51.3099L133.39 51.2599C133.39 51.2599 133.47 51.3599 133.52 51.4499C133.72 51.8199 133.64 52.1999 133.31 52.3799C132.89 52.6099 132.43 52.3799 132.1 51.7699C131.96 51.5199 131.85 51.1499 131.84 50.8999L132.3 50.8499L132.36 50.9099C132.36 51.1099 132.41 51.3399 132.51 51.5199C132.62 51.7299 132.79 51.8199 132.94 51.7399C133.08 51.6599 133.09 51.4999 132.97 51.2799C132.92 51.1799 132.84 51.0699 132.76 51.0099L132.83 50.7399L133.6 50.8099C133.07 49.3899 133.6 47.8799 135.03 47.1099C136.6 46.2599 138.34 46.8299 139.15 48.3399C139.7 49.3499 139.7 50.3999 139.08 51.3599L138.2 50.8699L138.16 50.7199C138.54 50.0899 138.55 49.5099 138.22 48.8899C137.72 47.9699 136.63 47.6599 135.61 48.2099C134.6 48.7499 134.26 49.8599 134.76 50.7799C135.11 51.4299 135.59 51.7199 136.32 51.7499L136.41 51.8599L136.34 52.8599L136.36 52.8399Z" fill="white"/>
<path d="M137.07 57.9797L138.03 57.0997L137.13 54.9197L135.83 54.9797L135.33 53.7697L141.56 53.7097L142.03 54.8497L137.58 59.1997L137.08 57.9897L137.07 57.9797ZM138.08 54.8797L138.73 56.4597L139.8 55.4797C140.08 55.2197 140.4 54.9597 140.74 54.7197V54.6897C140.32 54.7597 139.91 54.7997 139.53 54.8197L138.08 54.8897V54.8797ZM141.9 53.2397L141.7 52.7497C142.29 52.5697 142.8 52.7297 142.97 53.1297C143.13 53.5097 142.94 54.0197 143.07 54.3197C143.14 54.4797 143.29 54.4997 143.48 54.4697L143.55 54.5097L143.75 54.9897C143.16 55.1697 142.65 55.0097 142.48 54.6097C142.31 54.1997 142.52 53.7397 142.39 53.4197C142.33 53.2697 142.18 53.2397 141.98 53.2697L141.91 53.2397H141.9Z" fill="white"/>
<path d="M140.44 58.6201C142.12 58.1201 143.73 59.0101 144.25 60.7501C144.77 62.4901 143.89 64.1201 142.22 64.6101C140.56 65.1001 138.93 64.2101 138.41 62.4801C137.9 60.7501 138.78 59.1101 140.44 58.6201ZM141.88 63.4602C142.98 63.1402 143.56 62.1301 143.24 61.0601C142.93 60.0001 141.89 59.4601 140.79 59.7801C139.72 60.1001 139.13 61.1202 139.44 62.1802C139.76 63.2402 140.81 63.7802 141.88 63.4602Z" fill="white"/>
<path d="M140.1 68.57L145.81 67.73L146.07 69.49C146.38 71.6 145.51 72.91 143.72 73.18C141.91 73.45 140.66 72.38 140.35 70.33L140.09 68.58L140.1 68.57ZM141.28 69.55L141.36 70.09C141.58 71.57 142.26 72.19 143.55 72C144.79 71.82 145.26 71.04 145.04 69.56L144.96 69L141.28 69.54V69.55Z" fill="white"/>
<path d="M143.83 74.42C145.57 74.36 146.909 75.62 146.979 77.43C147.039 79.25 145.789 80.6 144.049 80.66C142.319 80.72 140.96 79.45 140.9 77.65C140.84 75.85 142.1 74.48 143.83 74.42ZM144.01 79.45C145.15 79.41 145.959 78.58 145.919 77.46C145.879 76.35 145.009 75.58 143.869 75.62C142.749 75.66 141.93 76.5 141.97 77.6C142.01 78.71 142.89 79.48 144.01 79.44V79.45Z" fill="white"/>
<path d="M146.749 84.3698L146.449 87.7498L145.459 87.7698L145.669 85.4199L144.249 85.2899L144.059 87.4398L143.109 87.3499L143.299 85.1999L140.899 84.9799L140.999 83.8398L146.759 84.3599L146.749 84.3698Z" fill="white"/>
<path d="M146.259 89.19L145.689 92.65L144.699 92.6L145.099 90.16L143.749 89.94L143.379 92.16L142.439 92L142.809 89.78L141.349 89.54L140.949 91.98L139.989 91.71L140.559 88.25L146.269 89.19H146.259Z" fill="white"/>
<path d="M141.29 96.65V96.67L144.09 99.14L143.71 100.53L138.14 99.01L138.43 97.93L142.6 99.09V99.07L139.49 96.24L139.53 96.1L143.65 95.25V95.23L139.48 94.11L139.78 93.02L145.35 94.54L144.97 95.93L141.3 96.64L141.29 96.65Z" fill="white"/>
<path d="M143.11 102.1L142.72 103.17L137.29 101.2L137.68 100.13L143.11 102.1Z" fill="white"/>
<path d="M136.91 102.35L142.19 104.69L141.77 105.65L138.72 106.49C138.24 106.61 137.76 106.74 137.14 106.88V106.9C137.62 107.06 137.99 107.21 138.49 107.43L140.58 108.36L140.12 109.4L134.77 107.03L135.1 106.29L138.44 105.34C138.92 105.2 139.41 105.08 140.03 104.93C139.55 104.75 139.18 104.6 138.68 104.38L136.46 103.39L136.919 102.35H136.91Z" fill="white"/>
<path d="M139.329 110.81L138.789 111.82L133.689 109.11L134.229 108.1L139.329 110.81Z" fill="white"/>
<path d="M135.74 111.5C137.25 112.45 137.62 114.24 136.7 115.69C136.09 116.66 135.19 117.19 134.05 117.12V116.12L134.15 116.01C134.89 116.03 135.4 115.75 135.77 115.16C136.32 114.28 136.06 113.17 135.08 112.56C134.11 111.95 132.98 112.2 132.43 113.08C132.04 113.7 132.02 114.27 132.35 114.92L132.31 115.05L131.41 115.48C130.87 114.46 130.94 113.44 131.55 112.47C132.47 111 134.24 110.56 135.75 111.51L135.74 111.5Z" fill="white"/>
<path d="M134.38 118.86L133.71 119.78L129.04 116.38L129.71 115.46L134.38 118.86ZM134.91 118.92L135.33 120.2L134.74 121.01H134.66L134.43 119.58L134.91 118.92Z" fill="white"/>
<path d="M128.38 117.33L132.81 121.04L131.67 122.4C130.3 124.03 128.74 124.26 127.35 123.1C125.95 121.93 125.91 120.28 127.24 118.69L128.38 117.33ZM128.44 118.86L128.09 119.28C127.13 120.43 127.12 121.35 128.12 122.19C129.08 123 129.97 122.82 130.93 121.68L131.29 121.25L128.44 118.86Z" fill="white"/>
<path d="M128.609 125.86L127.819 126.68L123.649 122.68L124.439 121.86L128.609 125.86Z" fill="white"/>
<path d="M124.959 125.58C126.119 126.88 126.019 128.72 124.659 129.94C123.299 131.16 121.459 131.06 120.299 129.76C119.149 128.47 119.249 126.61 120.599 125.4C121.949 124.2 123.809 124.29 124.969 125.58H124.959ZM121.189 128.95C121.949 129.8 123.109 129.9 123.939 129.15C124.769 128.41 124.809 127.24 124.049 126.39C123.299 125.56 122.129 125.46 121.299 126.2C120.469 126.94 120.439 128.12 121.189 128.95Z" fill="white"/>
<path d="M107.39 105.3H52.4497C47.1919 105.3 42.9297 109.562 42.9297 114.82C42.9297 120.078 47.1919 124.34 52.4497 124.34H107.39C112.647 124.34 116.91 120.078 116.91 114.82C116.91 109.562 112.647 105.3 107.39 105.3Z" fill="#4F247C"/>
<path d="M47.59 117.36L45.25 111.51H46.56L47.73 114.72C47.84 115.03 47.97 115.4 48.06 115.81H48.1C48.2 115.39 48.32 115.04 48.43 114.73L49.58 111.51H50.89L48.56 117.36H47.58H47.59Z" fill="white"/>
<path d="M51.5498 111.51H52.6898V117.29H51.5498V111.51Z" fill="white"/>
<path d="M53.7199 114.42C53.7199 112.61 55.0399 111.35 56.7899 111.35C57.9799 111.35 58.9 111.84 59.45 112.81L58.5899 113.35L58.45 113.32C58.06 112.72 57.57 112.43 56.83 112.43C55.75 112.43 54.96 113.25 54.96 114.42C54.96 115.59 55.7099 116.4 56.7799 116.4C57.6499 116.4 58.38 115.97 58.46 115.11V115.08H57.05V114.19H59.5099V117.29H58.4699V117.02C58.4699 116.81 58.5099 116.62 58.5699 116.45H58.55C58.11 117.14 57.44 117.45 56.58 117.45C54.91 117.45 53.71 116.2 53.71 114.43L53.7199 114.42Z" fill="white"/>
<path d="M60.6797 111.51H61.8197V117.29H60.6797V111.51Z" fill="white"/>
<path d="M63.0898 111.51H66.4899L66.5999 112.5H64.2399V113.93H66.3999V114.89H64.2399V117.3H63.0999V111.52L63.0898 111.51Z" fill="white"/>
<path d="M67.5596 111.51H71.0596L71.1696 112.5H68.6996V113.87H70.9496V114.83H68.6996V116.31H71.1696L71.0596 117.3H67.5596V111.52V111.51Z" fill="white"/>
<path d="M75.3695 114.86H75.3895L77.0395 111.5H78.4795V117.28H77.3595L77.3795 112.95H77.3595L75.4495 116.7H75.2995L73.3995 112.95H73.3795L73.3995 117.28H72.2695V111.5H73.7095L75.3695 114.86Z" fill="white"/>
<path d="M79.7305 111.51H80.8705V117.29H79.7305V111.51Z" fill="white"/>
<path d="M82.1399 117.29V111.51H83.1799L85.1899 113.96C85.4999 114.35 85.8099 114.74 86.1899 115.25H86.2099C86.1499 114.74 86.1399 114.34 86.1399 113.8V111.51H87.2799V117.36H86.4699L84.2399 114.69C83.9199 114.31 83.5999 113.91 83.2199 113.4H83.1999C83.2499 113.91 83.2599 114.31 83.2599 114.85V117.28H82.1299L82.1399 117.29Z" fill="white"/>
<path d="M88.5498 111.51H89.6898V117.29H88.5498V111.51Z" fill="white"/>
<path d="M90.71 114.4C90.71 112.61 92.0299 111.35 93.7499 111.35C94.8999 111.35 95.8199 111.84 96.3699 112.84L95.52 113.38L95.3699 113.35C94.9899 112.71 94.4899 112.43 93.7899 112.43C92.7499 112.43 91.95 113.25 91.95 114.4C91.95 115.55 92.76 116.37 93.8 116.37C94.53 116.37 95.02 116.08 95.4 115.46L95.5399 115.43L96.3799 115.97C95.7999 116.97 94.8999 117.46 93.7499 117.46C92.0099 117.46 90.71 116.19 90.71 114.42V114.4Z" fill="white"/>
<path d="M97.0598 111.05L97.8398 109.96H98.8398L98.8798 110.02L97.8698 111.05H97.0498H97.0598ZM97.3298 111.51H98.4698V117.29H97.3298V111.51Z" fill="white"/>
<path d="M99.7305 117.29V111.51H101.51C103.64 111.51 104.82 112.56 104.82 114.38C104.82 116.2 103.58 117.29 101.51 117.29H99.7405H99.7305ZM100.88 116.26H101.43C102.92 116.26 103.64 115.67 103.64 114.37C103.64 113.07 102.94 112.54 101.44 112.54H100.88V116.26Z" fill="white"/>
<path d="M105.82 111.51H106.96V117.29H105.82V111.51Z" fill="white"/>
<path d="M107.98 114.4C107.98 112.65 109.29 111.35 111.11 111.35C112.93 111.35 114.24 112.65 114.24 114.4C114.24 116.15 112.92 117.44 111.11 117.44C109.3 117.44 107.98 116.13 107.98 114.4ZM113.03 114.4C113.03 113.26 112.23 112.42 111.11 112.42C109.99 112.42 109.19 113.26 109.19 114.4C109.19 115.54 110 116.38 111.11 116.38C112.22 116.38 113.03 115.52 113.03 114.4Z" fill="white"/>
<path d="M51.6797 150.13C60.4097 153.65 69.9397 155.61 79.9197 155.61C89.8997 155.61 99.4297 153.65 108.16 150.13L79.9197 133.83L51.6797 150.13Z" fill="#AD80DD"/>
</svg>
