<svg width="223" height="225" viewBox="0 0 223 225" fill="none" xmlns="http://www.w3.org/2000/svg">
<path d="M0.370117 200.96C0.370117 197.72 3.03011 195.09 6.25011 195.09C8.94011 195.09 10.8001 196.88 10.8001 199.5C10.8001 202.72 8.13011 205.37 4.92011 205.37C2.25011 205.37 0.370117 203.57 0.370117 200.96ZM9.41012 199.57C9.41012 197.63 8.10012 196.33 6.19012 196.33C3.76012 196.33 1.77012 198.38 1.77012 200.89C1.77012 202.81 3.09011 204.13 4.99011 204.13C7.39011 204.13 9.41012 202.05 9.41012 199.57Z" fill="black"/>
<path d="M13.1496 204.06L13.0296 205.11H11.8496L13.2696 195.01H14.4996L14.0596 198.05C13.9596 198.71 13.8796 199.4 13.7796 200.05C14.4296 199.18 15.2996 198.71 16.1896 198.71C17.6096 198.71 18.5596 199.74 18.5596 201.4C18.5596 203.6 17.0596 205.37 15.2496 205.37C14.4096 205.37 13.5096 204.82 13.1596 204.06H13.1496ZM17.2896 201.47C17.2896 200.41 16.7296 199.82 15.7996 199.82C14.5096 199.82 13.4296 201.02 13.4296 202.52C13.4296 203.6 14.0596 204.26 15.0296 204.26C16.3096 204.26 17.2896 203.08 17.2896 201.48V201.47Z" fill="black"/>
<path d="M19.2405 203.94L20.1805 203.36L20.2605 203.4C20.4805 204.05 20.9505 204.38 21.6005 204.38C22.3405 204.38 22.8805 204.01 22.8805 203.46C22.8805 203.07 22.5505 202.79 21.7405 202.47C20.4705 201.99 19.9505 201.46 19.9505 200.69C19.9505 199.56 20.9705 198.72 22.3505 198.72C23.4005 198.72 24.1805 199.22 24.4405 200.06L23.5705 200.57L23.4705 200.53C23.2805 199.99 22.8805 199.72 22.2905 199.72C21.6605 199.72 21.1605 200.09 21.1605 200.57C21.1605 200.93 21.4605 201.16 22.3405 201.55C23.6105 202.03 24.0905 202.56 24.0905 203.37C24.0905 204.56 23.0405 205.38 21.5505 205.38C20.4305 205.38 19.5805 204.9 19.2305 203.95L19.2405 203.94Z" fill="black"/>
<path d="M26.6802 202.26C26.6802 202.38 26.6702 202.51 26.6702 202.63C26.6602 203.68 27.3002 204.33 28.2802 204.33C28.9802 204.33 29.5802 204.03 30.1702 203.25H30.2902L31.1402 203.8C30.4102 204.85 29.3502 205.37 28.1902 205.37C26.4902 205.37 25.4102 204.3 25.4102 202.59C25.4102 200.4 26.9402 198.72 28.9402 198.72C30.5802 198.72 31.5702 199.73 31.5702 201.41C31.5702 201.71 31.5302 202.03 31.4602 202.26H26.6802ZM26.8602 201.37L30.3502 201.4C30.4302 200.38 29.8802 199.73 28.9202 199.73C27.9602 199.73 27.2102 200.36 26.8702 201.37H26.8602Z" fill="black"/>
<path d="M32.7695 205.11L33.6395 198.98H34.7595L34.5795 200.17C35.2095 199.18 35.8895 198.72 36.6195 198.72C37.2395 198.72 37.6795 199.12 37.8095 199.84L36.6895 200.43L36.5795 200.39C36.5095 200.05 36.3495 199.88 36.0595 199.88C35.3595 199.88 34.5695 200.97 34.3895 202.32L33.9995 205.12H32.7695V205.11Z" fill="black"/>
<path d="M40.1497 205.32L38.1396 198.98H39.4497L40.6096 203.17H40.6396L42.9797 198.98H44.3196L40.5296 205.32H40.1597H40.1497Z" fill="black"/>
<path d="M44.5 202.67C44.5 200.51 45.99 198.71 47.78 198.71C48.65 198.71 49.4 199.21 49.79 200.07L49.96 198.97H51.17L50.32 205.1H49.08L49.12 204.85C49.16 204.57 49.2 204.33 49.24 204.12C48.66 204.89 47.74 205.36 46.93 205.36C45.47 205.36 44.51 204.33 44.51 202.66L44.5 202.67ZM49.59 201.61C49.59 200.54 48.93 199.82 48.01 199.82C46.77 199.82 45.79 200.99 45.79 202.6C45.79 203.66 46.34 204.25 47.26 204.25C48.54 204.25 49.59 203.12 49.59 201.6V201.61Z" fill="black"/>
<path d="M55.8696 204.13L55.7696 205.16C55.4096 205.28 54.9796 205.37 54.5596 205.37C53.4296 205.37 52.8496 204.71 53.0296 203.39L53.5096 200H52.3496L52.4896 198.98H53.6496L53.9296 197.12L55.0296 196.5H55.2196L54.8796 198.98H56.6296L56.4796 200H54.7396L54.2996 203.14C54.1796 203.98 54.3696 204.26 54.9896 204.26C55.2396 204.26 55.4696 204.21 55.7596 204.08L55.8696 204.13Z" fill="black"/>
<path d="M57.1602 202.46C57.1602 200.42 58.8102 198.71 60.9402 198.71C62.6602 198.71 63.8602 199.9 63.8602 201.58C63.8602 203.63 62.1502 205.37 60.1002 205.37C58.3802 205.37 57.1702 204.17 57.1702 202.46H57.1602ZM62.5901 201.65C62.5901 200.57 61.9002 199.83 60.8902 199.83C59.5102 199.83 58.4202 201.02 58.4202 202.42C58.4202 203.49 59.1202 204.25 60.1402 204.25C61.4602 204.25 62.5802 203.04 62.5802 201.65H62.5901ZM60.0002 197.63L61.8701 195.09H63.1902L63.2301 195.19L61.0402 197.63H59.9902H60.0002Z" fill="black"/>
<path d="M65.0098 205.11L65.8798 198.98H66.9998L66.8198 200.17C67.4498 199.18 68.1298 198.72 68.8598 198.72C69.4798 198.72 69.9198 199.12 70.0498 199.84L68.9298 200.43L68.8198 200.39C68.7498 200.05 68.5898 199.88 68.2998 199.88C67.5998 199.88 66.8098 200.97 66.6298 202.32L66.2398 205.12H65.0098V205.11Z" fill="black"/>
<path d="M70.4697 205.11L71.3197 198.98H72.5497L71.6997 205.11H70.4697ZM71.4697 196.13C71.4697 195.66 71.8397 195.3 72.3197 195.3C72.7997 195.3 73.1697 195.67 73.1697 196.14C73.1697 196.61 72.7997 196.97 72.3197 196.97C71.8397 196.97 71.4697 196.61 71.4697 196.13Z" fill="black"/>
<path d="M73.7998 202.46C73.7998 200.42 75.4498 198.71 77.5798 198.71C79.2998 198.71 80.4998 199.9 80.4998 201.58C80.4998 203.63 78.7898 205.37 76.7398 205.37C75.0198 205.37 73.8098 204.17 73.8098 202.46H73.7998ZM79.2298 201.65C79.2298 200.57 78.5398 199.83 77.5298 199.83C76.1498 199.83 75.0598 201.02 75.0598 202.42C75.0598 203.49 75.7598 204.25 76.7798 204.25C78.0998 204.25 79.2198 203.04 79.2198 201.65H79.2298Z" fill="black"/>
<path d="M85.8701 202.67C85.8701 200.53 87.3301 198.71 89.1201 198.71C90.0001 198.71 90.8201 199.21 91.2001 200.05C91.2801 199.37 91.3701 198.7 91.4601 198.02L91.9001 195H93.1301L91.7101 205.1H90.5201L90.6701 204.08C90.1201 204.87 89.1501 205.36 88.2901 205.36C86.8001 205.36 85.8701 204.33 85.8701 202.66V202.67ZM90.9801 201.61C90.9801 200.54 90.3201 199.82 89.3501 199.82C88.1001 199.82 87.1501 201 87.1501 202.6C87.1501 203.65 87.6901 204.25 88.6201 204.25C89.9301 204.25 90.9801 203.11 90.9801 201.6V201.61Z" fill="black"/>
<path d="M95.0903 202.26C95.0903 202.38 95.0803 202.51 95.0803 202.63C95.0703 203.68 95.7103 204.33 96.6903 204.33C97.3903 204.33 97.9903 204.03 98.5803 203.25H98.7003L99.5503 203.8C98.8203 204.85 97.7603 205.37 96.6003 205.37C94.9003 205.37 93.8203 204.3 93.8203 202.59C93.8203 200.4 95.3503 198.72 97.3503 198.72C98.9903 198.72 99.9803 199.73 99.9803 201.41C99.9803 201.71 99.9403 202.03 99.8703 202.26H95.0903ZM95.2703 201.37L98.7603 201.4C98.8403 200.38 98.2903 199.73 97.3303 199.73C96.3703 199.73 95.6203 200.36 95.2803 201.37H95.2703Z" fill="black"/>
<path d="M108.65 205.29L105.83 195.36H107.26L108.8 201.17C108.95 201.69 109.08 202.23 109.21 202.81H109.26C109.55 202.23 109.84 201.71 110.11 201.18L113.29 195.35H114.79L109.2 205.28H108.63L108.65 205.29Z" fill="black"/>
<path d="M114.56 205.11L115.41 198.98H116.64L115.79 205.11H114.56ZM115.56 196.13C115.56 195.66 115.93 195.3 116.41 195.3C116.89 195.3 117.26 195.67 117.26 196.14C117.26 196.61 116.89 196.97 116.41 196.97C115.93 196.97 115.56 196.61 115.56 196.13Z" fill="black"/>
<path d="M117.48 206.73L118.42 206.16H118.52C118.97 206.93 119.51 207.22 120.39 207.22C121.56 207.22 122.33 206.46 122.5 205.19C122.53 204.96 122.56 204.69 122.68 204.03C122.1 204.8 121.18 205.27 120.32 205.27C118.85 205.27 117.88 204.24 117.88 202.61C117.88 200.47 119.35 198.7 121.17 198.7C122.04 198.7 122.82 199.2 123.22 200.06L123.37 198.96H124.6L123.75 205.13C123.49 207.11 122.3 208.26 120.35 208.26C119.03 208.26 118.13 207.79 117.48 206.72V206.73ZM123.02 201.61C123.02 200.54 122.36 199.82 121.37 199.82C120.09 199.82 119.17 200.99 119.17 202.56C119.17 203.58 119.72 204.17 120.66 204.17C121.98 204.17 123.03 203.04 123.03 201.61H123.02Z" fill="black"/>
<path d="M125.89 205.11L126.74 198.98H127.97L127.12 205.11H125.89ZM126.9 196.13C126.9 195.66 127.27 195.3 127.75 195.3C128.23 195.3 128.6 195.67 128.6 196.14C128.6 196.61 128.23 196.97 127.75 196.97C127.27 196.97 126.9 196.61 126.9 196.13Z" fill="black"/>
<path d="M129.27 205.11L130.69 195.01H131.92L130.5 205.11H129.27Z" fill="black"/>
<path d="M132.59 202.67C132.59 200.51 134.08 198.71 135.87 198.71C136.74 198.71 137.49 199.21 137.88 200.07L138.05 198.97H139.26L138.41 205.1H137.17L137.21 204.85C137.25 204.57 137.29 204.33 137.33 204.12C136.75 204.89 135.83 205.36 135.02 205.36C133.56 205.36 132.6 204.33 132.6 202.66L132.59 202.67ZM137.67 201.61C137.67 200.54 137.01 199.82 136.09 199.82C134.85 199.82 133.87 200.99 133.87 202.6C133.87 203.66 134.42 204.25 135.34 204.25C136.62 204.25 137.67 203.12 137.67 201.6V201.61ZM136.87 195.88L135.48 197.75H134.53L134.48 197.64L136.27 195.21H137.59L138.69 197.64L138.59 197.75H137.74L136.87 195.88Z" fill="black"/>
<path d="M141.4 198.98H142.61L142.47 200.06C143.1 199.19 143.97 198.72 144.84 198.72C146.22 198.72 146.92 199.62 146.69 201.28L146.15 205.11H144.92L145.42 201.67C145.61 200.29 145.2 199.84 144.33 199.84C143.27 199.84 142.36 200.74 142.17 202.2L141.77 205.12H140.54L141.39 198.99L141.4 198.98Z" fill="black"/>
<path d="M148.26 202.59C148.26 200.47 149.79 198.72 151.84 198.72C153.01 198.72 153.99 199.29 154.47 200.4L153.49 200.95L153.38 200.91C152.98 200.1 152.47 199.79 151.77 199.79C150.47 199.79 149.52 201.06 149.52 202.52C149.52 203.62 150.17 204.28 151.09 204.28C151.86 204.28 152.48 203.94 153.09 203.12H153.2L154.04 203.7C153.25 204.83 152.15 205.37 150.99 205.37C149.31 205.37 148.25 204.28 148.25 202.59H148.26Z" fill="black"/>
<path d="M155.43 205.11L156.28 198.98H157.51L156.66 205.11H155.43ZM156.43 196.13C156.43 195.66 156.8 195.3 157.28 195.3C157.76 195.3 158.13 195.67 158.13 196.14C158.13 196.61 157.76 196.97 157.28 196.97C156.8 196.97 156.43 196.61 156.43 196.13Z" fill="black"/>
<path d="M158.75 202.67C158.75 200.51 160.24 198.71 162.03 198.71C162.9 198.71 163.65 199.21 164.04 200.07L164.21 198.97H165.42L164.57 205.1H163.33L163.37 204.85C163.41 204.57 163.45 204.33 163.49 204.12C162.91 204.89 161.99 205.36 161.18 205.36C159.72 205.36 158.76 204.33 158.76 202.66L158.75 202.67ZM163.83 201.61C163.83 200.54 163.17 199.82 162.25 199.82C161.01 199.82 160.03 200.99 160.03 202.6C160.03 203.66 160.58 204.25 161.5 204.25C162.78 204.25 163.83 203.12 163.83 201.6V201.61Z" fill="black"/>
<path d="M171.09 205.11L172.45 195.36H175.05C178.26 195.36 180 196.79 180 199.4C180 202.83 177.59 205.12 173.81 205.12H171.08L171.09 205.11ZM172.58 203.9H173.76C176.9 203.9 178.62 202.26 178.62 199.42C178.62 197.52 177.41 196.57 174.83 196.57H173.6L172.57 203.9H172.58Z" fill="black"/>
<path d="M181.04 205.11L181.89 198.98H183.12L182.27 205.11H181.04ZM182.04 196.13C182.04 195.66 182.41 195.3 182.89 195.3C183.37 195.3 183.74 195.67 183.74 196.14C183.74 196.61 183.37 196.97 182.89 196.97C182.41 196.97 182.04 196.61 182.04 196.13Z" fill="black"/>
<path d="M183.96 206.73L184.9 206.16H185C185.45 206.93 185.99 207.22 186.87 207.22C188.04 207.22 188.81 206.46 188.98 205.19C189.01 204.96 189.04 204.69 189.16 204.03C188.58 204.8 187.66 205.27 186.8 205.27C185.33 205.27 184.36 204.24 184.36 202.61C184.36 200.47 185.83 198.7 187.65 198.7C188.52 198.7 189.3 199.2 189.7 200.06L189.85 198.96H191.08L190.23 205.13C189.97 207.11 188.78 208.26 186.83 208.26C185.51 208.26 184.61 207.79 183.96 206.72V206.73ZM189.5 201.61C189.5 200.54 188.84 199.82 187.85 199.82C186.57 199.82 185.65 200.99 185.65 202.56C185.65 203.58 186.2 204.17 187.14 204.17C188.46 204.17 189.51 203.04 189.51 201.61H189.5Z" fill="black"/>
<path d="M192.37 205.11L193.22 198.98H194.45L193.6 205.11H192.37ZM193.38 196.13C193.38 195.66 193.75 195.3 194.23 195.3C194.71 195.3 195.08 195.67 195.08 196.14C195.08 196.61 194.71 196.97 194.23 196.97C193.75 196.97 193.38 196.61 193.38 196.13Z" fill="black"/>
<path d="M199.15 204.13L199.05 205.16C198.69 205.28 198.26 205.37 197.84 205.37C196.71 205.37 196.13 204.71 196.31 203.39L196.79 200H195.63L195.77 198.98H196.93L197.21 197.12L198.31 196.5H198.5L198.16 198.98H199.91L199.76 200H198.02L197.58 203.14C197.46 203.98 197.65 204.26 198.27 204.26C198.52 204.26 198.75 204.21 199.04 204.08L199.15 204.13Z" fill="black"/>
<path d="M200.43 202.67C200.43 200.51 201.92 198.71 203.71 198.71C204.58 198.71 205.33 199.21 205.72 200.07L205.89 198.97H207.1L206.25 205.1H205.01L205.05 204.85C205.09 204.57 205.13 204.33 205.17 204.12C204.59 204.89 203.67 205.36 202.86 205.36C201.4 205.36 200.44 204.33 200.44 202.66L200.43 202.67ZM205.52 201.61C205.52 200.54 204.86 199.82 203.94 199.82C202.7 199.82 201.72 200.99 201.72 202.6C201.72 203.66 202.27 204.25 203.19 204.25C204.47 204.25 205.52 203.12 205.52 201.6V201.61Z" fill="black"/>
<path d="M208.39 205.11L209.81 195.01H211.04L209.62 205.11H208.39Z" fill="black"/>
<path d="M217.27 202.26C217.27 202.38 217.26 202.51 217.26 202.63C217.25 203.68 217.89 204.33 218.87 204.33C219.57 204.33 220.17 204.03 220.76 203.25H220.88L221.73 203.8C221 204.85 219.94 205.37 218.78 205.37C217.08 205.37 216 204.3 216 202.59C216 200.4 217.53 198.72 219.53 198.72C221.17 198.72 222.16 199.73 222.16 201.41C222.16 201.71 222.12 202.03 222.05 202.26H217.27ZM217.45 201.37L220.94 201.4C221.02 200.38 220.47 199.73 219.51 199.73C218.55 199.73 217.8 200.36 217.46 201.37H217.45Z" fill="black"/>
<path d="M0 219.2C0 217.06 1.46 215.24 3.25 215.24C4.13 215.24 4.95 215.74 5.33 216.58C5.41 215.9 5.5 215.23 5.59 214.55L6.03 211.53H7.26L5.84 221.63H4.65L4.8 220.61C4.25 221.4 3.28 221.89 2.42 221.89C0.929998 221.89 0 220.86 0 219.19V219.2ZM5.11 218.14C5.11 217.07 4.45 216.35 3.48 216.35C2.23 216.35 1.28 217.53 1.28 219.13C1.28 220.18 1.82 220.78 2.75 220.78C4.06 220.78 5.11 219.64 5.11 218.13V218.14Z" fill="black"/>
<path d="M9.21043 218.79C9.21043 218.91 9.20043 219.04 9.20043 219.16C9.19043 220.21 9.83042 220.86 10.8104 220.86C11.5104 220.86 12.1104 220.56 12.7004 219.78H12.8204L13.6704 220.33C12.9404 221.38 11.8804 221.9 10.7204 221.9C9.02043 221.9 7.94043 220.83 7.94043 219.12C7.94043 216.93 9.47043 215.25 11.4704 215.25C13.1104 215.25 14.1004 216.26 14.1004 217.94C14.1004 218.24 14.0604 218.56 13.9904 218.79H9.21043ZM9.39043 217.9L12.8804 217.93C12.9604 216.91 12.4104 216.26 11.4504 216.26C10.4904 216.26 9.74043 216.89 9.40043 217.9H9.39043Z" fill="black"/>
<path d="M19.5002 221.64L20.8602 211.89H23.5602C25.6002 211.89 26.6302 212.74 26.6302 214.27C26.6302 216.31 25.2102 217.59 22.9102 217.59H21.3802L20.8102 221.64H19.4902H19.5002ZM21.5402 216.44H22.7802C24.4302 216.44 25.3002 215.72 25.3002 214.36C25.3002 213.44 24.6702 213.04 23.2902 213.04H22.0402L21.5402 216.44Z" fill="black"/>
<path d="M26.9697 221.64L27.8397 215.51H28.9597L28.7797 216.7C29.4097 215.71 30.0897 215.25 30.8197 215.25C31.4397 215.25 31.8797 215.65 32.0097 216.37L30.8897 216.96L30.7797 216.92C30.7097 216.58 30.5497 216.41 30.2597 216.41C29.5597 216.41 28.7697 217.5 28.5897 218.85L28.1997 221.65H26.9697V221.64Z" fill="black"/>
<path d="M33.4204 218.79C33.4204 218.91 33.4104 219.04 33.4104 219.16C33.4004 220.21 34.0404 220.86 35.0204 220.86C35.7204 220.86 36.3204 220.56 36.9104 219.78H37.0304L37.8804 220.33C37.1504 221.38 36.0904 221.9 34.9304 221.9C33.2304 221.9 32.1504 220.83 32.1504 219.12C32.1504 216.93 33.6804 215.25 35.6804 215.25C37.3204 215.25 38.3104 216.26 38.3104 217.94C38.3104 218.24 38.2704 218.56 38.2004 218.79H33.4204ZM33.5904 217.9L37.0804 217.93C37.1604 216.91 36.6104 216.26 35.6504 216.26C34.6904 216.26 33.9404 216.89 33.6004 217.9H33.5904Z" fill="black"/>
<path d="M41.3997 221.84L39.3896 215.5H40.6997L41.8596 219.69H41.8896L44.2297 215.5H45.5696L41.7796 221.84H41.4097H41.3997Z" fill="black"/>
<path d="M47.0395 218.79C47.0395 218.91 47.0295 219.04 47.0295 219.16C47.0195 220.21 47.6595 220.86 48.6395 220.86C49.3395 220.86 49.9395 220.56 50.5295 219.78H50.6495L51.4995 220.33C50.7695 221.38 49.7095 221.9 48.5495 221.9C46.8495 221.9 45.7695 220.83 45.7695 219.12C45.7695 216.93 47.2995 215.25 49.2995 215.25C50.9395 215.25 51.9295 216.26 51.9295 217.94C51.9295 218.24 51.8895 218.56 51.8195 218.79H47.0395ZM47.2195 217.9L50.7095 217.93C50.7895 216.91 50.2395 216.26 49.2795 216.26C48.3195 216.26 47.5695 216.89 47.2295 217.9H47.2195Z" fill="black"/>
<path d="M53.9801 215.51H55.1901L55.0501 216.59C55.6801 215.72 56.5501 215.25 57.4201 215.25C58.8001 215.25 59.5001 216.15 59.2701 217.81L58.7301 221.64H57.5001L58.0001 218.2C58.1901 216.82 57.7801 216.37 56.9101 216.37C55.8501 216.37 54.9401 217.27 54.7501 218.73L54.3501 221.65H53.1201L53.9701 215.52L53.9801 215.51Z" fill="black"/>
<path d="M65.7899 219.64L66.6299 220.23C65.9399 221.21 65.0198 221.75 64.0298 221.87L63.4498 222.64C63.5998 222.6 63.7098 222.59 63.8898 222.59C64.4798 222.59 64.8998 222.95 64.8998 223.47C64.8998 224.28 64.1798 224.82 63.1398 224.82C62.6398 224.82 62.1098 224.68 61.7598 224.49L62.0598 223.88L62.1799 223.84C62.4699 224.05 62.7999 224.14 63.1599 224.14C63.6399 224.14 63.9599 223.91 63.9599 223.53C63.9599 223.25 63.7498 223.12 63.3098 223.12C63.1198 223.12 62.8998 223.16 62.6998 223.22L62.4498 222.97L63.2798 221.88C61.7798 221.76 60.8398 220.7 60.8398 219.11C60.8398 216.99 62.3698 215.24 64.4198 215.24C65.5898 215.24 66.5699 215.81 67.0499 216.92L66.0699 217.47L65.9599 217.43C65.5599 216.62 65.0499 216.31 64.3499 216.31C63.0499 216.31 62.0999 217.58 62.0999 219.04C62.0999 220.14 62.7498 220.8 63.6698 220.8C64.4398 220.8 65.0598 220.46 65.6698 219.64H65.7798H65.7899Z" fill="black"/>
<path d="M67.9297 219.2C67.9297 217.04 69.4197 215.24 71.2097 215.24C72.0797 215.24 72.8297 215.74 73.2197 216.6L73.3897 215.5H74.5997L73.7497 221.63H72.5097L72.5497 221.38C72.5897 221.1 72.6297 220.86 72.6697 220.65C72.0897 221.42 71.1697 221.89 70.3597 221.89C68.8997 221.89 67.9397 220.86 67.9397 219.19L67.9297 219.2ZM73.0197 218.14C73.0197 217.07 72.3597 216.35 71.4397 216.35C70.1997 216.35 69.2197 217.52 69.2197 219.13C69.2197 220.19 69.7697 220.78 70.6897 220.78C71.9697 220.78 73.0197 219.65 73.0197 218.13V218.14ZM74.4797 212.5H73.7097L73.5997 212.58C73.4897 212.94 73.3097 213.17 73.0197 213.17C72.4997 213.17 71.8297 212.49 71.1697 212.49C70.5097 212.49 69.8797 213.14 69.6297 214.1H70.3997L70.5197 214.02C70.6297 213.68 70.7997 213.43 71.0897 213.43C71.6397 213.43 72.1897 214.1 72.9397 214.1C73.5997 214.1 74.2197 213.47 74.4797 212.49V212.5Z" fill="black"/>
<path d="M75.8496 218.99C75.8496 216.95 77.4996 215.24 79.6296 215.24C81.3496 215.24 82.5496 216.43 82.5496 218.11C82.5496 220.16 80.8396 221.9 78.7896 221.9C77.0696 221.9 75.8596 220.7 75.8596 218.99H75.8496ZM81.2796 218.18C81.2796 217.1 80.5896 216.36 79.5796 216.36C78.1996 216.36 77.1096 217.55 77.1096 218.95C77.1096 220.02 77.8096 220.78 78.8296 220.78C80.1496 220.78 81.2696 219.57 81.2696 218.18H81.2796Z" fill="black"/>
<path d="M87.7402 219.2C87.7402 217.06 89.2002 215.24 90.9902 215.24C91.8702 215.24 92.6902 215.74 93.0702 216.58C93.1502 215.9 93.2402 215.23 93.3302 214.55L93.7702 211.53H95.0002L93.5802 221.63H92.3902L92.5402 220.61C91.9902 221.4 91.0202 221.89 90.1602 221.89C88.6702 221.89 87.7402 220.86 87.7402 219.19V219.2ZM92.8502 218.14C92.8502 217.07 92.1902 216.35 91.2202 216.35C89.9702 216.35 89.0202 217.53 89.0202 219.13C89.0202 220.18 89.5602 220.78 90.4902 220.78C91.8002 220.78 92.8502 219.64 92.8502 218.13V218.14Z" fill="black"/>
<path d="M95.6904 218.99C95.6904 216.95 97.3404 215.24 99.4704 215.24C101.19 215.24 102.39 216.43 102.39 218.11C102.39 220.16 100.68 221.9 98.6304 221.9C96.9104 221.9 95.7004 220.7 95.7004 218.99H95.6904ZM101.12 218.18C101.12 217.1 100.43 216.36 99.4204 216.36C98.0404 216.36 96.9504 217.55 96.9504 218.95C96.9504 220.02 97.6504 220.78 98.6704 220.78C99.9904 220.78 101.11 219.57 101.11 218.18H101.12Z" fill="black"/>
<path d="M109.12 211.88H114.49L114.55 213.06H110.26L109.83 216.08H113.81L113.66 217.25H109.68L109.06 221.63H107.74L109.12 211.88Z" fill="black"/>
<path d="M115.81 218.79C115.81 218.91 115.8 219.04 115.8 219.16C115.79 220.21 116.43 220.86 117.41 220.86C118.11 220.86 118.71 220.56 119.3 219.78H119.42L120.27 220.33C119.54 221.38 118.48 221.9 117.32 221.9C115.62 221.9 114.54 220.83 114.54 219.12C114.54 216.93 116.07 215.25 118.07 215.25C119.71 215.25 120.7 216.26 120.7 217.94C120.7 218.24 120.66 218.56 120.59 218.79H115.81ZM115.99 217.9L119.48 217.93C119.56 216.91 119.01 216.26 118.05 216.26C117.09 216.26 116.34 216.89 116 217.9H115.99Z" fill="black"/>
<path d="M132.01 217.7L131.46 221.64H130.23L130.73 218.15C130.91 216.88 130.54 216.36 129.72 216.36C128.76 216.36 127.89 217.35 127.69 218.7L127.29 221.63H126.06L126.53 218.14C126.72 216.87 126.35 216.35 125.52 216.35C124.57 216.35 123.69 217.34 123.51 218.69L123.11 221.62H121.88L122.73 215.49H123.94L123.79 216.54C124.41 215.67 125.17 215.23 125.98 215.23C127.01 215.23 127.63 215.8 127.76 216.76C128.42 215.69 129.34 215.23 130.17 215.23C131.48 215.23 132.21 216.13 131.99 217.68L132.01 217.7Z" fill="black"/>
<path d="M133.61 221.64L134.46 215.51H135.69L134.84 221.64H133.61ZM134.61 212.65C134.61 212.18 134.98 211.82 135.46 211.82C135.94 211.82 136.31 212.19 136.31 212.66C136.31 213.13 135.94 213.49 135.46 213.49C134.98 213.49 134.61 213.13 134.61 212.65Z" fill="black"/>
<path d="M137.84 215.51H139.05L138.91 216.59C139.54 215.72 140.41 215.25 141.28 215.25C142.66 215.25 143.36 216.15 143.13 217.81L142.59 221.64H141.36L141.86 218.2C142.05 216.82 141.64 216.37 140.77 216.37C139.71 216.37 138.8 217.27 138.61 218.73L138.21 221.65H136.98L137.83 215.52L137.84 215.51Z" fill="black"/>
<path d="M144.74 221.64L145.59 215.51H146.82L145.97 221.64H144.74ZM145.74 212.65C145.74 212.18 146.11 211.82 146.59 211.82C147.07 211.82 147.44 212.19 147.44 212.66C147.44 213.13 147.07 213.49 146.59 213.49C146.11 213.49 145.74 213.13 145.74 212.65Z" fill="black"/>
<path d="M148.07 219.12C148.07 217 149.6 215.25 151.65 215.25C152.82 215.25 153.8 215.82 154.28 216.93L153.3 217.48L153.19 217.44C152.79 216.63 152.28 216.32 151.58 216.32C150.28 216.32 149.33 217.59 149.33 219.05C149.33 220.15 149.98 220.81 150.9 220.81C151.67 220.81 152.29 220.47 152.9 219.65H153.01L153.85 220.23C153.06 221.36 151.96 221.9 150.8 221.9C149.12 221.9 148.06 220.81 148.06 219.12H148.07Z" fill="black"/>
<path d="M155.23 221.64L156.08 215.51H157.31L156.46 221.64H155.23ZM155.48 214.16L157.35 211.62H158.67L158.71 211.72L156.52 214.16H155.47H155.48Z" fill="black"/>
<path d="M158.55 219.2C158.55 217.06 160.01 215.24 161.8 215.24C162.68 215.24 163.5 215.74 163.88 216.58C163.96 215.9 164.05 215.23 164.14 214.55L164.58 211.53H165.81L164.39 221.63H163.2L163.35 220.61C162.8 221.4 161.83 221.89 160.97 221.89C159.48 221.89 158.55 220.86 158.55 219.19V219.2ZM163.66 218.14C163.66 217.07 163 216.35 162.03 216.35C160.78 216.35 159.83 217.53 159.83 219.13C159.83 220.18 160.37 220.78 161.3 220.78C162.61 220.78 163.66 219.64 163.66 218.13V218.14Z" fill="black"/>
<path d="M166.54 221.64L167.39 215.51H168.62L167.77 221.64H166.54ZM167.55 212.65C167.55 212.18 167.92 211.82 168.4 211.82C168.88 211.82 169.25 212.19 169.25 212.66C169.25 213.13 168.88 213.49 168.4 213.49C167.92 213.49 167.55 213.13 167.55 212.65Z" fill="black"/>
<path d="M169.88 218.99C169.88 216.95 171.53 215.24 173.66 215.24C175.38 215.24 176.58 216.43 176.58 218.11C176.58 220.16 174.87 221.9 172.82 221.9C171.1 221.9 169.89 220.7 169.89 218.99H169.88ZM175.3 218.18C175.3 217.1 174.61 216.36 173.6 216.36C172.22 216.36 171.13 217.55 171.13 218.95C171.13 220.02 171.83 220.78 172.85 220.78C174.17 220.78 175.29 219.57 175.29 218.18H175.3Z" fill="black"/>
<path d="M4.51 185.42L0 166.92H5.08L6.89 176.61C7.07 177.59 7.28 178.84 7.36 180.32H7.49001C7.96001 178.84 8.53001 177.62 8.99001 176.64L13.5 166.92H18.71L9.02 185.42H4.51Z" fill="black"/>
<path d="M20.6195 166.92H25.0195L22.4295 185.26H18.0195L20.6095 166.92H20.6195Z" fill="black"/>
<path d="M26.6602 177.68C26.6602 171.41 31.5602 166.44 37.7002 166.44C41.4802 166.44 44.2002 168.02 45.5002 171L41.8702 173.05L41.4302 172.95C40.6002 171.32 39.3802 170.62 37.5202 170.62C34.1302 170.62 31.4802 173.52 31.4802 177.18C31.4802 179.98 33.2202 181.79 35.7502 181.79C38.1302 181.79 40.0302 180.52 40.6002 178.6V178.52H36.7102L37.2002 175.2H45.1802L43.7602 185.28H39.8002L39.8502 184.68C39.9302 183.98 40.1902 183.36 40.5202 182.68L40.4702 182.65C39.1002 184.62 37.0202 185.76 34.3802 185.76C29.7702 185.76 26.6602 182.52 26.6602 177.68Z" fill="black"/>
<path d="M49.8703 166.92H54.2803L51.6903 185.26H47.2803L49.8703 166.92Z" fill="black"/>
<path d="M57.9699 166.92H68.8799L68.9299 170.68H61.8299L61.2899 174.46H67.6599L67.1699 178.04H60.7999L59.7899 185.27H55.3799L57.9699 166.93V166.92Z" fill="black"/>
<path d="M72.35 166.92H83.59L83.64 170.68H76.2L75.71 174.15H82.34L81.85 177.73H75.19L74.67 181.51H82.11L81.18 185.27H69.75L72.34 166.93L72.35 166.92Z" fill="black"/>
<path d="M95.9003 176.49H95.9503L101.83 166.93H107.37L104.78 185.27H100.45L102.32 172.5H102.27L95.2503 183.56H94.7803L90.8403 172.5H90.7903L89.0803 185.27H84.7803L87.3703 166.93H92.7103L95.9003 176.49Z" fill="black"/>
<path d="M111.1 166.92H115.5L112.91 185.26H108.5L111.09 166.92H111.1Z" fill="black"/>
<path d="M116.62 185.27L119.19 166.93H123.49L127.56 173.72C128.28 174.91 128.96 176.13 129.92 177.92H129.97C130.05 176.05 130.18 174.81 130.41 173.28L131.29 166.93H135.69L133.07 185.43H129.44L124.7 177.99C123.97 176.82 123.28 175.63 122.37 173.84H122.29C122.26 175.71 122.13 177 121.93 178.55L121 185.26H116.62V185.27Z" fill="black"/>
<path d="M139.38 166.92H143.78L141.19 185.26H136.78L139.37 166.92H139.38Z" fill="black"/>
<path d="M145.45 177.57C145.45 171.38 150.37 166.43 156.41 166.43C159.99 166.43 162.78 167.98 164.08 171.09L160.45 173.11L159.98 173.01C159.23 171.35 157.96 170.6 156.2 170.6C152.88 170.6 150.29 173.58 150.29 177.08C150.29 179.8 152.08 181.59 154.59 181.59C156.43 181.59 157.91 180.84 159.18 179.15L159.65 179.07L162.71 181.14C160.51 184.25 157.32 185.75 153.9 185.75C148.98 185.75 145.45 182.49 145.45 177.56V177.57Z" fill="black"/>
<path d="M167.57 166.92H171.97L169.38 185.26H164.97L167.56 166.92H167.57ZM166.56 165.47L169.59 162H173.37L173.45 162.23L169.72 165.47H166.56Z" fill="black"/>
<path d="M173.08 185.27L175.65 166.93H181.48C187.34 166.93 190.73 169.75 190.76 174.55C190.76 180.9 186.15 185.28 179.02 185.28H173.09L173.08 185.27ZM178.03 181.33H179.35C183.75 181.33 186.19 179 186.16 174.93C186.13 172.24 184.42 170.86 180.9 170.86H179.5L178.02 181.33H178.03Z" fill="black"/>
<path d="M194.89 166.92H199.3L196.71 185.26H192.3L194.89 166.92Z" fill="black"/>
<path d="M200.93 177.47C200.93 171.33 205.98 166.43 212.2 166.43C217.41 166.43 220.96 169.75 220.96 174.67C220.96 180.78 215.86 185.76 209.69 185.76C204.56 185.76 200.93 182.39 200.93 177.47ZM216.27 175.11C216.27 172.36 214.43 170.52 211.79 170.52C208.42 170.52 205.62 173.45 205.62 177.02C205.62 179.74 207.49 181.63 210.13 181.63C213.45 181.63 216.27 178.68 216.27 175.1V175.11Z" fill="black"/>
<mask id="mask0_424_413" style="mask-type:luminance" maskUnits="userSpaceOnUse" x="36" y="7" width="146" height="146">
<path d="M108.92 152.36C148.933 152.36 181.37 119.923 181.37 79.91C181.37 39.8969 148.933 7.45996 108.92 7.45996C68.9067 7.45996 36.4697 39.8969 36.4697 79.91C36.4697 119.923 68.9067 152.36 108.92 152.36Z" fill="white"/>
</mask>
<g mask="url(#mask0_424_413)">
<path d="M132.96 71.5996C132.74 67.2996 132.71 58.6596 132.94 54.3596C133.05 52.1996 133.44 49.7196 129.29 46.5296C129.27 46.5096 129.25 46.4896 129.23 46.4796C125.17 43.2996 126.38 39.3096 125.32 36.9596C121.61 28.7396 108.89 34.8396 107.71 35.4196C107.65 35.4496 107.61 35.4696 107.61 35.4696C107.57 35.4296 107.53 35.3996 107.49 35.3596C100.29 28.2896 91.8196 34.2096 90.6496 38.6196C89.9496 41.2596 90.8396 42.0196 87.3996 44.7096C86.7696 45.1996 86.1896 45.6696 85.6396 46.1596C83.6896 47.9096 82.3096 49.9296 81.9696 54.1996C81.7196 57.4096 83.7296 62.5396 84.5796 65.6396C86.5196 72.6596 83.6596 89.5196 89.0296 94.4496C95.4196 100.32 115.94 100.77 123.66 96.8096C127.96 94.5996 132.74 85.0696 133.83 80.3596C134.33 78.2196 133.07 73.8096 132.96 71.6096V71.5996Z" fill="white"/>
<path d="M108.87 100.03C100.82 100.03 92.3496 98.3598 88.5896 94.9098C85.0096 91.6198 84.8896 83.8798 84.7796 76.3998C84.7196 72.2498 84.6596 68.3298 83.9596 65.7998C83.7596 65.0798 83.4996 64.2398 83.2096 63.3498C82.2796 60.3998 81.1196 56.7198 81.3196 54.1498C81.6696 49.6898 83.1296 47.5398 85.1996 45.6798C85.7296 45.1998 86.2996 44.7398 86.9896 44.1998C89.3796 42.3298 89.4896 41.5698 89.6896 40.1898C89.7596 39.6998 89.8396 39.1398 90.0196 38.4498C90.6596 36.0398 93.4796 32.8898 97.4296 31.8098C101.05 30.8198 104.7 31.8498 107.72 34.6998C109.42 33.8898 116.48 30.8198 121.52 32.6198C123.51 33.3298 124.98 34.6998 125.88 36.6898C126.25 37.5198 126.37 38.4798 126.5 39.5098C126.75 41.5898 127.04 43.9598 129.61 45.9698C133.87 49.2498 133.71 51.9098 133.58 54.0498L133.56 54.3898C133.35 58.4498 133.35 67.1198 133.58 71.5698C133.62 72.3198 133.8 73.3798 134 74.5098C134.37 76.6198 134.78 78.9998 134.44 80.4998C133.38 85.0898 128.59 94.9798 123.94 97.3698C120.51 99.1298 114.8 100.04 108.87 100.04V100.03ZM100.17 32.6998C99.2896 32.6998 98.4796 32.8398 97.7796 33.0298C94.4096 33.9498 91.8196 36.6698 91.2596 38.7698C91.0996 39.3798 91.0296 39.8798 90.9596 40.3598C90.7196 42.0498 90.4496 43.1098 87.7896 45.1898C87.1196 45.7198 86.5696 46.1598 86.0596 46.6098C84.1596 48.3098 82.9196 50.1798 82.5996 54.2298C82.4096 56.5598 83.5296 60.0998 84.4296 62.9498C84.7196 63.8598 84.9896 64.7098 85.1896 65.4498C85.9296 68.1298 85.9896 72.1298 86.0596 76.3698C86.1596 83.2498 86.2796 91.0498 89.4596 93.9598C95.5196 99.5298 115.71 100.16 123.37 96.2198C127.34 94.1798 132.08 85.0898 133.21 80.1998C133.5 78.9498 133.11 76.6998 132.76 74.7098C132.56 73.5498 132.37 72.4498 132.32 71.6198C132.09 67.0598 132.08 58.4798 132.3 54.3098L132.32 53.9698C132.44 51.9398 132.56 49.8398 128.9 47.0198L128.82 46.9498C125.84 44.6198 125.51 41.8598 125.24 39.6498C125.12 38.6898 125.02 37.8598 124.73 37.1998C123.98 35.5298 122.76 34.3898 121.1 33.7998C116.14 32.0298 108.8 35.5598 107.98 35.9698L107.56 36.1798L107.03 35.7898C104.6 33.3998 102.18 32.6898 100.16 32.6898L100.17 32.6998Z" fill="black"/>
<path d="M124.39 101.21H92.4103V88.1497C92.3403 87.7897 92.1503 86.4297 92.9403 85.1897C93.5803 84.1897 94.6603 83.5297 96.1703 83.2397C100.02 82.4897 100.33 81.5597 100.75 80.2697C101.18 78.9697 106.43 78.5897 116.36 79.1497L116.76 79.1697L116.91 79.5397C116.96 79.6697 118.25 82.6697 121.65 83.2297C125.13 83.7997 125.68 87.4397 125.48 89.2797L124.39 101.19V101.21ZM93.6803 99.9397H123.22L124.2 89.1697C124.22 88.9897 124.6 85.0197 121.43 84.4997C118.04 83.9397 116.41 81.3897 115.9 80.4097C109.79 80.0797 102.88 80.1297 101.92 80.7697C101.34 82.4897 100.59 83.6797 96.4003 84.4997C95.2603 84.7197 94.4503 85.1897 94.0103 85.8697C93.4003 86.8197 93.6503 87.9297 93.6603 87.9397L93.6803 88.0897V99.9397Z" fill="black"/>
<path d="M123.25 49.8793C121.85 50.2793 120.33 50.4893 118.75 50.4893C113.94 50.4893 109.74 48.4893 107.46 45.5293C105.16 48.4193 101.02 50.3493 96.2804 50.3493C95.1204 50.3493 94.0104 50.2293 92.9404 50.0093C91.7804 55.6693 91.8504 63.9693 92.7504 68.2693C93.2804 70.8093 96.3004 75.2093 97.9404 77.1893C99.9804 79.6593 105.62 83.8293 108.78 83.8493C111.22 83.8693 115.65 80.7493 117.2 78.8293C118.9 76.7193 121.63 71.8693 122.32 69.2293C123.44 64.9293 124.46 54.1993 123.26 49.9293C123.26 49.9093 123.25 49.8893 123.24 49.8693L123.25 49.8793Z" fill="white"/>
<path d="M108.81 84.4995H108.79C105.29 84.4795 99.47 80.0195 97.47 77.6095C95.99 75.8195 92.74 71.2195 92.14 68.4195C91.26 64.2295 91.12 55.7895 92.33 49.8995L92.46 49.2795L93.08 49.4095C94.15 49.6295 95.23 49.7395 96.29 49.7395C100.69 49.7395 104.68 48.0295 106.97 45.1595L107.48 44.5195L107.98 45.1595C110.21 48.0695 114.34 49.8695 118.76 49.8695C120.24 49.8695 121.7 49.6695 123.09 49.2795L123.69 49.1095L123.87 49.7095L123.26 49.8995L123.87 49.7195C125.16 54.3395 124.04 65.2495 122.95 69.4195C122.25 72.0995 119.48 77.0695 117.71 79.2595C116.03 81.3295 111.47 84.5095 108.81 84.5095V84.4995ZM93.45 50.7595C92.41 56.4495 92.55 64.2295 93.38 68.1495C93.87 70.4695 96.69 74.6795 98.44 76.7995C100.53 79.3295 106 83.2095 108.79 83.2295H108.81C111 83.2295 115.22 80.2995 116.72 78.4495C118.41 76.3495 121.05 71.6195 121.72 69.0895C122.84 64.8295 123.71 55.0195 122.8 50.6595C121.49 50.9695 120.14 51.1295 118.76 51.1295C114.19 51.1295 110.03 49.4195 107.46 46.5195C104.88 49.3295 100.77 50.9895 96.29 50.9895C95.35 50.9895 94.4 50.9095 93.45 50.7595Z" fill="black"/>
<path d="M146.29 77.0796C142.49 79.4796 134.19 81.6296 124.85 85.6696L129.84 101.57L168.58 76.8896C163.51 77.2696 156.45 79.5796 146.29 77.0896V77.0796Z" fill="white"/>
<path d="M129.83 102.2C129.76 102.2 129.68 102.19 129.61 102.16C129.42 102.09 129.28 101.94 129.22 101.75L124.23 85.8498C124.13 85.5398 124.29 85.1998 124.58 85.0798C128.77 83.2698 132.72 81.8498 136.2 80.5998C140.5 79.0498 143.9 77.8298 145.94 76.5398C146.09 76.4498 146.27 76.4198 146.43 76.4598C154.07 78.3298 159.88 77.4598 164.54 76.7498C165.96 76.5398 167.3 76.3298 168.52 76.2398C168.83 76.2198 169.08 76.3998 169.17 76.6698C169.26 76.9498 169.15 77.2498 168.91 77.4098L130.17 102.09C130.07 102.16 129.95 102.19 129.83 102.19V102.2ZM125.62 86.0198L130.19 100.58L165.89 77.8398C165.51 77.8898 165.13 77.9498 164.74 78.0098C160.02 78.7198 154.15 79.6098 146.4 77.7598C144.23 79.0698 140.86 80.2798 136.64 81.7998C133.32 82.9898 129.58 84.3398 125.62 86.0298V86.0198Z" fill="black"/>
<path d="M109.28 52.8996L109.47 55.4396C109.47 55.4396 115.65 52.8296 118.89 54.5496C118.89 54.5496 116.32 51.7196 109.28 52.8996Z" fill="#6D25A0"/>
<path d="M96.5498 54.5496C99.7798 52.8396 105.97 55.4396 105.97 55.4396L106.16 52.8996C99.1198 51.7196 96.5498 54.5496 96.5498 54.5496Z" fill="#6D25A0"/>
<path d="M113.37 59.8096C111.6 59.8096 109.69 59.3496 109.69 58.3296C109.69 57.3096 111.6 56.8496 113.37 56.8496C115.14 56.8496 117.05 57.3096 117.05 58.3296C117.05 59.3496 115.14 59.8096 113.37 59.8096ZM113.37 57.5796C111.45 57.5796 110.41 58.1096 110.41 58.3296C110.41 58.5496 111.45 59.0796 113.37 59.0796C115.29 59.0796 116.33 58.5496 116.33 58.3296C116.33 58.1096 115.29 57.5796 113.37 57.5796Z" fill="#6D25A0"/>
<path d="M112.83 59.7599C113.725 59.7599 114.45 59.1242 114.45 58.3399C114.45 57.5557 113.725 56.9199 112.83 56.9199C111.935 56.9199 111.21 57.5557 111.21 58.3399C111.21 59.1242 111.935 59.7599 112.83 59.7599Z" fill="#6D25A0"/>
<path d="M127.58 82.6899H122.46C122.49 83.0199 122.52 83.3499 122.52 83.6899C122.52 90.2299 116.29 95.5299 108.6 95.5299C100.91 95.5299 94.6799 90.2299 94.6799 83.6899C94.6799 83.3499 94.7099 83.0199 94.7399 82.6899H89.7899C89.8199 83.2899 89.8399 83.8899 89.8399 84.5099C89.8399 92.2499 87.3799 99.0099 83.7099 102.78L78.4199 137.71L138.79 137.95L133.48 102.6C129.91 98.7899 127.53 92.1199 127.53 84.5099C127.53 83.8999 127.55 83.2899 127.58 82.6899Z" fill="white"/>
<path d="M102.34 59.7198C100.57 59.7198 98.6602 59.2598 98.6602 58.2398C98.6602 57.2198 100.57 56.7598 102.34 56.7598C104.11 56.7598 106.02 57.2198 106.02 58.2398C106.02 59.2598 104.11 59.7198 102.34 59.7198ZM102.34 57.4898C100.42 57.4898 99.3802 58.0198 99.3802 58.2398C99.3802 58.4598 100.42 58.9898 102.34 58.9898C104.26 58.9898 105.3 58.4598 105.3 58.2398C105.3 58.0198 104.26 57.4898 102.34 57.4898Z" fill="#6D25A0"/>
<path d="M102.97 59.6696C103.864 59.6696 104.59 59.0338 104.59 58.2496C104.59 57.4654 103.864 56.8296 102.97 56.8296C102.075 56.8296 101.35 57.4654 101.35 58.2496C101.35 59.0338 102.075 59.6696 102.97 59.6696Z" fill="#6D25A0"/>
<path d="M139.61 138.65L77.5996 138.41L83.0496 102.45L83.2096 102.29C86.9196 98.4797 89.1396 91.8297 89.1396 84.5097C89.1396 83.9097 89.1196 83.3197 89.0896 82.7297L89.0496 81.9897H95.5196L95.4396 82.7597C95.4096 83.0697 95.3796 83.3798 95.3796 83.6898C95.3796 89.8298 101.31 94.8198 108.6 94.8198C115.89 94.8198 121.82 89.8298 121.82 83.6898C121.82 83.3798 121.79 83.0697 121.76 82.7597L121.68 81.9897H128.31L128.27 82.7297C128.24 83.3197 128.22 83.9097 128.22 84.5097C128.22 91.6897 130.37 98.2697 133.98 102.11L134.13 102.27L134.16 102.49L139.6 138.65H139.61ZM79.2296 137.01L137.97 137.24L132.81 102.92C129.06 98.7997 126.82 91.9497 126.82 84.5197C126.82 84.1497 126.82 83.7798 126.84 83.4098H123.22C123.22 83.5098 123.22 83.6097 123.22 83.7097C123.22 90.6297 116.66 96.2498 108.59 96.2498C100.52 96.2498 93.9596 90.6197 93.9596 83.7097C93.9596 83.6097 93.9596 83.5098 93.9596 83.4098H90.4996C90.5096 83.7798 90.5196 84.1497 90.5196 84.5197C90.5196 92.0997 88.2196 99.0298 84.3496 103.12L79.2096 137.02L79.2296 137.01Z" fill="black"/>
<path d="M78.0898 96.63C78.0898 103.39 85.4298 105.33 89.8098 102.72C92.7898 100.94 97.3598 93.7199 92.3898 89.0799C87.4198 84.4399 78.0898 88.71 78.0898 96.63Z" fill="white"/>
<path d="M85.59 104.48C84.05 104.48 82.52 104.11 81.2 103.36C78.79 101.99 77.46 99.5999 77.46 96.6399C77.46 92.5599 79.81 89 83.6 87.36C86.91 85.92 90.44 86.41 92.83 88.63C94.64 90.32 95.45 92.52 95.19 94.99C94.82 98.47 92.28 102 90.14 103.28C88.79 104.09 87.19 104.49 85.6 104.49L85.59 104.48ZM87.39 87.8C86.31 87.8 85.19 88.0299 84.1 88.5099C81.5 89.6399 78.73 92.36 78.73 96.63C78.73 99.12 79.83 101.11 81.83 102.25C84.1 103.54 87.25 103.51 89.49 102.18C91.12 101.21 93.57 98.12 93.92 94.85C94.14 92.76 93.48 90.98 91.96 89.55C90.73 88.4 89.11 87.81 87.39 87.81V87.8Z" fill="black"/>
<path d="M137.55 61.7399C133.18 61.3699 120.39 58.5699 120.39 58.5699C120.28 58.2699 120.17 58.0099 120.06 57.8199C116.95 52.5599 112.29 51.4599 109.1 51.2499C107.57 51.1499 104.52 50.9499 103 50.8099C100.56 50.5799 95.7099 49.9899 93.2499 49.7899C91.6499 49.6599 91.2899 51.3399 92.8199 51.6399C95.7099 52.2199 102.31 53.7099 104.1 54.1199C104.11 54.1299 104.11 54.1499 104.13 54.1599V54.1199C104.41 54.1799 104.57 54.2199 104.57 54.2199C104.57 54.2199 101.48 53.7899 97.9199 53.3099C95.8299 53.0299 93.5899 52.7399 91.6999 52.4999C90.8499 52.3899 90.0599 52.2999 89.3999 52.2199C88.5099 52.1199 85.7499 51.6699 85.5799 52.9099C85.4599 53.7799 85.4199 54.5899 86.7699 54.8199C90.3199 55.4199 100.24 57.5199 101.83 57.8299C101.21 57.7499 99.3499 57.6099 97.0599 57.4299C93.5299 57.1599 88.9699 56.7999 86.3199 56.4799C85.5399 56.3799 84.3599 56.5999 84.1499 57.3299C83.6399 59.0899 85.3999 59.3999 86.1399 59.6399C87.9499 60.2099 93.2899 61.1099 97.2999 61.7399C99.9999 62.1699 102.1 62.4699 102.1 62.4699C102.1 62.4699 102.78 63.3399 96.8299 62.7299C95.5699 62.5999 93.9199 62.3899 92.1499 62.2099C90.4299 62.0399 88.5999 61.9099 86.8999 61.9399C84.9899 61.9699 84.6199 62.3599 84.5499 62.8399C84.3199 64.5199 86.3899 64.4599 87.1399 64.6099C88.6999 64.9199 91.8899 64.9799 93.4599 65.1899C97.2799 65.6999 108.55 68.4099 108.55 68.4099C108.55 68.4099 103.59 70.4299 102.03 70.8399C101.61 70.9499 100.25 71.3699 100.17 71.7999C100.06 72.4399 101.11 72.9399 101.71 73.0999C105.51 74.0699 109.89 73.6099 112.37 72.6899C115.02 71.7099 117.63 71.5399 119.63 68.9999C119.63 68.9999 125.25 69.2799 137.59 74.0699C162.89 83.8799 171.46 78.3899 171.72 74.8199C171.95 71.6099 165.58 64.1099 137.55 61.7199V61.7399Z" fill="white"/>
<path d="M106.28 74.2598C104.73 74.2598 103.11 74.0998 101.56 73.6998C100.79 73.4998 99.3796 72.8398 99.5796 71.7198C99.6196 71.5098 99.7296 70.8498 101.87 70.2798C102.79 70.0298 104.99 69.1898 106.56 68.5698C103.2 67.7798 96.1996 66.1798 93.3796 65.7998C92.7396 65.7098 91.8196 65.6498 90.8396 65.5898C89.4296 65.4998 87.9696 65.3998 87.0196 65.2098C86.9196 65.1898 86.7796 65.1698 86.6296 65.1598C85.9196 65.0698 84.8496 64.9398 84.2796 64.1998C83.9796 63.8098 83.8696 63.3298 83.9496 62.7698C84.1196 61.5698 85.4596 61.3798 86.8796 61.3498C89.1796 61.2998 91.6796 61.5498 93.8596 61.7898C90.6096 61.2498 87.3096 60.6398 85.9396 60.2098L85.7296 60.1498C84.9596 59.9298 82.9296 59.3398 83.5496 57.1698C83.8796 56.0198 85.4596 55.7798 86.3696 55.8898C87.7996 56.0698 89.8196 56.2498 91.9096 56.4298C89.7996 56.0098 87.8396 55.6298 86.6396 55.4198C84.6496 55.0798 84.8496 53.5698 84.9496 52.8398C85.1896 51.0998 87.9096 51.4398 89.2096 51.5998L89.4396 51.6298C90.1496 51.7098 90.9996 51.8198 91.9296 51.9298C91.3796 51.5698 91.1796 51.0098 91.2396 50.5198C91.3396 49.7798 92.0796 49.0898 93.2796 49.1798C94.6796 49.2898 96.8296 49.5298 98.9096 49.7598C100.48 49.9298 101.98 50.0998 103.04 50.1998C104.42 50.3298 107.09 50.5098 108.68 50.6098L109.12 50.6398C114.21 50.9798 118.05 53.2898 120.55 57.5098C121.13 58.4798 121.7 60.9998 121.65 61.7098C121.63 62.0398 121.33 62.2998 121.01 62.2698C120.68 62.2498 120.43 61.9598 120.45 61.6298C120.48 61.1798 119.96 58.8898 119.52 58.1298C117.24 54.2798 113.71 52.1598 109.04 51.8498L108.6 51.8198C107 51.7098 104.32 51.5398 102.93 51.3998C101.87 51.2998 100.36 51.1298 98.7796 50.9598C96.7096 50.7298 94.5696 50.4898 93.1896 50.3798C92.6996 50.3298 92.4496 50.5398 92.4296 50.6898C92.4096 50.8398 92.6096 50.9898 92.9196 51.0498C96.2396 51.7198 104.59 53.6198 104.68 53.6398C104.99 53.7098 105.2 54.0198 105.14 54.3298C105.08 54.6498 104.79 54.8598 104.47 54.8198C104.37 54.8098 93.8796 53.3498 89.3096 52.8198L89.0696 52.7898C86.4296 52.4598 86.1696 52.8598 86.1496 52.9998C86.0296 53.8998 86.0796 54.0998 86.8496 54.2298C89.4496 54.6698 95.4896 55.9198 99.0996 56.6598C100.35 56.9198 101.47 57.1498 101.91 57.2398C102.04 57.2598 102.12 57.2698 102.18 57.2898C102.49 57.3798 102.7 57.6998 102.62 58.0198C102.54 58.3398 102.51 58.4798 101.87 58.4198V58.4498C101.59 58.3898 99.4196 58.2198 97.1196 58.0498C93.4696 57.7698 88.9296 57.4198 86.2396 57.0898C85.5896 57.0098 84.7996 57.2198 84.7196 57.5098C84.4696 58.3798 84.9396 58.6798 86.0796 59.0098L86.3196 59.0798C89.2796 60.0098 102.06 61.8698 102.19 61.8898C102.34 61.9098 102.48 61.9898 102.58 62.1198C102.71 62.2898 102.81 62.6098 102.63 62.9198C102.37 63.3898 101.69 63.8498 96.7696 63.3498C96.2396 63.2998 95.6296 63.2298 94.9796 63.1498C92.5796 62.8698 89.5896 62.5198 86.9196 62.5698C85.8496 62.5898 85.1896 62.7298 85.1596 62.9498C85.1096 63.2998 85.2196 63.4398 85.2496 63.4798C85.5096 63.8198 86.2896 63.9198 86.7896 63.9798C86.9696 63.9998 87.1396 64.0198 87.2596 64.0498C88.1296 64.2198 89.5496 64.3198 90.9196 64.3998C91.9196 64.4598 92.8696 64.5298 93.5496 64.6198C97.3596 65.1298 108.24 67.7398 108.7 67.8498C108.95 67.9098 109.14 68.1298 109.16 68.3898C109.18 68.6498 109.03 68.8898 108.79 68.9898C108.59 69.0698 103.78 71.0298 102.19 71.4498C101.58 71.6098 101.03 71.8498 100.8 71.9898C100.93 72.1398 101.38 72.4198 101.86 72.5398C105.63 73.4998 109.84 73.0098 112.16 72.1498C112.81 71.9098 113.46 71.7098 114.09 71.5298C116.63 70.7698 118.83 70.1198 120.39 66.5398C120.52 66.2398 120.88 66.0898 121.18 66.2298C121.48 66.3598 121.62 66.7198 121.49 67.0198C119.71 71.1098 117.03 71.9098 114.44 72.6798C113.83 72.8598 113.21 73.0498 112.59 73.2798C111.06 73.8498 108.77 74.2698 106.3 74.2698L106.28 74.2598Z" fill="black"/>
<path d="M161.18 80.22C156.05 80.22 148.44 78.94 137.37 74.65C125.29 69.96 119.65 69.62 119.59 69.62C119.26 69.6 119 69.32 119.02 68.99C119.04 68.66 119.33 68.4 119.65 68.42C119.88 68.43 125.51 68.76 137.8 73.53C158.7 81.64 166.74 78.86 169.23 77.29C170.36 76.57 171.05 75.67 171.11 74.8C171.3 72.15 165.64 64.74 137.48 62.35C133.12 61.98 120.77 59.29 120.24 59.17C119.92 59.1 119.71 58.78 119.78 58.45C119.85 58.12 120.18 57.92 120.49 57.99C120.62 58.02 133.3 60.78 137.57 61.14C165.66 63.52 172.56 71.17 172.29 74.88C172.2 76.13 171.31 77.37 169.85 78.29C168.57 79.1 165.94 80.21 161.15 80.21L161.18 80.22Z" fill="black"/>
<path d="M87.8103 101.44C83.2903 97.6 83.3503 92.67 83.8803 89.33C83.9303 89.03 83.9803 88.74 84.0303 88.47C84.3403 86.88 83.5603 84.5 82.8603 83.04C81.6803 80.55 81.1403 79.83 79.8103 77.02C78.8403 74.96 80.0403 73.22 82.2403 76.37C84.5503 79.69 87.2103 85.03 88.2903 84.63C90.0403 83.97 87.3203 77.91 85.6603 71.73C85.4303 70.88 84.9203 68.88 86.5403 68.06C87.3503 67.65 87.8603 67.75 88.6103 70C89.9603 74.03 92.0303 84.67 92.7103 83.02C93.1903 81.84 94.8603 71.47 95.5203 66.58C95.6303 65.76 96.1703 64.61 96.9703 64.59C98.9003 64.55 98.7503 66.43 98.7903 67.25C98.9503 70.61 96.3503 82.98 98.7503 85.07C99.1503 85.42 99.9303 85.02 101.85 79C102.97 75.5 103.68 73.6 104.67 70.07C105.22 68.12 105.71 67.85 106.22 67.91C108.01 68.13 107.67 69.56 107.62 70.37C107.52 72.05 107.03 74.72 106.23 77.66C105.05 81.99 101.27 88.73 104.5 90.89C104.81 91.1 106.84 90.81 108.89 89.77C110.46 88.98 113.75 86.83 114.15 86.75C117.62 86.01 114.7 90.07 114 90.6C109.5 94.08 106.69 95.31 105.09 97.6C102.97 100.62 101.14 104.98 95.6503 104.77C94.3003 104.72 91.2603 104.4 87.8003 101.46L87.8103 101.44Z" fill="white"/>
<path d="M96.0296 105.39C95.8996 105.39 95.7696 105.39 95.6296 105.39C92.7396 105.28 89.9596 104.11 87.3896 101.93C83.7396 98.8197 82.3796 94.6697 83.2396 89.2297C83.2896 88.9197 83.3396 88.6297 83.3996 88.3497C83.6496 87.0297 83.0196 84.8697 82.2796 83.3097C81.7196 82.1397 81.3196 81.3697 80.8796 80.5597C80.4096 79.6797 79.9296 78.7697 79.2296 77.2797C78.5996 75.9397 78.7296 74.6297 79.5396 74.1597C80.0596 73.8597 81.1596 73.7097 82.7496 75.9897C83.4896 77.0597 84.2596 78.3197 85.0096 79.5297C86.0096 81.1597 87.4996 83.5897 88.1196 83.9597C88.6296 83.4197 87.3596 79.4397 86.5896 77.0297C86.0796 75.4397 85.5096 73.6397 85.0296 71.8697C84.8096 71.0397 84.1296 68.5297 86.2396 67.4697C86.6096 67.2797 87.1096 67.0897 87.6396 67.3097C88.2496 67.5597 88.6896 68.2497 89.1996 69.7697C89.6896 71.2297 90.2696 73.5397 90.8296 75.7797C91.3196 77.7197 91.9396 80.1797 92.3996 81.5797C93.0396 78.5597 94.2796 70.8297 94.8696 66.4597C94.9996 65.4897 95.6796 63.9497 96.9396 63.9197C99.3496 63.8897 99.3896 66.1097 99.4096 66.9497V67.1797C99.4696 68.2797 99.2496 70.2197 98.9896 72.4697C98.5496 76.3497 97.8296 82.7297 98.9896 84.3597C99.2796 83.9797 99.9696 82.7397 101.24 78.7697C101.6 77.6497 101.91 76.6997 102.21 75.7997C102.84 73.8997 103.38 72.2497 104.05 69.8697C104.46 68.4197 105.02 67.0897 106.29 67.2497C108.5 67.5197 108.34 69.3397 108.27 70.1197L108.25 70.3697C108.14 72.1597 107.61 74.9397 106.84 77.7897C106.55 78.8697 106.1 80.0697 105.64 81.3397C104.34 84.8797 102.86 88.8797 104.79 90.2797C105.17 90.3097 106.81 90.0797 108.61 89.1697C109.37 88.7797 110.58 88.0597 111.64 87.4197C113.31 86.4097 113.76 86.1497 114.03 86.0997C115.53 85.7797 116.11 86.2897 116.34 86.7697C117.01 88.2197 114.81 90.7697 114.41 91.0797C112.74 92.3697 111.33 93.3397 110.08 94.1897C108.05 95.5797 106.58 96.5797 105.63 97.9297C105.32 98.3697 105.01 98.8497 104.7 99.3297C102.96 102.03 100.8 105.38 96.0496 105.38L96.0296 105.39ZM80.1796 75.2697C80.1796 75.2697 80.1796 75.2697 80.1696 75.2697C80.0896 75.3497 80.0096 75.9297 80.3896 76.7397C81.0796 78.1997 81.5496 79.0897 82.0196 79.9597C82.4596 80.7797 82.8696 81.5597 83.4396 82.7597C84.2096 84.3797 84.9896 86.8697 84.6596 88.5797C84.6096 88.8497 84.5596 89.1297 84.5096 89.4197C83.7196 94.3797 84.9396 98.1497 88.2196 100.95C90.5696 102.95 93.0796 104.01 95.6796 104.11C99.9596 104.28 101.83 101.42 103.62 98.6497C103.94 98.1497 104.26 97.6597 104.58 97.2097C105.66 95.6697 107.21 94.6097 109.35 93.1497C110.58 92.3097 111.98 91.3497 113.62 90.0797C114.17 89.6597 115.37 87.7397 115.17 87.3097C115.17 87.3097 115.12 87.2697 114.89 87.2697C114.75 87.2697 114.56 87.2897 114.28 87.3497C114.11 87.4197 113.1 88.0297 112.29 88.5197C111.21 89.1697 109.98 89.9097 109.18 90.3197C107.39 91.2197 104.89 91.8897 104.15 91.3997C101.29 89.4897 102.97 84.9397 104.45 80.9197C104.91 79.6797 105.34 78.4997 105.62 77.4797C106.37 74.6997 106.89 72.0197 106.99 70.3097L107.01 70.0197C107.1 69.0197 107.05 68.6297 106.15 68.5197C105.9 68.4997 105.59 69.1297 105.28 70.2197C104.6 72.6297 104.05 74.2897 103.42 76.2097C103.13 77.0997 102.81 78.0597 102.45 79.1697C100.62 84.9097 99.8196 85.5697 99.2196 85.7397C98.8996 85.8297 98.5896 85.7497 98.3296 85.5297C96.5696 83.9897 96.9896 78.8797 97.7296 72.3397C97.9796 70.1497 98.1896 68.2497 98.1496 67.2597V66.9997C98.1096 65.7497 97.9196 65.1797 96.9796 65.2097C96.6696 65.2097 96.2396 65.9597 96.1396 66.6497C95.5796 70.7897 93.8396 81.8997 93.2896 83.2497C93.0596 83.8097 92.6196 83.8297 92.4796 83.8197C91.6496 83.7597 91.2696 82.7497 89.5996 76.1097C89.0396 73.8997 88.4696 71.6097 87.9996 70.1997C87.4996 68.7097 87.2096 68.5297 87.1596 68.5097C87.1596 68.5097 87.0896 68.4897 86.8196 68.6297C85.7796 69.1597 85.9596 70.4097 86.2696 71.5697C86.7396 73.3197 87.2896 75.0297 87.8096 76.6797C89.3196 81.4197 90.3196 84.5497 88.5096 85.2397C87.3396 85.6797 86.1996 83.9297 83.9396 80.2297C83.1996 79.0297 82.4396 77.7797 81.7196 76.7497C80.8696 75.5197 80.3096 75.2997 80.1796 75.2997V75.2697Z" fill="black"/>
</g>
<path d="M205.59 139.32C205.46 138.59 205.06 137.96 204.45 137.54L197.13 132.42L202.25 125.1C203.12 123.85 202.82 122.12 201.57 121.25L193.72 115.75C193.26 115.42 192.71 115.25 192.14 115.25C191.24 115.25 190.39 115.69 189.87 116.43L184.75 123.75L178.41 119.31C185.03 107.67 188.84 94.24 188.84 79.92C188.84 35.85 152.99 0 108.92 0C64.85 0 29 35.85 29 79.92C29 123.99 64.85 159.84 108.92 159.84C133.26 159.84 155.07 148.89 169.74 131.68L176.09 136.13L170.97 143.45C170.1 144.7 170.4 146.43 171.65 147.3L179.5 152.8C179.97 153.13 180.51 153.3 181.08 153.3C181.98 153.3 182.83 152.86 183.35 152.12L188.47 144.8L195.79 149.92C196.26 150.25 196.8 150.42 197.37 150.42C198.27 150.42 199.12 149.98 199.64 149.24L205.14 141.39C205.56 140.79 205.72 140.05 205.6 139.32H205.59ZM197.02 145.65L187.44 138.94L180.73 148.52L175.23 144.67L181.94 135.09L169.02 126.04L166.54 128.95C152.08 145.91 131.08 155.63 108.91 155.63C67.16 155.63 33.19 121.66 33.19 79.91C33.19 38.16 67.16 4.18999 108.91 4.18999C150.66 4.18999 184.63 38.16 184.63 79.91C184.63 92.97 181.21 105.87 174.75 117.23L172.86 120.55L185.78 129.59L192.49 120.01L197.99 123.86L191.28 133.44L200.86 140.15L197.01 145.65H197.02Z" fill="#AD80DD"/>
<path d="M108.92 4.18994C67.17 4.18994 33.21 38.1499 33.21 79.8999C33.21 121.65 67.17 155.61 108.92 155.61C150.67 155.61 184.63 121.65 184.63 79.8999C184.63 38.1499 150.67 4.18994 108.92 4.18994ZM108.92 133.83C79.14 133.83 55 109.69 55 79.91C55 50.13 79.14 25.9899 108.92 25.9899C138.7 25.9899 162.84 50.13 162.84 79.91C162.84 109.69 138.7 133.83 108.92 133.83Z" fill="#6D25A0"/>
<path d="M69.3492 130.39C68.2092 131.71 66.3692 131.83 64.9992 130.64C63.6292 129.45 63.4892 127.61 64.6292 126.3C65.7592 124.99 67.6192 124.87 68.9792 126.05C70.3392 127.23 70.4792 129.09 69.3492 130.39ZM65.5392 127.09C64.7892 127.95 64.8492 129.11 65.6892 129.84C66.5292 130.57 67.6892 130.46 68.4392 129.6C69.1692 128.76 69.1192 127.58 68.2792 126.85C67.4392 126.12 66.2692 126.24 65.5392 127.09Z" fill="white"/>
<path d="M65.7598 123.31L61.5698 127.29L60.3798 126.04C59.4198 125.03 59.3598 124.17 60.0698 123.5C60.4798 123.11 61.0598 123.04 61.5598 123.33L61.5798 123.31C61.1898 122.66 61.2298 121.98 61.7698 121.48C62.5498 120.74 63.4498 120.87 64.5398 122.02L65.7698 123.32L65.7598 123.31ZM62.5198 124.82L62.1198 124.39C61.6698 123.91 61.2598 123.87 60.8998 124.21C60.5498 124.54 60.5798 124.93 61.0798 125.46L61.4498 125.84L62.5298 124.82H62.5198ZM64.3098 123.12L63.9098 122.69C63.3098 122.06 62.8698 121.99 62.4698 122.37C62.0698 122.75 62.1198 123.2 62.6698 123.78L63.1198 124.25L64.3198 123.12H64.3098Z" fill="white"/>
<path d="M61.7998 120.6L60.8699 120.33L60.8099 120.19C61.0199 119.63 60.9599 119.2 60.6399 118.8C60.3199 118.4 59.8499 118.33 59.5399 118.57C59.2299 118.81 59.1799 119.14 59.4799 120.19C59.8199 121.37 59.6899 122.01 59.0599 122.51C58.3699 123.06 57.3599 122.9 56.6299 122C56.0899 121.33 55.9699 120.61 56.1999 119.91L57.1399 120.16L57.2099 120.29C57.0899 120.68 57.1199 121.05 57.3899 121.39C57.6899 121.76 58.0499 121.81 58.3099 121.6C58.5599 121.4 58.5998 121.16 58.2998 120.08C57.9598 118.8 58.1199 118.2 58.7299 117.71C59.4999 117.09 60.6299 117.26 61.3799 118.19C61.9599 118.91 62.1199 119.7 61.7899 120.6H61.7998Z" fill="white"/>
<path d="M54.69 119.23L52.71 116.34L53.46 115.69L54.86 117.73L55.99 116.95L54.72 115.1L55.51 114.56L56.78 116.41L58 115.57L56.6 113.53L57.48 113.07L59.46 115.96L54.7 119.23H54.69Z" fill="white"/>
<path d="M54.41 108.14L54.56 108.12L55.15 109.15L53.94 111.65L54.26 112.21L56.25 111.06L56.83 112.07L51.82 114.95L50.85 113.27C50.17 112.09 50.32 111.16 51.35 110.57C52 110.2 52.65 110.26 53.21 110.74L54.4 108.13L54.41 108.14ZM52.06 113.48L53.48 112.67L53.15 112.1C52.78 111.46 52.4 111.28 51.91 111.56C51.39 111.86 51.36 112.28 51.73 112.92L52.06 113.49V113.48Z" fill="white"/>
<path d="M53.6096 105.92L49.2696 110.5L48.7196 109.31L51.1397 106.91C51.3797 106.68 51.6596 106.41 51.9896 106.15L51.9696 106.11C51.5496 106.2 51.1796 106.23 50.8496 106.26L47.4396 106.56L46.8896 105.37L53.1796 105.04L53.5897 105.93L53.6096 105.92Z" fill="white"/>
<path d="M50.7301 98.8999L49.7301 99.7299L50.5201 101.95H51.8201L52.2601 103.19L46.0301 102.92L45.6201 101.76L50.2901 97.6499L50.7301 98.8899V98.8999ZM49.5701 101.95L49.0001 100.34L47.8801 101.26C47.5901 101.5 47.2601 101.75 46.9001 101.97V102C47.3301 101.95 47.7401 101.93 48.1201 101.94H49.5701V101.95Z" fill="white"/>
<path d="M45.3894 97.5699L45.8694 99.3699L44.8694 99.6399L43.6094 94.9199L44.6094 94.6499L45.0894 96.4499L49.6694 95.2299L49.9694 96.3499L45.3894 97.5699Z" fill="white"/>
<path d="M42.5097 91.6098L41.2997 91.0098L41.1396 90.0198L41.1996 89.9698L42.3796 90.7998L42.5097 91.6098ZM46.1796 93.3298C44.4596 93.6098 42.9696 92.5298 42.6696 90.7298C42.3796 88.9298 43.4496 87.4398 45.1696 87.1498C46.8796 86.8698 48.3896 87.9698 48.6796 89.7498C48.9696 91.5298 47.8896 93.0498 46.1796 93.3298ZM45.3697 88.3498C44.2397 88.5298 43.5397 89.4598 43.7197 90.5598C43.8997 91.6598 44.8596 92.3198 45.9896 92.1298C47.0896 91.9498 47.8096 91.0098 47.6296 89.9198C47.4496 88.8298 46.4797 88.1598 45.3697 88.3398V88.3498Z" fill="white"/>
<path d="M47.56 81.0098L47.7 81.0598L47.77 82.2498L45.57 83.9398L45.61 84.5798L47.9 84.4398L47.97 85.5998L42.2 85.9498L42.08 84.0198C42 82.6598 42.54 81.8998 43.73 81.8298C44.48 81.7898 45.03 82.1398 45.32 82.8098L47.55 81.0098H47.56ZM43.08 84.7398L44.71 84.6398L44.67 83.9898C44.63 83.2498 44.37 82.9198 43.81 82.9498C43.21 82.9898 43 83.3498 43.04 84.0798L43.08 84.7298V84.7398Z" fill="white"/>
<path d="M41.9692 80.76L41.9492 79.62L47.7292 79.52L47.7492 80.66L41.9692 80.76Z" fill="white"/>
<path d="M44.7994 78.2098C43.0594 78.0798 41.8594 76.6798 41.9994 74.8698C42.1394 73.0598 43.5294 71.8498 45.2694 71.9798C46.9894 72.1098 48.1994 73.5298 48.0694 75.3198C47.9394 77.1098 46.5294 78.3398 44.7994 78.2098ZM45.1694 73.1798C44.0294 73.0898 43.1294 73.8298 43.0494 74.9398C42.9694 76.0498 43.7394 76.9098 44.8794 76.9998C45.9894 77.0798 46.9094 76.3398 46.9894 75.2398C47.0694 74.1398 46.2794 73.2598 45.1594 73.1798H45.1694Z" fill="white"/>
<path d="M48.6595 69.0101L43.0195 67.7701L43.3995 66.0301C43.8595 63.9501 45.1395 63.0301 46.9095 63.4201C48.6895 63.8101 49.4895 65.2601 49.0395 67.2801L48.6595 69.0101ZM47.8995 67.6801L48.0195 67.1501C48.3395 65.6901 47.9195 64.8701 46.6495 64.5801C45.4195 64.3101 44.7195 64.8701 44.3895 66.3301L44.2695 66.8801L47.8995 67.6801Z" fill="white"/>
<path d="M44.5596 61.3L45.6196 57.96L46.5996 58.15L45.8496 60.51L47.1596 60.93L47.8396 58.79L48.7496 59.08L48.0696 61.22L49.4796 61.67L50.2296 59.31L51.1396 59.72L50.0796 63.06L44.5696 61.31L44.5596 61.3Z" fill="white"/>
<path d="M53.05 55.1102L46.75 54.8202L47.29 53.6202L50.69 53.8802C51.02 53.9102 51.4 53.9402 51.82 54.0302L51.84 53.9902C51.5 53.7302 51.23 53.4702 51 53.2402L48.54 50.8602L49.08 49.6602L53.44 54.2002L53.04 55.0902L53.05 55.1102Z" fill="white"/>
<path d="M49.5596 48.8899L50.0996 47.8799L55.1996 50.5999L54.6596 51.6099L49.5596 48.8899Z" fill="white"/>
<path d="M53.1692 48.22C51.6392 47.25 51.2792 45.46 52.2192 43.99C52.8592 42.98 53.7592 42.47 54.8792 42.52V43.53L54.7792 43.63C54.0592 43.63 53.5592 43.9 53.1592 44.53C52.5792 45.44 52.8492 46.55 53.8392 47.17C54.8092 47.78 55.9092 47.59 56.4792 46.69C56.9492 45.95 56.9692 45.11 56.2892 44.58L56.2592 44.56L55.5092 45.75L54.7592 45.27L56.0792 43.19L58.6992 44.85L58.1492 45.73L57.9192 45.59C57.7392 45.48 57.5992 45.34 57.4892 45.2H57.4692C57.8192 45.95 57.7192 46.68 57.2692 47.41C56.3792 48.82 54.6792 49.17 53.1792 48.22H53.1692Z" fill="white"/>
<path d="M54.7393 40.5499L55.4193 39.6299L60.0693 43.0699L59.3893 43.9899L54.7393 40.5499Z" fill="white"/>
<path d="M56.2695 38.5099L56.9995 37.6299L60.6495 40.6499L62.2895 38.6599L63.0095 39.4199L60.7195 42.1899L56.2695 38.5099Z" fill="white"/>
<path d="M60.3392 33.1598L59.8392 33.6698L59.7492 33.6498L59.6592 32.2798L60.3292 31.5898L61.6992 31.6398V31.7298L61.2092 32.2398L60.2892 32.2198L60.3292 33.1398L60.3392 33.1598ZM66.3692 35.9098L65.1792 35.3698L63.5292 37.0498L64.0992 38.2198L63.1792 39.1598L60.6792 33.4498L61.5392 32.5698L67.2792 34.9598L66.3592 35.8998L66.3692 35.9098ZM63.1292 36.1998L64.3192 34.9798L62.9992 34.3798C62.6492 34.2198 62.2892 34.0398 61.9292 33.8098L61.9092 33.8298C62.1392 34.1798 62.3292 34.5398 62.4992 34.8798L63.1292 36.1798V36.1998Z" fill="white"/>
<path d="M67.8296 34.51L64.1396 30.07L64.9396 29.4L68.0496 30C68.5396 30.1 69.0196 30.2 69.6396 30.35L69.6596 30.33C69.2896 29.97 69.0296 29.68 68.6796 29.26L67.2196 27.5L68.0996 26.77L71.8396 31.27L71.2196 31.79L67.7996 31.16C67.3096 31.07 66.8096 30.96 66.1896 30.82H66.1796C66.5396 31.19 66.7996 31.49 67.1496 31.91L68.6996 33.78L67.8296 34.51Z" fill="white"/>
<path d="M71.0893 28.1098C70.0993 26.6198 70.4993 24.8398 71.9293 23.8898C72.8893 23.2498 73.9293 23.1498 74.9393 23.6798L74.5293 24.5998L74.3893 24.6498C73.7193 24.3298 73.1393 24.3698 72.5593 24.7598C71.6893 25.3398 71.4893 26.4598 72.1193 27.4198C72.7493 28.3698 73.8793 28.6098 74.7493 28.0298C75.3593 27.6198 75.6093 27.1098 75.5693 26.3798L75.6693 26.2798L76.6693 26.2598C76.7493 27.4198 76.2693 28.3198 75.3093 28.9498C73.8593 29.9198 72.0793 29.5898 71.0893 28.1098Z" fill="white"/>
<path d="M75.3496 21.9599L76.3396 21.3999L79.1896 26.4199L78.1996 26.9799L75.3496 21.9599Z" fill="white"/>
<path d="M83.6794 24.1301L82.7394 23.2301L80.6194 24.2601L80.7594 25.5501L79.5794 26.1301L79.1494 19.9101L80.2594 19.3701L84.8694 23.5601L83.6894 24.1301H83.6794ZM80.5294 23.3201L82.0594 22.5701L81.0194 21.5601C80.7494 21.2901 80.4594 21.0001 80.1994 20.6701H80.1694C80.2694 21.0901 80.3294 21.5001 80.3694 21.8801L80.5294 23.3201Z" fill="white"/>
<path d="M87.3998 22.57L85.5898 17.08L87.2798 16.52C89.2998 15.85 90.7498 16.48 91.3198 18.2C91.8898 19.94 91.0598 21.36 89.0898 22.01L87.4098 22.57H87.3998ZM88.1698 21.23L88.6898 21.06C90.1098 20.59 90.6098 19.81 90.1998 18.57C89.7998 17.38 88.9598 17.05 87.5398 17.52L87.0098 17.7L88.1798 21.24L88.1698 21.23Z" fill="white"/>
<path d="M91.6895 15.1902L92.7995 14.9102L94.2395 20.5102L93.1295 20.7902L91.6895 15.1902Z" fill="white"/>
<path d="M94.6596 17.3899C94.3396 15.6099 95.4196 14.1399 97.1396 13.8299C98.3096 13.6199 99.2996 13.9399 100.01 14.7999L99.2596 15.4799H99.1196C98.6296 14.9499 98.0996 14.7499 97.3696 14.8799C96.3096 15.0699 95.6696 16.0099 95.8796 17.1699C96.0796 18.2899 96.9696 18.9799 98.0196 18.7899C98.8796 18.6399 99.5196 18.0799 99.4496 17.2299V17.1999L98.0596 17.4499L97.8996 16.5699L100.32 16.1399L100.87 19.1899L99.8496 19.3699L99.7996 19.1099C99.7596 18.8999 99.7696 18.7099 99.7996 18.5299H99.7796C99.4696 19.2799 98.8596 19.7099 98.0196 19.8599C96.3796 20.1499 94.9796 19.1399 94.6596 17.3999V17.3899Z" fill="white"/>
<path d="M101.39 13.37L102.53 13.25L103.12 19L101.98 19.12L101.39 13.37Z" fill="white"/>
<path d="M105.33 14.0899L103.47 14.1699L103.42 13.1399L108.29 12.9199L108.34 13.9599L106.48 14.0399L106.69 18.7699L105.53 18.8199L105.32 14.0899H105.33Z" fill="white"/>
<path d="M112.61 18.8197L112.2 17.5797L109.84 17.4997L109.36 18.7097L108.05 18.6697L110.58 12.9697L111.81 13.0097L113.93 18.8697L112.62 18.8297L112.61 18.8197ZM110.2 16.6197L111.91 16.6797L111.46 15.2997C111.34 14.9397 111.23 14.5397 111.16 14.1297H111.13C111.03 14.5297 110.89 14.9197 110.75 15.2797L110.21 16.6297L110.2 16.6197Z" fill="white"/>
<path d="M115.149 13.22L116.279 13.35L115.729 18.06L118.289 18.36L118.039 19.37L114.479 18.95L115.149 13.21V13.22Z" fill="white"/>
<path d="M122.139 14.2397L125.549 15.0197L125.439 16.0098L123.029 15.4597L122.729 16.7997L124.919 17.2997L124.709 18.2298L122.519 17.7298L122.189 19.1698L124.599 19.7197L124.269 20.6597L120.859 19.8797L122.149 14.2498L122.139 14.2397Z" fill="white"/>
<path d="M127.44 21.5301L129.41 16.1001L131.08 16.7101C133.08 17.4301 133.83 18.8201 133.21 20.5301C132.59 22.2501 131.05 22.8501 129.1 22.1401L127.43 21.5401L127.44 21.5301ZM128.86 20.9601L129.37 21.1501C130.78 21.6601 131.65 21.3501 132.09 20.1201C132.52 18.9401 132.05 18.1601 130.65 17.6501L130.12 17.4601L128.85 20.9601H128.86Z" fill="white"/>
<path d="M135.61 18.46L138.78 19.94L138.47 20.88L136.23 19.84L135.65 21.08L137.69 22.03L137.29 22.9L135.25 21.95L134.63 23.29L136.87 24.33L136.35 25.18L133.18 23.7L135.62 18.46H135.61Z" fill="white"/>
<path d="M139.17 26.69L142.17 21.75L143.77 22.72C144.97 23.45 145.25 24.36 144.64 25.37C144.06 26.33 143.09 26.51 142 25.85L141.3 25.43L140.16 27.3L139.17 26.7V26.69ZM141.78 24.63L142.3 24.94C142.94 25.33 143.37 25.28 143.68 24.78C144 24.26 143.83 23.86 143.2 23.47L142.68 23.16L141.79 24.62L141.78 24.63Z" fill="white"/>
<path d="M147.1 31.8598L146.97 31.9398L146.01 31.2398L146.1 28.4698L145.58 28.0898L144.23 29.9398L143.29 29.2598L146.69 24.5898L148.25 25.7298C149.35 26.5298 149.59 27.4398 148.89 28.3998C148.45 29.0098 147.83 29.2098 147.12 28.9998L147.09 31.8698L147.1 31.8598ZM147.08 26.0398L146.12 27.3598L146.65 27.7398C147.25 28.1798 147.67 28.1898 148 27.7398C148.36 27.2498 148.21 26.8598 147.61 26.4298L147.08 26.0498V26.0398Z" fill="white"/>
<path d="M151.199 27.96L153.859 30.24L153.299 31.06L151.419 29.45L150.529 30.49L152.229 31.95L151.609 32.68L149.909 31.22L148.949 32.34L150.829 33.95L150.099 34.63L147.439 32.35L151.199 27.96Z" fill="white"/>
<path d="M152.169 36.7497L154.709 30.9697L155.629 31.9097L154.159 34.9897C154.009 35.2797 153.839 35.6297 153.609 35.9997L153.639 36.0297C154.009 35.8097 154.339 35.6497 154.639 35.5097L157.749 34.0697L158.669 35.0097L152.849 37.4497L152.159 36.7497H152.169Z" fill="white"/>
<path d="M159.409 35.9102L161.639 38.6102L160.949 39.3302L159.369 37.4302L158.309 38.3002L159.739 40.0302L158.999 40.6402L157.569 38.9102L156.429 39.8502L158.009 41.7602L157.179 42.3002L154.949 39.6002L159.399 35.9202L159.409 35.9102Z" fill="white"/>
<path d="M157.98 43.2698L162.74 40.0098L163.33 40.8698L162.45 43.9098C162.3 44.3898 162.16 44.8598 161.95 45.4598V45.4798C162.36 45.1398 162.67 44.9098 163.12 44.6098L165 43.3198L165.64 44.2598L160.82 47.5598L160.36 46.8898L161.3 43.5498C161.44 43.0698 161.59 42.5798 161.79 41.9798C161.4 42.2898 161.08 42.5198 160.62 42.8298L158.61 44.1998L157.97 43.2598L157.98 43.2698Z" fill="white"/>
<path d="M165.35 52.8399C164.22 52.8099 163.39 52.2799 162.84 51.3099L162.38 51.2599C162.38 51.2599 162.46 51.3599 162.51 51.4499C162.71 51.8199 162.63 52.1999 162.3 52.3799C161.88 52.6099 161.42 52.3799 161.09 51.7699C160.95 51.5199 160.84 51.1499 160.83 50.8999L161.29 50.8499L161.35 50.9099C161.35 51.1099 161.4 51.3399 161.5 51.5199C161.61 51.7299 161.78 51.8199 161.93 51.7399C162.07 51.6599 162.08 51.4999 161.96 51.2799C161.91 51.1799 161.83 51.0699 161.75 51.0099L161.82 50.7399L162.59 50.8099C162.06 49.3899 162.59 47.8799 164.02 47.1099C165.59 46.2599 167.33 46.8299 168.14 48.3399C168.69 49.3499 168.69 50.3999 168.07 51.3599L167.19 50.8699L167.15 50.7199C167.53 50.0899 167.54 49.5099 167.21 48.8899C166.71 47.9699 165.62 47.6599 164.61 48.2099C163.6 48.7499 163.26 49.8599 163.76 50.7799C164.11 51.4299 164.59 51.7199 165.32 51.7499L165.41 51.8599L165.33 52.8599L165.35 52.8399Z" fill="white"/>
<path d="M166.07 57.9797L167.03 57.0997L166.13 54.9197L164.83 54.9797L164.33 53.7697L170.56 53.7097L171.03 54.8497L166.58 59.1997L166.08 57.9897L166.07 57.9797ZM167.07 54.8797L167.72 56.4597L168.79 55.4797C169.07 55.2197 169.39 54.9597 169.73 54.7197V54.6897C169.31 54.7597 168.9 54.7997 168.52 54.8197L167.07 54.8897V54.8797ZM170.9 53.2397L170.7 52.7497C171.29 52.5697 171.8 52.7297 171.97 53.1297C172.13 53.5097 171.94 54.0197 172.07 54.3197C172.14 54.4797 172.29 54.4997 172.48 54.4697L172.55 54.5097L172.75 54.9897C172.16 55.1697 171.65 55.0097 171.48 54.6097C171.31 54.1997 171.52 53.7397 171.39 53.4197C171.33 53.2697 171.18 53.2397 170.98 53.2697L170.91 53.2397H170.9Z" fill="white"/>
<path d="M169.44 58.6201C171.12 58.1201 172.73 59.0101 173.25 60.7501C173.77 62.5001 172.89 64.1201 171.22 64.6101C169.56 65.1001 167.93 64.2101 167.41 62.4801C166.89 60.7501 167.78 59.1101 169.44 58.6201ZM170.88 63.4601C171.98 63.1401 172.55 62.1301 172.24 61.0601C171.92 60.0001 170.89 59.4601 169.79 59.7801C168.72 60.1001 168.12 61.1201 168.44 62.1801C168.76 63.2401 169.81 63.7801 170.88 63.4601Z" fill="white"/>
<path d="M169.09 68.57L174.8 67.73L175.06 69.49C175.37 71.6 174.5 72.91 172.71 73.18C170.9 73.45 169.65 72.38 169.34 70.33L169.08 68.58L169.09 68.57ZM170.28 69.55L170.36 70.09C170.58 71.57 171.26 72.19 172.55 72C173.79 71.82 174.26 71.04 174.04 69.56L173.96 69L170.28 69.54V69.55Z" fill="white"/>
<path d="M172.83 74.42C174.57 74.36 175.91 75.62 175.98 77.43C176.04 79.25 174.8 80.6 173.05 80.66C171.32 80.72 169.96 79.45 169.9 77.65C169.84 75.85 171.1 74.48 172.83 74.42ZM173 79.45C174.14 79.41 174.95 78.58 174.91 77.46C174.87 76.35 174 75.58 172.86 75.62C171.74 75.66 170.92 76.5 170.96 77.6C171 78.71 171.88 79.48 173 79.44V79.45Z" fill="white"/>
<path d="M175.749 84.3698L175.449 87.7498L174.459 87.7698L174.669 85.4198L173.249 85.2898L173.059 87.4398L172.109 87.3499L172.299 85.1998L169.899 84.9798L169.999 83.8398L175.759 84.3598L175.749 84.3698Z" fill="white"/>
<path d="M175.259 89.19L174.689 92.65L173.699 92.6L174.099 90.16L172.749 89.94L172.379 92.16L171.439 92L171.809 89.78L170.349 89.54L169.949 91.98L168.989 91.71L169.559 88.25L175.259 89.19Z" fill="white"/>
<path d="M170.29 96.65V96.67L173.09 99.14L172.71 100.53L167.14 99.01L167.43 97.93L171.6 99.09V99.07L168.49 96.24L168.53 96.1L172.65 95.25V95.23L168.48 94.11L168.78 93.02L174.36 94.54L173.98 95.93L170.31 96.64L170.29 96.65Z" fill="white"/>
<path d="M172.099 102.1L171.709 103.17L166.279 101.2L166.669 100.13L172.099 102.1Z" fill="white"/>
<path d="M165.9 102.35L171.18 104.69L170.76 105.65L167.71 106.49C167.23 106.61 166.75 106.74 166.13 106.88V106.9C166.61 107.06 166.97 107.21 167.47 107.43L169.56 108.36L169.1 109.4L163.75 107.03L164.08 106.29L167.42 105.34C167.9 105.2 168.39 105.08 169.01 104.93C168.53 104.75 168.16 104.6 167.66 104.38L165.44 103.39L165.9 102.35Z" fill="white"/>
<path d="M168.329 110.81L167.789 111.82L162.689 109.11L163.229 108.1L168.329 110.81Z" fill="white"/>
<path d="M164.729 111.5C166.239 112.45 166.609 114.24 165.699 115.69C165.089 116.66 164.189 117.19 163.039 117.12V116.12L163.139 116.01C163.879 116.03 164.389 115.75 164.759 115.16C165.309 114.28 165.039 113.17 164.069 112.56C163.099 111.95 161.969 112.2 161.419 113.08C161.029 113.7 161.009 114.27 161.339 114.92L161.289 115.05L160.389 115.48C159.849 114.46 159.919 113.44 160.529 112.47C161.449 111 163.219 110.56 164.719 111.51L164.729 111.5Z" fill="white"/>
<path d="M163.38 118.86L162.71 119.78L158.04 116.38L158.71 115.46L163.38 118.86ZM163.9 118.92L164.32 120.2L163.73 121.01H163.65L163.41 119.58L163.89 118.92H163.9Z" fill="white"/>
<path d="M157.38 117.33L161.81 121.04L160.67 122.4C159.3 124.03 157.74 124.26 156.35 123.1C154.95 121.93 154.91 120.28 156.24 118.69L157.38 117.33ZM157.44 118.86L157.09 119.28C156.13 120.43 156.12 121.35 157.12 122.19C158.08 123 158.97 122.82 159.93 121.68L160.29 121.25L157.44 118.86Z" fill="white"/>
<path d="M157.609 125.86L156.819 126.68L152.649 122.68L153.439 121.86L157.609 125.86Z" fill="white"/>
<path d="M153.95 125.58C155.12 126.88 155.01 128.72 153.65 129.94C152.29 131.15 150.45 131.06 149.29 129.76C148.14 128.47 148.24 126.61 149.59 125.4C150.94 124.2 152.8 124.29 153.95 125.58ZM150.19 128.95C150.95 129.8 152.11 129.9 152.94 129.15C153.77 128.41 153.81 127.24 153.05 126.39C152.3 125.56 151.13 125.46 150.3 126.2C149.47 126.94 149.44 128.12 150.19 128.95Z" fill="white"/>
<path d="M136.38 105.3H81.4399C76.1822 105.3 71.9199 109.562 71.9199 114.82C71.9199 120.078 76.1822 124.34 81.4399 124.34H136.38C141.638 124.34 145.9 120.078 145.9 114.82C145.9 109.562 141.638 105.3 136.38 105.3Z" fill="#4F247C"/>
<path d="M76.59 117.36L74.25 111.51H75.56L76.73 114.72C76.84 115.03 76.97 115.4 77.06 115.81H77.1C77.2 115.39 77.32 115.04 77.43 114.73L78.58 111.51H79.89L77.56 117.36H76.58H76.59Z" fill="white"/>
<path d="M80.5498 111.51H81.6898V117.29H80.5498V111.51Z" fill="white"/>
<path d="M82.7102 114.42C82.7102 112.61 84.0302 111.35 85.7802 111.35C86.9702 111.35 87.8902 111.84 88.4402 112.81L87.5802 113.35L87.4402 113.32C87.0502 112.72 86.5602 112.43 85.8202 112.43C84.7402 112.43 83.9502 113.25 83.9502 114.42C83.9502 115.59 84.7002 116.4 85.7702 116.4C86.6402 116.4 87.3702 115.97 87.4502 115.11V115.08H86.0402V114.19H88.5002V117.29H87.4602V117.02C87.4602 116.81 87.5002 116.62 87.5602 116.45H87.5402C87.1002 117.14 86.4302 117.45 85.5702 117.45C83.9002 117.45 82.7002 116.2 82.7002 114.43L82.7102 114.42Z" fill="white"/>
<path d="M89.6797 111.51H90.8197V117.29H89.6797V111.51Z" fill="white"/>
<path d="M92.0801 111.51H95.4801L95.5901 112.5H93.2301V113.93H95.3901V114.89H93.2301V117.3H92.0901V111.52L92.0801 111.51Z" fill="white"/>
<path d="M96.5498 111.51H100.05L100.16 112.5H97.6898V113.87H99.9398V114.83H97.6898V116.31H100.16L100.05 117.3H96.5498V111.52V111.51Z" fill="white"/>
<path d="M104.36 114.86H104.38L106.03 111.5H107.47V117.28H106.35L106.37 112.95H106.35L104.44 116.7H104.29L102.39 112.95H102.37L102.39 117.28H101.26V111.5H102.7L104.36 114.86Z" fill="white"/>
<path d="M108.73 111.51H109.87V117.29H108.73V111.51Z" fill="white"/>
<path d="M111.14 117.29V111.51H112.18L114.19 113.96C114.5 114.35 114.81 114.74 115.19 115.25H115.21C115.15 114.74 115.14 114.34 115.14 113.8V111.51H116.28V117.36H115.47L113.24 114.69C112.92 114.31 112.6 113.91 112.22 113.4H112.2C112.25 113.91 112.26 114.31 112.26 114.85V117.28H111.13L111.14 117.29Z" fill="white"/>
<path d="M117.54 111.51H118.68V117.29H117.54V111.51Z" fill="white"/>
<path d="M119.71 114.4C119.71 112.61 121.03 111.35 122.75 111.35C123.9 111.35 124.82 111.84 125.37 112.84L124.52 113.38L124.37 113.35C123.99 112.71 123.49 112.43 122.79 112.43C121.75 112.43 120.95 113.25 120.95 114.4C120.95 115.55 121.76 116.37 122.8 116.37C123.53 116.37 124.02 116.08 124.4 115.46L124.54 115.43L125.38 115.97C124.8 116.97 123.9 117.46 122.75 117.46C121.01 117.46 119.71 116.19 119.71 114.42V114.4Z" fill="white"/>
<path d="M126.06 111.05L126.84 109.96H127.84L127.88 110.02L126.87 111.05H126.05H126.06ZM126.32 111.51H127.46V117.29H126.32V111.51Z" fill="white"/>
<path d="M128.73 117.29V111.51H130.51C132.64 111.51 133.82 112.56 133.82 114.38C133.82 116.2 132.58 117.29 130.51 117.29H128.74H128.73ZM129.87 116.26H130.42C131.91 116.26 132.63 115.67 132.63 114.37C132.63 113.07 131.93 112.54 130.43 112.54H129.87V116.26Z" fill="white"/>
<path d="M134.82 111.51H135.96V117.29H134.82V111.51Z" fill="white"/>
<path d="M136.98 114.4C136.98 112.65 138.29 111.35 140.11 111.35C141.93 111.35 143.24 112.65 143.24 114.4C143.24 116.15 141.92 117.44 140.11 117.44C138.3 117.44 136.98 116.13 136.98 114.4ZM142.03 114.4C142.03 113.26 141.23 112.42 140.11 112.42C138.99 112.42 138.19 113.26 138.19 114.4C138.19 115.54 139 116.38 140.11 116.38C141.22 116.38 142.03 115.52 142.03 114.4Z" fill="white"/>
<path d="M80.6797 150.13C89.4097 153.65 98.9397 155.61 108.92 155.61C118.9 155.61 128.43 153.65 137.16 150.13L108.92 133.83L80.6797 150.13Z" fill="#AD80DD"/>
</svg>
